<?xml version="1.0" encoding="UTF-8" standalone="no"?>
<!-- Created with Inkscape (http://www.inkscape.org/) -->

<svg
   version="1.1"
   id="svg2"
   xml:space="preserve"
   width="645.12"
   height="654.5733"
   viewBox="0 0 645.12 654.5733"
   xmlns="http://www.w3.org/2000/svg"
   xmlns:svg="http://www.w3.org/2000/svg"><defs
     id="defs6" /><g
     id="g8"
     transform="matrix(1.3333333,0,0,-1.3333333,0,654.57333)"><path
       d="m 194.163,263.703 c 20.114,0 36.518,3.327 36.518,7.407 0,4.08 -16.404,7.408 -36.518,7.408 -20.113,0 -36.519,-3.328 -36.519,-7.408 0,-4.08 16.406,-7.407 36.519,-7.407"
       style="fill:#463c3b;fill-opacity:1;fill-rule:evenodd;stroke:none;stroke-width:0.1"
       id="path62" /><path
       d="m 168.321,273.723 h 43.946 v 41.244 h -43.946 v -41.244"
       style="fill:#463c3b;fill-opacity:1;fill-rule:evenodd;stroke:none;stroke-width:0.1"
       id="path64" /><path
       d="m 440.52,448.711 8.119,11.278 -0.117,9.87 c -0.081,6.921 5.297,12.682 12.209,13.075 l 10.221,7.243 c 1.545,1.094 3.64,0.978 5.054,-0.28 1.415,-1.258 1.777,-3.325 0.87,-4.988 l 6.051,-11.525 c 1.74,-3.313 0.935,-7.392 -1.936,-9.795 l -16.397,-10.606 -7.663,-13.949 -16.411,9.677"
       style="fill:#f28f61;fill-opacity:1;fill-rule:evenodd;stroke:none;stroke-width:0.1"
       id="path66" /><path
       d="m 253.815,449.196 -9.903,9.748 -1.548,9.749 c -1.086,6.836 -7.358,11.609 -14.236,10.832 l -11.297,5.416 c -1.707,0.818 -3.753,0.351 -4.935,-1.127 -1.183,-1.478 -1.19,-3.577 -0.017,-5.063 l -4.023,-12.379 c -1.157,-3.56 0.326,-7.444 3.559,-9.33 l 17.951,-7.692 9.902,-12.459 14.547,12.305"
       style="fill:#f28f61;fill-opacity:1;fill-rule:evenodd;stroke:none;stroke-width:0.1"
       id="path68" /><path
       d="m 199.104,84.5469 1.171,-5.491 c 1.045,-4.9059 0.099,-10.027 -2.631,-14.236 h -28.937 l 6.499,6.811 23.898,12.916"
       style="fill:#ab6c21;fill-opacity:1;fill-rule:evenodd;stroke:none;stroke-width:0.1"
       id="path70" /><path
       d="m 124.664,378.556 h 121.775 c 2.215,0 4.403,-1.81 4.868,-4.024 l 17.518,-83.405 c 0.465,-2.213 -0.965,-4.023 -3.179,-4.023 H 143.871 c -2.213,0 -4.404,1.81 -4.868,4.023 l -17.518,83.405 c -0.464,2.214 0.966,4.024 3.179,4.024"
       style="fill:#b2a29e;fill-opacity:1;fill-rule:evenodd;stroke:none;stroke-width:0.1"
       id="path72" /><path
       d="m 234.258,54.0641 c 129.024,0 234.257,2.9879 234.257,6.6539 0,3.6652 -105.233,6.6531 -234.257,6.6531 C 105.233,67.3711 0,64.3832 0,60.718 0,57.052 105.233,54.0641 234.258,54.0641"
       style="fill:#ab6c21;fill-opacity:1;fill-rule:evenodd;stroke:none;stroke-width:0.1"
       id="path74" /><path
       d="m 292.368,60.718 h 127.92 V 260.416 H 292.368 V 60.718"
       style="fill:#ab6c21;fill-opacity:1;fill-rule:evenodd;stroke:none;stroke-width:0.1"
       id="path76" /><path
       d="m 415.027,60.7172 h 10.522 V 260.416 H 415.027 V 60.7172"
       style="fill:#ab6c21;fill-opacity:1;fill-rule:evenodd;stroke:none;stroke-width:0.1"
       id="path78" /><path
       d="M 35.2914,260.416 H 438.897 v 13.307 H 35.2914 v -13.307"
       style="fill:#f7af58;fill-opacity:1;fill-rule:evenodd;stroke:none;stroke-width:0.1"
       id="path80" /><path
       d="m 414.661,416.144 31.885,44.125 16.588,-11.793 -28.665,-70.696 -19.808,38.364"
       style="fill:#fcd1d6;fill-opacity:1;fill-rule:evenodd;stroke:none;stroke-width:0.1"
       id="path82" /><path
       d="m 273.655,235.058 -26.078,-17.679 c -2.458,-1.664 -3.771,-4.897 -3.559,-8.764 l 6.528,-119.9181 -14.858,-17.066 23.898,12.916 18.568,58.1131 c 1.632,5.107 1.563,11.281 -0.193,17.527 L 266.609,195.24 H 280.5 l -6.845,39.818"
       style="fill:#d64420;fill-opacity:1;fill-rule:evenodd;stroke:none;stroke-width:0.1"
       id="path84" /><path
       d="m 249.354,235.058 -30.329,-17.679 c -2.857,-1.664 -4.945,-4.897 -5.663,-8.764 L 191.062,88.6969 173.082,70.482 199.104,84.5469 231.64,142.66 c 2.86,5.107 4.278,11.281 4.022,17.527 l -2.925,35.053 h 13.893 l 2.724,39.818"
       style="fill:#f3652f;fill-opacity:1;fill-rule:evenodd;stroke:none;stroke-width:0.1"
       id="path86" /><path
       d="m 314.079,263.273 -59.772,-25.139 c -6.764,-2.843 -11.854,-9.943 -13.426,-18.716 -1.57,-8.772 0.61,-17.942 5.749,-24.178 h 108.944 c 25.988,0 30.969,23.492 10.807,64.628 l -52.302,3.405"
       style="fill:#6398d7;fill-opacity:1;fill-rule:evenodd;stroke:none;stroke-width:0.1"
       id="path88" /><path
       d="m 248.159,457.042 86.409,-89.763 c 13.44,-0.457 19.78,-2.452 35.068,-11.162 l 41.31,-26.306 -44.565,-69.943 -52.302,3.405 8.665,34.352 c -10.401,8.458 -8.984,21.667 -2.786,30.947 l -86.344,113.271 14.545,15.199"
       style="fill:#fcd1d6;fill-opacity:1;fill-rule:evenodd;stroke:none;stroke-width:0.1"
       id="path90" /><path
       d="m 362.833,436.891 c 11.793,0 19.829,-13.232 17.944,-29.555 -1.883,-16.323 -12.97,-29.556 -24.764,-29.556 -11.793,0 -19.827,13.233 -17.944,29.556 1.884,16.323 12.971,29.555 24.764,29.555"
       style="fill:#f28f61;fill-opacity:1;fill-rule:evenodd;stroke:none;stroke-width:0.1"
       id="path92" /><path
       d="m 361.891,404.073 -9.706,7.25 c -8.757,6.539 -12.346,17.948 -8.907,28.322 3.437,10.373 13.131,17.382 24.058,17.397 23.42,0.033 45.758,-9.854 61.481,-27.21 15.722,-17.357 23.359,-40.56 21.018,-63.862 -2.17,-21.616 -17.974,-39.396 -39.186,-44.087 -21.212,-4.691 -43.039,4.765 -54.124,23.45 -11.083,18.685 -8.919,42.374 5.366,58.74"
       style="fill:#2e2825;fill-opacity:1;fill-rule:evenodd;stroke:none;stroke-width:0.1"
       id="path94" /><path
       d="m 382.346,320.693 v 0 c 20.117,0 32.487,-16.459 27.491,-36.576 l -7.559,-30.44 c -2.114,-8.509 -10.807,-15.474 -19.317,-15.474 h -42.203 c -8.511,0 -13.744,6.965 -11.632,15.474 l 7.56,30.44 c 4.997,20.117 25.543,36.576 45.66,36.576"
       style="fill:#f1444b;fill-opacity:1;fill-rule:evenodd;stroke:none;stroke-width:0.1"
       id="path96" /><path
       d="m 391.011,314.967 h 10e-4 c 20.116,0 32.488,-16.459 27.491,-36.575 l -7.559,-30.441 c -2.114,-8.51 -10.807,-15.473 -19.319,-15.473 h -42.202 c -8.51,0 -13.745,6.963 -11.631,15.473 l 7.56,30.441 c 4.996,20.116 25.543,36.575 45.659,36.575"
       style="fill:#463c3b;fill-opacity:1;fill-rule:evenodd;stroke:none;stroke-width:0.1"
       id="path98" /><path
       d="m 297.37,182.189 h 83.682 V 195.24 H 297.37 v -13.051"
       style="fill:#463c3b;fill-opacity:1;fill-rule:evenodd;stroke:none;stroke-width:0.1"
       id="path100" /><path
       d="m 393.837,265.903 h 0.002 c 8.297,0 13.189,-6.79 10.868,-15.087 l -17.135,-61.279 c -2.322,-8.297 -11.009,-15.086 -19.307,-15.086 v 0 c -8.298,0 -13.188,6.789 -10.869,15.086 l 17.137,61.279 c 2.319,8.297 11.007,15.087 19.304,15.087"
       style="fill:#2e2825;fill-opacity:1;fill-rule:evenodd;stroke:none;stroke-width:0.1"
       id="path102" /><path
       d="m 325.518,169.134 h 27.386 v 13.055 h -27.386 v -13.055"
       style="fill:#2e2825;fill-opacity:1;fill-rule:evenodd;stroke:none;stroke-width:0.1"
       id="path104" /><path
       d="m 331.938,137.931 h 14.546 v 31.203 h -14.546 v -31.203"
       style="fill:#d7c9c4;fill-opacity:1;fill-rule:evenodd;stroke:none;stroke-width:0.1"
       id="path106" /><path
       d="m 327.854,100.64 h 22.713 v 40.696 H 327.854 V 100.64"
       style="fill:#2e2825;fill-opacity:1;fill-rule:evenodd;stroke:none;stroke-width:0.1"
       id="path108" /><path
       d="M 331.938,109.306 269.207,77.1191 274.003,70.4672 333.27,83 V 68.7629 h 11.882 V 83 l 59.265,-12.5328 4.797,6.6519 -62.73,32.1869 -7.274,-2.168 -7.272,2.168"
       style="fill:#2e2825;fill-opacity:1;fill-rule:evenodd;stroke:none;stroke-width:0.1"
       id="path110" /><path
       d="m 274.363,74.023 c 3.675,0 7.266,-2.9781 8.021,-6.6519 0.755,-3.6742 -1.611,-6.6531 -5.285,-6.6531 -3.676,0 -7.267,2.9789 -8.022,6.6531 -0.755,3.6738 1.612,6.6519 5.286,6.6519"
       style="fill:#2e2825;fill-opacity:1;fill-rule:evenodd;stroke:none;stroke-width:0.1"
       id="path112" /><path
       d="m 281.157,74.023 c 3.675,0 7.266,-2.9781 8.022,-6.6519 0.756,-3.6742 -1.611,-6.6531 -5.287,-6.6531 -3.674,0 -7.265,2.9789 -8.02,6.6531 -0.756,3.6738 1.611,6.6519 5.285,6.6519"
       style="fill:#2e2825;fill-opacity:1;fill-rule:evenodd;stroke:none;stroke-width:0.1"
       id="path114" /><path
       d="m 398.31,74.023 c 3.675,0 7.267,-2.9781 8.023,-6.6519 0.754,-3.6742 -1.613,-6.6531 -5.287,-6.6531 -3.675,0 -7.266,2.9789 -8.022,6.6531 -0.755,3.6738 1.612,6.6519 5.286,6.6519"
       style="fill:#2e2825;fill-opacity:1;fill-rule:evenodd;stroke:none;stroke-width:0.1"
       id="path116" /><path
       d="m 405.104,74.023 c 3.676,0 7.267,-2.9781 8.022,-6.6519 0.756,-3.6742 -1.611,-6.6531 -5.286,-6.6531 -3.674,0 -7.265,2.9789 -8.021,6.6531 -0.756,3.6738 1.611,6.6519 5.285,6.6519"
       style="fill:#2e2825;fill-opacity:1;fill-rule:evenodd;stroke:none;stroke-width:0.1"
       id="path118" /><path
       d="m 337.951,74.023 c 3.674,0 7.266,-2.9781 8.021,-6.6519 0.756,-3.6742 -1.611,-6.6531 -5.286,-6.6531 -3.675,0 -7.266,2.9789 -8.021,6.6531 -0.756,3.6738 1.612,6.6519 5.286,6.6519"
       style="fill:#2e2825;fill-opacity:1;fill-rule:evenodd;stroke:none;stroke-width:0.1"
       id="path120" /><path
       d="m 344.745,74.023 c 3.675,0 7.266,-2.9781 8.022,-6.6519 0.756,-3.6742 -1.611,-6.6531 -5.287,-6.6531 -3.674,0 -7.265,2.9789 -8.021,6.6531 -0.755,3.6738 1.612,6.6519 5.286,6.6519"
       style="fill:#2e2825;fill-opacity:1;fill-rule:evenodd;stroke:none;stroke-width:0.1"
       id="path122" /><path
       d="M 43.2871,60.718 H 171.208 V 260.416 H 43.2871 V 60.718"
       style="fill:#da8a37;fill-opacity:1;fill-rule:evenodd;stroke:none;stroke-width:0.1"
       id="path124" /><path
       d="M 165.947,60.7172 H 176.47 V 260.416 H 165.947 V 60.7172"
       style="fill:#e1a04a;fill-opacity:1;fill-rule:evenodd;stroke:none;stroke-width:0.1"
       id="path126" /><path
       d="m 128.377,381.495 h 121.775 c 2.215,0 4.403,-1.809 4.869,-4.023 l 17.517,-83.405 c 0.464,-2.213 -0.964,-4.023 -3.178,-4.023 H 147.583 c -2.212,0 -4.403,1.81 -4.867,4.023 l -17.517,83.405 c -0.465,2.214 0.965,4.023 3.178,4.023"
       style="fill:#463c3b;fill-opacity:1;fill-rule:evenodd;stroke:none;stroke-width:0.1"
       id="path128" /><path
       d="m 131.301,375.857 h 118.297 l 16.839,-80.174 H 148.138 l -16.837,80.174"
       style="fill:#adda1a;fill-opacity:1;fill-rule:evenodd;stroke:none;stroke-width:0.1"
       id="path130" /><path
       d="m 259.586,84.5469 1.17,-5.491 c 1.047,-4.9059 0.101,-10.027 -2.63,-14.236 H 229.19 l 6.498,6.811 23.898,12.916"
       style="fill:#ab6c21;fill-opacity:1;fill-rule:evenodd;stroke:none;stroke-width:0.1"
       id="path132" /><path
       d="m 151.298,330.411 c -0.29,0.279 -0.299,0.741 -0.019,1.031 0.279,0.29 0.741,0.299 1.031,0.02 l 15.872,-15.346 16.816,26.812 18.792,-11.803 8.243,10.278 12.21,-4.74 15.526,23.916 c 0.22,0.337 0.672,0.433 1.009,0.214 0.337,-0.219 0.433,-0.671 0.214,-1.008 l -16.171,-24.909 -12.319,4.781 -8.389,-10.458 -18.655,11.719 -16.998,-27.1 -17.162,16.593"
       style="fill:#eff7c2;fill-opacity:1;fill-rule:evenodd;stroke:none;stroke-width:0.1"
       id="path134" /><path
       d="m 184.605,345.482 c 1.964,0 3.837,-1.594 4.182,-3.559 0.344,-1.966 -0.97,-3.559 -2.936,-3.559 -1.965,0 -3.838,1.593 -4.182,3.559 -0.345,1.965 0.97,3.559 2.936,3.559 z m 18.723,-11.761 c 1.965,0 3.838,-1.593 4.182,-3.559 0.344,-1.966 -0.969,-3.559 -2.935,-3.559 -1.965,0 -3.838,1.593 -4.182,3.559 -0.345,1.966 0.969,3.559 2.935,3.559 z m 8.316,10.368 c 1.965,0 3.838,-1.593 4.182,-3.559 0.345,-1.965 -0.971,-3.559 -2.936,-3.559 -1.965,0 -3.837,1.594 -4.182,3.559 -0.344,1.966 0.97,3.559 2.936,3.559 z m 12.264,-4.761 c 1.966,0 3.839,-1.593 4.182,-3.558 0.346,-1.966 -0.968,-3.559 -2.934,-3.559 -1.966,0 -3.839,1.593 -4.182,3.559 -0.346,1.965 0.968,3.558 2.934,3.558 z m -56.211,-20.802 c 1.966,0 3.839,-1.593 4.182,-3.559 0.345,-1.965 -0.968,-3.559 -2.934,-3.559 -1.966,0 -3.839,1.594 -4.183,3.559 -0.345,1.966 0.969,3.559 2.935,3.559 v 0"
       style="fill:#eff7c2;fill-opacity:1;fill-rule:evenodd;stroke:none;stroke-width:0.1"
       id="path136" /><path
       d="m 237.183,360.144 4.352,-2.94 1.044,6.383 z"
       style="fill:#eff7c2;fill-opacity:1;fill-rule:evenodd;stroke:none;stroke-width:0.1"
       id="path138" /></g></svg>
