<?xml version="1.0" encoding="UTF-8" standalone="no"?>
<svg
   xml:space="preserve"
   viewBox="0 0 51.64776 55.559989"
   version="1.1"
   id="svg4"
   width="51.647758"
   height="55.55999"
   xmlns="http://www.w3.org/2000/svg"
   xmlns:svg="http://www.w3.org/2000/svg"><defs
   id="defs8" />
  <path
   fill="none"
   stroke="white"
   stroke-linecap="round"
   stroke-width=".6"
   d="m 19.294996,1.030696 -4.58,13.397 H 1.2609957 c 3.77,-7.269 10.2100003,-11.734 18.0340003,-13.397 z m 2.576,-0.003 23.573,-0.078 c 6.636,2.77800001 5.812,9.62600001 4.624,12.97000001 l -0.04,0.035 -19.425,0.046 -14.028,40.62 c -7.2820003,-2.113 -10.1090003,-8.66 -8.5880003,-13.967 z m 9.235,19.731 h 13.148 c 2.148,0.303 2.374,1.794 2.35,2.799 l -3.125,8.408 c -0.547,0.999 -1.932,2.336 -3.875,2.559 h -13.582 z m -7.803,21.177 16.874,-0.117 c -6.917,10.604 -17.872,13.015 -21.311,12.945 l 4.437,-12.828"
   id="path2" />
</svg>
