<?xml version="1.0" encoding="utf-8"?>
<!-- Generator: Adobe Illustrator 18.1.1, SVG Export Plug-In . SVG Version: 6.00 Build 0)  -->
<svg version="1.1" id="Layer_1" xmlns="http://www.w3.org/2000/svg" xmlns:xlink="http://www.w3.org/1999/xlink" x="0px" y="0px"
	 viewBox="0 0 3000 3000" enable-background="new 0 0 3000 3000" xml:space="preserve">
<g>
	<defs>
		<rect id="SVGID_1_" width="3000" height="3000"/>
	</defs>
	<clipPath id="SVGID_2_">
		<use xlink:href="#SVGID_1_"  overflow="visible"/>
	</clipPath>
	<rect clip-path="url(#SVGID_2_)" fill="#FFF7CD" width="3000" height="3000"/>
	<g clip-path="url(#SVGID_2_)">
		<path fill="#D1D3D4" d="M170.3,1739.3l670.1,670.1H170.3L170.3,1739.3z M530.3,2281l-231.6-231.6l0,231.6H530.3z"/>
		
			<line opacity="0.5" fill="none" stroke="#000000" stroke-width="8" stroke-miterlimit="10" x1="217.3" y1="2409.5" x2="217.3" y2="2358.3"/>
		
			<line opacity="0.5" fill="none" stroke="#000000" stroke-width="8" stroke-miterlimit="10" x1="283.3" y1="2409.5" x2="283.3" y2="2375.3"/>
		
			<line opacity="0.5" fill="none" stroke="#000000" stroke-width="8" stroke-miterlimit="10" x1="349.3" y1="2409.5" x2="349.3" y2="2358.3"/>
		
			<line opacity="0.5" fill="none" stroke="#000000" stroke-width="8" stroke-miterlimit="10" x1="415.3" y1="2409.5" x2="415.3" y2="2375.3"/>
		
			<line opacity="0.5" fill="none" stroke="#000000" stroke-width="8" stroke-miterlimit="10" x1="481.3" y1="2409.5" x2="481.3" y2="2358.3"/>
		
			<line opacity="0.5" fill="none" stroke="#000000" stroke-width="8" stroke-miterlimit="10" x1="547.3" y1="2409.5" x2="547.3" y2="2375.3"/>
		
			<line opacity="0.5" fill="none" stroke="#000000" stroke-width="8" stroke-miterlimit="10" x1="613.3" y1="2409.5" x2="613.3" y2="2358.3"/>
		
			<line opacity="0.5" fill="none" stroke="#000000" stroke-width="8" stroke-miterlimit="10" x1="679.3" y1="2409.5" x2="679.3" y2="2375.3"/>
		
			<line opacity="0.5" fill="none" stroke="#000000" stroke-width="8" stroke-miterlimit="10" x1="745.3" y1="2409.5" x2="745.3" y2="2358.3"/>
		
			<line opacity="0.5" fill="none" stroke="#000000" stroke-width="8" stroke-miterlimit="10" x1="170.3" y1="1833.9" x2="221.5" y2="1833.9"/>
		
			<line opacity="0.5" fill="none" stroke="#000000" stroke-width="8" stroke-miterlimit="10" x1="170.3" y1="1899.9" x2="204.4" y2="1899.9"/>
		
			<line opacity="0.5" fill="none" stroke="#000000" stroke-width="8" stroke-miterlimit="10" x1="170.3" y1="1965.9" x2="221.5" y2="1965.9"/>
		
			<line opacity="0.5" fill="none" stroke="#000000" stroke-width="8" stroke-miterlimit="10" x1="170.3" y1="2031.9" x2="204.4" y2="2031.9"/>
		
			<line opacity="0.5" fill="none" stroke="#000000" stroke-width="8" stroke-miterlimit="10" x1="170.3" y1="2097.9" x2="221.5" y2="2097.9"/>
		
			<line opacity="0.5" fill="none" stroke="#000000" stroke-width="8" stroke-miterlimit="10" x1="170.3" y1="2163.9" x2="204.4" y2="2163.9"/>
		
			<line opacity="0.5" fill="none" stroke="#000000" stroke-width="8" stroke-miterlimit="10" x1="170.3" y1="2229.9" x2="221.5" y2="2229.9"/>
		
			<line opacity="0.5" fill="none" stroke="#000000" stroke-width="8" stroke-miterlimit="10" x1="170.3" y1="2295.9" x2="204.4" y2="2295.9"/>
		
			<line opacity="0.5" fill="none" stroke="#000000" stroke-width="8" stroke-miterlimit="10" x1="170.3" y1="2361.9" x2="221.5" y2="2361.9"/>
	</g>
	<g clip-path="url(#SVGID_2_)">
		<g>
			<path fill="#D1D3D4" d="M1891,582.7h938.7v539.9L1891,582.7z M2696.1,716.3h-290.3l290.3,161.6V716.3z"/>
		</g>
		
			<line opacity="0.5" fill="none" stroke="#000000" stroke-width="8" stroke-miterlimit="10" x1="2783.8" y1="582.7" x2="2783.8" y2="634.2"/>
		
			<line opacity="0.5" fill="none" stroke="#000000" stroke-width="8" stroke-miterlimit="10" x1="2731.3" y1="582.7" x2="2731.3" y2="613.6"/>
		
			<line opacity="0.5" fill="none" stroke="#000000" stroke-width="8" stroke-miterlimit="10" x1="2678.8" y1="582.7" x2="2678.8" y2="634.2"/>
		
			<line opacity="0.5" fill="none" stroke="#000000" stroke-width="8" stroke-miterlimit="10" x1="2626.3" y1="582.7" x2="2626.3" y2="613.6"/>
		
			<line opacity="0.5" fill="none" stroke="#000000" stroke-width="8" stroke-miterlimit="10" x1="2573.7" y1="582.7" x2="2573.7" y2="634.2"/>
		
			<line opacity="0.5" fill="none" stroke="#000000" stroke-width="8" stroke-miterlimit="10" x1="2521.2" y1="582.7" x2="2521.2" y2="613.6"/>
		
			<line opacity="0.5" fill="none" stroke="#000000" stroke-width="8" stroke-miterlimit="10" x1="2468.7" y1="582.7" x2="2468.7" y2="634.2"/>
		
			<line opacity="0.5" fill="none" stroke="#000000" stroke-width="8" stroke-miterlimit="10" x1="2416.1" y1="582.7" x2="2416.1" y2="613.6"/>
		
			<line opacity="0.5" fill="none" stroke="#000000" stroke-width="8" stroke-miterlimit="10" x1="2363.6" y1="582.7" x2="2363.6" y2="634.2"/>
		
			<line opacity="0.5" fill="none" stroke="#000000" stroke-width="8" stroke-miterlimit="10" x1="2311.1" y1="582.7" x2="2311.1" y2="613.6"/>
		
			<line opacity="0.5" fill="none" stroke="#000000" stroke-width="8" stroke-miterlimit="10" x1="2258.6" y1="582.7" x2="2258.6" y2="634.2"/>
		
			<line opacity="0.5" fill="none" stroke="#000000" stroke-width="8" stroke-miterlimit="10" x1="2206" y1="582.7" x2="2206" y2="613.6"/>
		
			<line opacity="0.5" fill="none" stroke="#000000" stroke-width="8" stroke-miterlimit="10" x1="2153.5" y1="582.7" x2="2153.5" y2="634.2"/>
		
			<line opacity="0.5" fill="none" stroke="#000000" stroke-width="8" stroke-miterlimit="10" x1="2101" y1="582.7" x2="2101" y2="613.6"/>
		
			<line opacity="0.5" fill="none" stroke="#000000" stroke-width="8" stroke-miterlimit="10" x1="2048.4" y1="582.7" x2="2048.4" y2="634.2"/>
		
			<line opacity="0.5" fill="none" stroke="#000000" stroke-width="8" stroke-miterlimit="10" x1="2829.7" y1="1053.5" x2="2778.2" y2="1053.5"/>
		
			<line opacity="0.5" fill="none" stroke="#000000" stroke-width="8" stroke-miterlimit="10" x1="2829.7" y1="1001" x2="2798.8" y2="1001"/>
		
			<line opacity="0.5" fill="none" stroke="#000000" stroke-width="8" stroke-miterlimit="10" x1="2829.7" y1="948.4" x2="2778.2" y2="948.4"/>
		
			<line opacity="0.5" fill="none" stroke="#000000" stroke-width="8" stroke-miterlimit="10" x1="2829.7" y1="895.9" x2="2798.8" y2="895.9"/>
		
			<line opacity="0.5" fill="none" stroke="#000000" stroke-width="8" stroke-miterlimit="10" x1="2829.7" y1="843.4" x2="2778.2" y2="843.4"/>
		
			<line opacity="0.5" fill="none" stroke="#000000" stroke-width="8" stroke-miterlimit="10" x1="2829.7" y1="790.9" x2="2798.8" y2="790.9"/>
		
			<line opacity="0.5" fill="none" stroke="#000000" stroke-width="8" stroke-miterlimit="10" x1="2829.7" y1="738.3" x2="2778.2" y2="738.3"/>
		
			<line opacity="0.5" fill="none" stroke="#000000" stroke-width="8" stroke-miterlimit="10" x1="2829.7" y1="685.8" x2="2798.8" y2="685.8"/>
		
			<line opacity="0.5" fill="none" stroke="#000000" stroke-width="8" stroke-miterlimit="10" x1="2829.7" y1="633.3" x2="2778.2" y2="633.3"/>
	</g>
	<g clip-path="url(#SVGID_2_)">
		<g>
			<rect x="1164.3" y="2388" fill="#F26B6B" width="691.4" height="43.1"/>
			<rect x="1164.2" y="2431" fill="#E66260" width="691.4" height="33.8"/>
			<rect x="1164.3" y="2354.1" fill="#E66260" width="691.4" height="33.8"/>
		</g>
		<polygon fill="#C3996C" points="1153.7,2461 1074.7,2430 1022.4,2409.5 1074.7,2389 1153.7,2358 		"/>
		<rect x="1865.9" y="2354.1" fill="#A8AAAD" width="28.9" height="110.7"/>
		<path fill="#EFA0C6" d="M1943.1,2464.8h-37.7v-110.7h37.7c16.4,0,29.8,13.3,29.8,29.8v51.2
			C1972.9,2451.5,1959.6,2464.9,1943.1,2464.8z"/>
		<polygon fill="#765034" points="1074.7,2430 1022.4,2409.5 1074.7,2389 		"/>
		<g opacity="0.25">
			<rect x="1865.9" y="2431" fill="#424143" width="28.9" height="33.8"/>
			<rect x="1164.2" y="2431" fill="#424143" width="691.4" height="33.8"/>
			<polygon fill="#424143" points="1153.6,2460.7 1074.7,2429.9 1022.4,2409.5 1074.7,2417.4 1153.7,2429.4 			"/>
		</g>
		<g opacity="0.25">
			<rect x="1866" y="2354.1" fill="#E7E9ED" width="28.9" height="33.8"/>
			<rect x="1164.3" y="2354.1" fill="#F27279" width="691.4" height="33.8"/>
			<polygon fill="#FDC88E" points="1153.6,2358.3 1074.7,2389 1022.4,2409.5 1074.7,2401.6 1153.7,2389.6 			"/>
		</g>
		<rect x="1905.4" y="2354.1" fill="#EB7EB2" width="37.7" height="110.7"/>
	</g>
	<g clip-path="url(#SVGID_2_)">
		
			<circle fill="none" stroke="#6D6E71" stroke-width="20" stroke-linecap="round" stroke-miterlimit="10" stroke-dasharray="48.8044,48.8044" cx="2297.7" cy="2074.4" r="233"/>
	</g>
	<g clip-path="url(#SVGID_2_)">
		
			<circle fill="none" stroke="#6D6E71" stroke-width="20" stroke-linecap="round" stroke-miterlimit="10" stroke-dasharray="48.8044,48.8044" cx="1060.1" cy="1322.7" r="233"/>
	</g>
	<g clip-path="url(#SVGID_2_)">
		
			<circle fill="none" stroke="#6D6E71" stroke-width="20" stroke-linecap="round" stroke-miterlimit="10" stroke-dasharray="49.1702,49.1702" cx="3000" cy="0" r="313"/>
	</g>
	<g clip-path="url(#SVGID_2_)">
		
			<circle fill="none" stroke="#6D6E71" stroke-width="20" stroke-linecap="round" stroke-miterlimit="10" stroke-dasharray="49.1702,49.1702" cx="0" cy="0" r="313"/>
	</g>
	<g clip-path="url(#SVGID_2_)">
		
			<circle fill="none" stroke="#6D6E71" stroke-width="20" stroke-linecap="round" stroke-miterlimit="10" stroke-dasharray="49.1702,49.1702" cx="0" cy="3000" r="313"/>
	</g>
	<g clip-path="url(#SVGID_2_)">
		
			<circle fill="none" stroke="#6D6E71" stroke-width="20" stroke-linecap="round" stroke-miterlimit="10" stroke-dasharray="49.1702,49.1702" cx="3000" cy="3000" r="313"/>
	</g>
	
		<rect x="299.9" y="613.4" clip-path="url(#SVGID_2_)" fill="none" stroke="#6D6E71" stroke-width="20" stroke-linecap="round" stroke-miterlimit="10" stroke-dasharray="50,50" width="312" height="312"/>
	
		<polygon clip-path="url(#SVGID_2_)" fill="none" stroke="#6D6E71" stroke-width="20" stroke-linecap="round" stroke-miterlimit="10" stroke-dasharray="50,50" points="
		201.1,1482.6 415.3,1111.5 629.6,1482.6 	"/>
	<g clip-path="url(#SVGID_2_)">
		<g>
			<polygon fill="#939598" points="1325.7,2002.8 1255.4,2210.3 1292.3,1994.3 			"/>
			<polygon fill="#939598" points="1705.9,1994.4 1744.6,2210.1 1672.6,2003.1 			"/>
			<path fill="#A65357" d="M1302,2038.4L1302,2038.4c-16.4-2.5-27.3-18.2-24-34.4l189.5-930.8c1.4-6.7,7.7-11.1,14.5-10.1l32,4.9
				c7.2,1.1,12.1,8,10.6,15.2l-189.8,932.3C1331.7,2030.7,1317.3,2040.7,1302,2038.4z"/>
			<path fill="#A65357" d="M1695.1,2038.4L1695.1,2038.4c-15.3,2.3-29.7-7.7-32.8-22.9l-189.8-932.3c-1.5-7.2,3.4-14.1,10.6-15.2
				l32-4.9c6.8-1,13.1,3.4,14.5,10.1l189.5,930.8C1722.5,2020.2,1711.5,2035.9,1695.1,2038.4z"/>
			<path fill="#CC666A" d="M1518.1,1006.1H1479c-8,0-14.4-6.4-14.4-14.4V820.5c0-17,13.8-30.8,30.8-30.8h6.2
				c17,0,30.8,13.8,30.8,30.8v171.1C1532.5,999.6,1526.1,1006.1,1518.1,1006.1z"/>
			<circle fill="#ED767B" cx="1498.6" cy="1066.4" r="86"/>
			<circle fill="#CC666A" cx="1498.6" cy="1066.4" r="43.1"/>
		</g>
		<circle fill="#CC666A" cx="1309.8" cy="1985" r="17.7"/>
		<circle fill="#CC666A" cx="1684.9" cy="1985" r="17.7"/>
	</g>
	<g clip-path="url(#SVGID_2_)">
		<path fill="#D1D3D4" d="M2296.8,1302.6c48.6,0,95.6,9.5,139.8,28.2c42.8,18.1,81.2,44,114.2,77c30.6,30.6,55.1,65.8,72.9,104.8
			h-653.7c17.8-39,42.3-74.2,72.9-104.8c33-33,71.5-58.9,114.2-77C2201.2,1312.1,2248.2,1302.6,2296.8,1302.6 M2296.8,1153.4
			c-280.7,0-508.3,227.6-508.3,508.3h1016.6C2805.1,1381,2577.5,1153.4,2296.8,1153.4L2296.8,1153.4z"/>
		<circle opacity="0.5" fill="#A0A1A3" cx="2296.8" cy="1612.4" r="18.4"/>
		
			<line opacity="0.4" fill="none" stroke="#000000" stroke-width="12" stroke-miterlimit="10" x1="1796.2" y1="1573.3" x2="1862.1" y2="1584.9"/>
		
			<line opacity="0.4" fill="none" stroke="#000000" stroke-width="12" stroke-miterlimit="10" x1="1805.8" y1="1530" x2="1841.2" y2="1539.5"/>
		
			<line opacity="0.4" fill="none" stroke="#000000" stroke-width="12" stroke-miterlimit="10" x1="1836.1" y1="1446.8" x2="1869.3" y2="1462.3"/>
		
			<line opacity="0.4" fill="none" stroke="#000000" stroke-width="12" stroke-miterlimit="10" x1="1880.4" y1="1370" x2="1910.4" y2="1391.1"/>
		
			<line opacity="0.4" fill="none" stroke="#000000" stroke-width="12" stroke-miterlimit="10" x1="1937.4" y1="1302.2" x2="1963.3" y2="1328.1"/>
		
			<line opacity="0.4" fill="none" stroke="#000000" stroke-width="12" stroke-miterlimit="10" x1="2005.2" y1="1245.2" x2="2026.3" y2="1275.2"/>
		
			<line opacity="0.4" fill="none" stroke="#000000" stroke-width="12" stroke-miterlimit="10" x1="2082" y1="1200.9" x2="2097.5" y2="1234.1"/>
		
			<line opacity="0.4" fill="none" stroke="#000000" stroke-width="12" stroke-miterlimit="10" x1="2165.3" y1="1170.6" x2="2174.7" y2="1206"/>
		
			<line opacity="0.4" fill="none" stroke="#000000" stroke-width="12" stroke-miterlimit="10" x1="2252.5" y1="1155.2" x2="2255.7" y2="1191.8"/>
		
			<line opacity="0.4" fill="none" stroke="#000000" stroke-width="12" stroke-miterlimit="10" x1="2341.1" y1="1155.2" x2="2337.9" y2="1191.8"/>
		
			<line opacity="0.4" fill="none" stroke="#000000" stroke-width="12" stroke-miterlimit="10" x1="2428.4" y1="1170.6" x2="2418.9" y2="1206"/>
		
			<line opacity="0.4" fill="none" stroke="#000000" stroke-width="12" stroke-miterlimit="10" x1="2511.6" y1="1200.9" x2="2496.1" y2="1234.2"/>
		
			<line opacity="0.4" fill="none" stroke="#000000" stroke-width="12" stroke-miterlimit="10" x1="2588.4" y1="1245.3" x2="2567.3" y2="1275.3"/>
		
			<line opacity="0.4" fill="none" stroke="#000000" stroke-width="12" stroke-miterlimit="10" x1="2656.2" y1="1302.2" x2="2630.3" y2="1328.1"/>
		
			<line opacity="0.4" fill="none" stroke="#000000" stroke-width="12" stroke-miterlimit="10" x1="2713.2" y1="1370.1" x2="2683.2" y2="1391.1"/>
		
			<line opacity="0.4" fill="none" stroke="#000000" stroke-width="12" stroke-miterlimit="10" x1="2757.5" y1="1446.8" x2="2724.3" y2="1462.3"/>
		
			<line opacity="0.4" fill="none" stroke="#000000" stroke-width="12" stroke-miterlimit="10" x1="2787.8" y1="1530.1" x2="2752.4" y2="1539.6"/>
		
			<line opacity="0.4" fill="none" stroke="#000000" stroke-width="12" stroke-miterlimit="10" x1="1819.1" y1="1487.6" x2="1882" y2="1510.4"/>
		
			<line opacity="0.4" fill="none" stroke="#000000" stroke-width="12" stroke-miterlimit="10" x1="1856.6" y1="1407.1" x2="1914.6" y2="1440.6"/>
		
			<line opacity="0.4" fill="none" stroke="#000000" stroke-width="12" stroke-miterlimit="10" x1="1907.5" y1="1334.4" x2="1958.8" y2="1377.4"/>
		
			<line opacity="0.4" fill="none" stroke="#000000" stroke-width="12" stroke-miterlimit="10" x1="1970.3" y1="1271.6" x2="2013.3" y2="1322.8"/>
		
			<line opacity="0.4" fill="none" stroke="#000000" stroke-width="12" stroke-miterlimit="10" x1="2043" y1="1220.6" x2="2076.5" y2="1278.6"/>
		
			<line opacity="0.4" fill="none" stroke="#000000" stroke-width="12" stroke-miterlimit="10" x1="2123.5" y1="1183.1" x2="2146.3" y2="1246"/>
		
			<line opacity="0.4" fill="none" stroke="#000000" stroke-width="12" stroke-miterlimit="10" x1="2209.2" y1="1160.1" x2="2220.8" y2="1226"/>
		
			<line opacity="0.4" fill="none" stroke="#000000" stroke-width="12" stroke-miterlimit="10" x1="2297.7" y1="1152.4" x2="2297.7" y2="1219.3"/>
		
			<line opacity="0.4" fill="none" stroke="#000000" stroke-width="12" stroke-miterlimit="10" x1="2386.1" y1="1160.1" x2="2374.5" y2="1226"/>
		
			<line opacity="0.4" fill="none" stroke="#000000" stroke-width="12" stroke-miterlimit="10" x1="2471.8" y1="1183" x2="2449" y2="1245.9"/>
		
			<line opacity="0.4" fill="none" stroke="#000000" stroke-width="12" stroke-miterlimit="10" x1="2552.3" y1="1220.5" x2="2518.9" y2="1278.5"/>
		
			<line opacity="0.4" fill="none" stroke="#000000" stroke-width="12" stroke-miterlimit="10" x1="2625" y1="1271.5" x2="2582" y2="1322.7"/>
		
			<line opacity="0.4" fill="none" stroke="#000000" stroke-width="12" stroke-miterlimit="10" x1="2687.8" y1="1334.2" x2="2636.6" y2="1377.2"/>
		
			<line opacity="0.4" fill="none" stroke="#000000" stroke-width="12" stroke-miterlimit="10" x1="2738.8" y1="1406.9" x2="2680.8" y2="1440.4"/>
		
			<line opacity="0.4" fill="none" stroke="#000000" stroke-width="12" stroke-miterlimit="10" x1="2776.3" y1="1487.4" x2="2713.4" y2="1510.3"/>
		
			<line opacity="0.4" fill="none" stroke="#000000" stroke-width="12" stroke-miterlimit="10" x1="2799.3" y1="1573.1" x2="2733.4" y2="1584.7"/>
		<g>
			
				<line opacity="0.4" fill="none" stroke="#000000" stroke-width="6" stroke-linecap="round" stroke-miterlimit="10" x1="2296.8" y1="1580.8" x2="2296.8" y2="1642.2"/>
			
				<line opacity="0.4" fill="none" stroke="#000000" stroke-width="6" stroke-linecap="round" stroke-miterlimit="10" x1="2327.4" y1="1611.5" x2="2266.1" y2="1611.5"/>
		</g>
	</g>
	<g clip-path="url(#SVGID_2_)">
		<g>
			<rect x="405.9" y="2612.3" fill="#D1D3D4" width="2188.2" height="201.1"/>
			<g opacity="0.6">
				<line fill="none" stroke="#000000" stroke-width="12" stroke-miterlimit="10" x1="505.4" y1="2612.3" x2="505.4" y2="2662.6"/>
				<line fill="none" stroke="#000000" stroke-width="12" stroke-miterlimit="10" x1="604.3" y1="2612.3" x2="604.3" y2="2662.6"/>
				<line fill="none" stroke="#000000" stroke-width="12" stroke-miterlimit="10" x1="703.2" y1="2612.3" x2="703.2" y2="2662.6"/>
				<line fill="none" stroke="#000000" stroke-width="12" stroke-miterlimit="10" x1="802.2" y1="2612.3" x2="802.2" y2="2662.6"/>
				<line fill="none" stroke="#000000" stroke-width="12" stroke-miterlimit="10" x1="901.1" y1="2612.3" x2="901.1" y2="2662.6"/>
				<line fill="none" stroke="#000000" stroke-width="12" stroke-miterlimit="10" x1="1000" y1="2612.3" x2="1000" y2="2662.6"/>
				<line fill="none" stroke="#000000" stroke-width="12" stroke-miterlimit="10" x1="1099" y1="2612.3" x2="1099" y2="2662.6"/>
				
					<line fill="none" stroke="#000000" stroke-width="12" stroke-miterlimit="10" x1="1197.9" y1="2612.3" x2="1197.9" y2="2662.6"/>
				
					<line fill="none" stroke="#000000" stroke-width="12" stroke-miterlimit="10" x1="1296.8" y1="2612.3" x2="1296.8" y2="2662.6"/>
				
					<line fill="none" stroke="#000000" stroke-width="12" stroke-miterlimit="10" x1="1395.8" y1="2612.3" x2="1395.8" y2="2662.6"/>
				
					<line fill="none" stroke="#000000" stroke-width="12" stroke-miterlimit="10" x1="1494.7" y1="2612.3" x2="1494.7" y2="2662.6"/>
				
					<line fill="none" stroke="#000000" stroke-width="12" stroke-miterlimit="10" x1="1593.6" y1="2612.3" x2="1593.6" y2="2662.6"/>
				
					<line fill="none" stroke="#000000" stroke-width="12" stroke-miterlimit="10" x1="1692.6" y1="2612.3" x2="1692.6" y2="2662.6"/>
				
					<line fill="none" stroke="#000000" stroke-width="12" stroke-miterlimit="10" x1="1791.5" y1="2612.3" x2="1791.5" y2="2662.6"/>
				
					<line fill="none" stroke="#000000" stroke-width="12" stroke-miterlimit="10" x1="1890.4" y1="2612.3" x2="1890.4" y2="2662.6"/>
				
					<line fill="none" stroke="#000000" stroke-width="12" stroke-miterlimit="10" x1="1989.4" y1="2612.3" x2="1989.4" y2="2662.6"/>
				
					<line fill="none" stroke="#000000" stroke-width="12" stroke-miterlimit="10" x1="2088.3" y1="2612.3" x2="2088.3" y2="2662.6"/>
				
					<line fill="none" stroke="#000000" stroke-width="12" stroke-miterlimit="10" x1="2187.2" y1="2612.3" x2="2187.2" y2="2662.6"/>
				
					<line fill="none" stroke="#000000" stroke-width="12" stroke-miterlimit="10" x1="2286.2" y1="2612.3" x2="2286.2" y2="2662.6"/>
				
					<line fill="none" stroke="#000000" stroke-width="12" stroke-miterlimit="10" x1="2385.1" y1="2612.3" x2="2385.1" y2="2662.6"/>
				<line fill="none" stroke="#000000" stroke-width="12" stroke-miterlimit="10" x1="2484" y1="2612.3" x2="2484" y2="2662.6"/>
			</g>
			<g opacity="0.6">
				<line fill="none" stroke="#000000" stroke-width="12" stroke-miterlimit="10" x1="455.9" y1="2612.3" x2="455.9" y2="2712.8"/>
				<line fill="none" stroke="#000000" stroke-width="12" stroke-miterlimit="10" x1="554.8" y1="2612.3" x2="554.8" y2="2712.8"/>
				<line fill="none" stroke="#000000" stroke-width="12" stroke-miterlimit="10" x1="653.8" y1="2612.3" x2="653.8" y2="2712.8"/>
				<line fill="none" stroke="#000000" stroke-width="12" stroke-miterlimit="10" x1="752.7" y1="2612.3" x2="752.7" y2="2712.8"/>
				<line fill="none" stroke="#000000" stroke-width="12" stroke-miterlimit="10" x1="851.6" y1="2612.3" x2="851.6" y2="2712.8"/>
				<line fill="none" stroke="#000000" stroke-width="12" stroke-miterlimit="10" x1="950.6" y1="2612.3" x2="950.6" y2="2712.8"/>
				
					<line fill="none" stroke="#000000" stroke-width="12" stroke-miterlimit="10" x1="1049.5" y1="2612.3" x2="1049.5" y2="2712.8"/>
				
					<line fill="none" stroke="#000000" stroke-width="12" stroke-miterlimit="10" x1="1148.4" y1="2612.3" x2="1148.4" y2="2712.8"/>
				
					<line fill="none" stroke="#000000" stroke-width="12" stroke-miterlimit="10" x1="1247.4" y1="2612.3" x2="1247.4" y2="2712.8"/>
				
					<line fill="none" stroke="#000000" stroke-width="12" stroke-miterlimit="10" x1="1346.3" y1="2612.3" x2="1346.3" y2="2712.8"/>
				
					<line fill="none" stroke="#000000" stroke-width="12" stroke-miterlimit="10" x1="1445.2" y1="2612.3" x2="1445.2" y2="2712.8"/>
				
					<line fill="none" stroke="#000000" stroke-width="12" stroke-miterlimit="10" x1="1544.2" y1="2612.3" x2="1544.2" y2="2712.8"/>
				
					<line fill="none" stroke="#000000" stroke-width="12" stroke-miterlimit="10" x1="1643.1" y1="2612.3" x2="1643.1" y2="2712.8"/>
				<line fill="none" stroke="#000000" stroke-width="12" stroke-miterlimit="10" x1="1742" y1="2612.3" x2="1742" y2="2712.8"/>
				<line fill="none" stroke="#000000" stroke-width="12" stroke-miterlimit="10" x1="1841" y1="2612.3" x2="1841" y2="2712.8"/>
				
					<line fill="none" stroke="#000000" stroke-width="12" stroke-miterlimit="10" x1="1939.9" y1="2612.3" x2="1939.9" y2="2712.8"/>
				
					<line fill="none" stroke="#000000" stroke-width="12" stroke-miterlimit="10" x1="2038.8" y1="2612.3" x2="2038.8" y2="2712.8"/>
				
					<line fill="none" stroke="#000000" stroke-width="12" stroke-miterlimit="10" x1="2137.8" y1="2612.3" x2="2137.8" y2="2712.8"/>
				
					<line fill="none" stroke="#000000" stroke-width="12" stroke-miterlimit="10" x1="2236.7" y1="2612.3" x2="2236.7" y2="2712.8"/>
				
					<line fill="none" stroke="#000000" stroke-width="12" stroke-miterlimit="10" x1="2335.6" y1="2612.3" x2="2335.6" y2="2712.8"/>
				
					<line fill="none" stroke="#000000" stroke-width="12" stroke-miterlimit="10" x1="2434.6" y1="2612.3" x2="2434.6" y2="2712.8"/>
				
					<line fill="none" stroke="#000000" stroke-width="12" stroke-miterlimit="10" x1="2533.5" y1="2612.3" x2="2533.5" y2="2712.8"/>
			</g>
		</g>
		<rect x="405.9" y="2612.3" opacity="0.1" width="2183.4" height="58.8"/>
	</g>
	<g clip-path="url(#SVGID_2_)">
		<g>
			<rect x="405.9" y="186.6" fill="#D1D3D4" width="2188.2" height="201.1"/>
			<g opacity="0.6">
				<line fill="none" stroke="#000000" stroke-width="12" stroke-miterlimit="10" x1="2494.6" y1="387.7" x2="2494.6" y2="337.4"/>
				<line fill="none" stroke="#000000" stroke-width="12" stroke-miterlimit="10" x1="2395.7" y1="387.7" x2="2395.7" y2="337.4"/>
				<line fill="none" stroke="#000000" stroke-width="12" stroke-miterlimit="10" x1="2296.8" y1="387.7" x2="2296.8" y2="337.4"/>
				<line fill="none" stroke="#000000" stroke-width="12" stroke-miterlimit="10" x1="2197.8" y1="387.7" x2="2197.8" y2="337.4"/>
				<line fill="none" stroke="#000000" stroke-width="12" stroke-miterlimit="10" x1="2098.9" y1="387.7" x2="2098.9" y2="337.4"/>
				<line fill="none" stroke="#000000" stroke-width="12" stroke-miterlimit="10" x1="2000" y1="387.7" x2="2000" y2="337.4"/>
				<line fill="none" stroke="#000000" stroke-width="12" stroke-miterlimit="10" x1="1901" y1="387.7" x2="1901" y2="337.4"/>
				<line fill="none" stroke="#000000" stroke-width="12" stroke-miterlimit="10" x1="1802.1" y1="387.7" x2="1802.1" y2="337.4"/>
				<line fill="none" stroke="#000000" stroke-width="12" stroke-miterlimit="10" x1="1703.2" y1="387.7" x2="1703.2" y2="337.4"/>
				<line fill="none" stroke="#000000" stroke-width="12" stroke-miterlimit="10" x1="1604.2" y1="387.7" x2="1604.2" y2="337.4"/>
				<line fill="none" stroke="#000000" stroke-width="12" stroke-miterlimit="10" x1="1505.3" y1="387.7" x2="1505.3" y2="337.4"/>
				<line fill="none" stroke="#000000" stroke-width="12" stroke-miterlimit="10" x1="1406.4" y1="387.7" x2="1406.4" y2="337.4"/>
				<line fill="none" stroke="#000000" stroke-width="12" stroke-miterlimit="10" x1="1307.4" y1="387.7" x2="1307.4" y2="337.4"/>
				<line fill="none" stroke="#000000" stroke-width="12" stroke-miterlimit="10" x1="1208.5" y1="387.7" x2="1208.5" y2="337.4"/>
				<line fill="none" stroke="#000000" stroke-width="12" stroke-miterlimit="10" x1="1109.6" y1="387.7" x2="1109.6" y2="337.4"/>
				<line fill="none" stroke="#000000" stroke-width="12" stroke-miterlimit="10" x1="1010.6" y1="387.7" x2="1010.6" y2="337.4"/>
				<line fill="none" stroke="#000000" stroke-width="12" stroke-miterlimit="10" x1="911.7" y1="387.7" x2="911.7" y2="337.4"/>
				<line fill="none" stroke="#000000" stroke-width="12" stroke-miterlimit="10" x1="812.8" y1="387.7" x2="812.8" y2="337.4"/>
				<line fill="none" stroke="#000000" stroke-width="12" stroke-miterlimit="10" x1="713.8" y1="387.7" x2="713.8" y2="337.4"/>
				<line fill="none" stroke="#000000" stroke-width="12" stroke-miterlimit="10" x1="614.9" y1="387.7" x2="614.9" y2="337.4"/>
				<line fill="none" stroke="#000000" stroke-width="12" stroke-miterlimit="10" x1="516" y1="387.7" x2="516" y2="337.4"/>
			</g>
			<g opacity="0.6">
				<line fill="none" stroke="#000000" stroke-width="12" stroke-miterlimit="10" x1="2544.1" y1="387.7" x2="2544.1" y2="287.2"/>
				<line fill="none" stroke="#000000" stroke-width="12" stroke-miterlimit="10" x1="2445.2" y1="387.7" x2="2445.2" y2="287.2"/>
				<line fill="none" stroke="#000000" stroke-width="12" stroke-miterlimit="10" x1="2346.2" y1="387.7" x2="2346.2" y2="287.2"/>
				<line fill="none" stroke="#000000" stroke-width="12" stroke-miterlimit="10" x1="2247.3" y1="387.7" x2="2247.3" y2="287.2"/>
				<line fill="none" stroke="#000000" stroke-width="12" stroke-miterlimit="10" x1="2148.4" y1="387.7" x2="2148.4" y2="287.2"/>
				<line fill="none" stroke="#000000" stroke-width="12" stroke-miterlimit="10" x1="2049.4" y1="387.7" x2="2049.4" y2="287.2"/>
				<line fill="none" stroke="#000000" stroke-width="12" stroke-miterlimit="10" x1="1950.5" y1="387.7" x2="1950.5" y2="287.2"/>
				<line fill="none" stroke="#000000" stroke-width="12" stroke-miterlimit="10" x1="1851.6" y1="387.7" x2="1851.6" y2="287.2"/>
				<line fill="none" stroke="#000000" stroke-width="12" stroke-miterlimit="10" x1="1752.6" y1="387.7" x2="1752.6" y2="287.2"/>
				<line fill="none" stroke="#000000" stroke-width="12" stroke-miterlimit="10" x1="1653.7" y1="387.7" x2="1653.7" y2="287.2"/>
				<line fill="none" stroke="#000000" stroke-width="12" stroke-miterlimit="10" x1="1554.8" y1="387.7" x2="1554.8" y2="287.2"/>
				<line fill="none" stroke="#000000" stroke-width="12" stroke-miterlimit="10" x1="1455.8" y1="387.7" x2="1455.8" y2="287.2"/>
				<line fill="none" stroke="#000000" stroke-width="12" stroke-miterlimit="10" x1="1356.9" y1="387.7" x2="1356.9" y2="287.2"/>
				<line fill="none" stroke="#000000" stroke-width="12" stroke-miterlimit="10" x1="1258" y1="387.7" x2="1258" y2="287.2"/>
				<line fill="none" stroke="#000000" stroke-width="12" stroke-miterlimit="10" x1="1159" y1="387.7" x2="1159" y2="287.2"/>
				<line fill="none" stroke="#000000" stroke-width="12" stroke-miterlimit="10" x1="1060.1" y1="387.7" x2="1060.1" y2="287.2"/>
				<line fill="none" stroke="#000000" stroke-width="12" stroke-miterlimit="10" x1="961.2" y1="387.7" x2="961.2" y2="287.2"/>
				<line fill="none" stroke="#000000" stroke-width="12" stroke-miterlimit="10" x1="862.2" y1="387.7" x2="862.2" y2="287.2"/>
				<line fill="none" stroke="#000000" stroke-width="12" stroke-miterlimit="10" x1="763.3" y1="387.7" x2="763.3" y2="287.2"/>
				<line fill="none" stroke="#000000" stroke-width="12" stroke-miterlimit="10" x1="664.4" y1="387.7" x2="664.4" y2="287.2"/>
				<line fill="none" stroke="#000000" stroke-width="12" stroke-miterlimit="10" x1="565.4" y1="387.7" x2="565.4" y2="287.2"/>
				<line fill="none" stroke="#000000" stroke-width="12" stroke-miterlimit="10" x1="466.5" y1="387.7" x2="466.5" y2="287.2"/>
			</g>
		</g>
		<rect x="410.7" y="328.9" opacity="0.1" width="2183.4" height="58.8"/>
	</g>
	
		<polyline clip-path="url(#SVGID_2_)" fill="none" stroke="#6D6E71" stroke-width="20" stroke-linecap="round" stroke-miterlimit="10" stroke-dasharray="50,50" points="
		1095.4,2038.7 585.5,2038.7 840.4,1697.5 	"/>
	<g clip-path="url(#SVGID_2_)">
		<g>
			<path fill="#6D6E71" d="M900.5,688.4l-1.1-0.3c-4.2,4.3-8.2,7.4-11.9,9.1c-3.7,1.8-7.7,2.7-11.8,2.7c-3.7,0-6.9-0.7-9.8-2.2
				c-2.8-1.4-5-3.5-6.5-6.1c-1.5-2.6-2.2-5.6-2.2-9c0-7.1,3.5-12.6,10.6-16.4c7-3.8,17.6-6.1,31.6-6.6l0-4.7c0-5-0.5-9-1.4-11.9
				c-1-2.9-2.5-5.1-4.6-6.4c-2.1-1.4-4.9-2.1-8.4-2.1c-3.8,0-6.8,1-9.1,3c-2.3,2-4.1,5-5.2,8.9l-9.5,0l0-9.5
				c4.7-2.4,8.6-4.2,11.7-5.3c3.1-1.1,6.2-2,9.3-2.7c3.1-0.6,6.3-1,9.5-1c4.8,0,8.7,0.8,11.6,2.3s5.1,3.9,6.5,7
				c1.4,3.2,2.2,7.9,2.1,14.3l-0.1,25.3c0,3.6,0,6.1,0.1,7.6c0,1.5,0.2,2.9,0.4,4.1c0.2,1.3,0.6,2.3,1.1,3c0.5,0.8,1.2,1.4,2.1,1.9
				c0.9,0.5,2.5,1.1,4.6,1.7l0,3.6l-20-0.1L900.5,688.4z M899.3,665.6c-9.9,0.1-17.2,1.4-22.2,3.9c-4.9,2.5-7.4,6.3-7.4,11.4
				c0,2.8,0.5,5,1.7,6.6c1.1,1.6,2.5,2.7,4.2,3.3c1.7,0.6,3.7,0.9,6,0.9c3.3,0,6.3-0.8,9-2.4c2.7-1.6,4.8-3.6,6.3-6.1
				c1.5-2.5,2.3-4.9,2.3-7.3L899.3,665.6z"/>
			<path fill="#6D6E71" d="M954.1,642.6c1.4,0,2.5-0.1,3.4-0.2s1.5-0.4,2-0.8s0.9-0.9,1.2-1.5s0.7-1.6,1.1-2.9l3.6,0l-0.8,12.4
				l-34.9-0.1l0-2c1.2-3,2.9-6,5-9.1c2.1-3.1,5-6.8,8.8-11c3.3-3.6,5.7-6.4,7.1-8.2c1.6-2,2.8-3.8,3.6-5.3c0.8-1.5,1.3-2.9,1.7-4.2
				c0.3-1.3,0.5-2.6,0.5-4c0-2.1-0.3-4-1-5.6c-0.7-1.6-1.7-2.9-3.1-3.9c-1.4-0.9-3.2-1.4-5.3-1.4c-5.3,0-8.9,2.9-10.7,8.8l-5.1,0
				l0-8.2c3.4-1.6,6.6-2.8,9.6-3.5c3-0.7,5.7-1.1,8-1.1c5.3,0,9.2,1.2,11.9,3.5c2.7,2.3,4,5.7,4,10.1c0,1.5-0.2,2.9-0.5,4.1
				c-0.3,1.3-0.8,2.5-1.4,3.7c-0.6,1.2-1.5,2.6-2.6,4c-1.1,1.4-2.3,2.8-3.6,4.3c-1.3,1.5-3.6,3.9-6.8,7.3
				c-5.4,5.7-9.4,10.6-11.9,14.9L954.1,642.6z"/>
			<path fill="#6D6E71" d="M1066.1,661.5l-0.1,42l-10.3,0l0.1-42l-39.7-0.1l0-9.7l39.7,0.1l0.1-42l10.3,0l-0.1,42l39.7,0.1l0,9.7
				L1066.1,661.5z"/>
			<path fill="#6D6E71" d="M1175,641.5l0.3,0.1c3.4-3.5,6.2-6.1,8.5-7.7c2.3-1.6,4.6-2.8,7-3.7c2.4-0.8,5-1.3,7.9-1.3
				c5.2,0,9.6,1.4,13.4,4c3.7,2.7,6.6,6.6,8.6,11.9c2,5.3,3,11.8,3,19.5c0,7.9-1.2,14.6-3.7,20.1s-6,9.6-10.7,12.4
				c-4.7,2.8-10.2,4.2-16.7,4.1c-3.6,0-7-0.3-10.2-1c-3.2-0.7-6.5-1.8-10-3.5l-5.1,4.4l-5-1.2l0.2-79.2c0-4.7,0-7.9-0.1-9.8
				c-0.1-1.8-0.3-3.4-0.6-4.7c-0.3-1.3-0.7-2.3-1.3-3c-0.6-0.7-1.3-1.3-2.3-1.8c-0.9-0.4-2.7-0.9-5.1-1.3l0-3.8l17.6-0.7l4.3,0
				L1175,641.5z M1174.9,673.4c0,3.7,0.1,6.7,0.5,8.9c0.3,2.2,0.9,4,1.7,5.5c0.8,1.5,2,2.8,3.5,4c1.5,1.2,3.2,2.1,5.1,2.5
				c1.9,0.5,4,0.7,6.3,0.7c5.8,0,10.3-2.3,13.3-7.1c3-4.7,4.5-11.9,4.6-21.4c0-9.6-1.3-16.8-4.1-21.7c-2.7-4.8-6.9-7.3-12.4-7.3
				c-2.8,0-5.1,0.4-7.1,1.3c-1.9,0.8-3.9,2.2-5.8,4c-1.9,1.8-3.3,3.6-4.2,5.3c-0.9,1.7-1.4,3.7-1.4,6L1174.9,673.4z"/>
			<path fill="#6D6E71" d="M1261,643.4c1.4,0,2.5-0.1,3.4-0.2s1.5-0.4,2-0.8s0.9-0.9,1.2-1.5s0.7-1.6,1.1-2.9l3.6,0l-0.8,12.4
				l-34.9-0.1l0-2c1.2-3,2.9-6,5-9.1c2.1-3.1,5-6.8,8.8-11c3.3-3.6,5.7-6.4,7.1-8.2c1.6-2,2.8-3.8,3.6-5.3c0.8-1.5,1.3-2.9,1.7-4.2
				c0.3-1.3,0.5-2.6,0.5-4c0-2.1-0.3-4-1-5.6c-0.7-1.6-1.7-2.9-3.1-3.9c-1.4-0.9-3.2-1.4-5.3-1.4c-5.3,0-8.9,2.9-10.7,8.8l-5.1,0
				l0-8.2c3.4-1.6,6.6-2.8,9.6-3.5c3-0.7,5.7-1.1,8-1.1c5.3,0,9.2,1.2,11.9,3.5c2.7,2.3,4,5.7,4,10.1c0,1.5-0.2,2.9-0.5,4.1
				c-0.3,1.3-0.8,2.5-1.4,3.7c-0.6,1.2-1.5,2.6-2.6,4c-1.1,1.4-2.3,2.8-3.6,4.3c-1.3,1.5-3.6,3.9-6.8,7.3
				c-5.4,5.7-9.4,10.6-11.9,14.9L1261,643.4z"/>
			<path fill="#6D6E71" d="M1323,677.4l0-9.7l89.7,0.3l0,9.7L1323,677.4z M1323,647.2l0-9.7l89.7,0.3l0,9.7L1323,647.2z"/>
			<path fill="#6D6E71" d="M1517.8,632.7l0,15.2l-9.2,0c-0.8-3.2-1.8-5.6-3-7.5c-1.2-1.8-2.6-3.1-4.2-3.8c-1.6-0.7-3.6-1.1-6-1.1
				c-3.4,0-6.4,1.1-9,3.3c-2.6,2.2-4.7,5.5-6.3,10c-1.5,4.5-2.3,9.9-2.3,16.4c0,4.1,0.3,7.9,0.8,11.3c0.6,3.4,1.6,6.4,3,8.8
				c1.4,2.4,3.3,4.3,5.6,5.7c2.3,1.4,5.2,2.1,8.7,2.1c3.4,0,6.5-0.6,9.4-1.9c2.9-1.3,5.9-3.6,9-6.9l4.1,4.8
				c-2.5,2.7-4.7,4.8-6.6,6.3c-1.9,1.5-3.9,2.7-6.1,3.7c-2.2,1-4.3,1.7-6.4,2.2c-2.1,0.5-4.4,0.7-6.9,0.7c-9.2,0-16.2-3.1-21-9.2
				c-4.8-6.1-7.2-14.9-7.2-26.4c0-7.2,1.4-13.6,4.1-19.1c2.7-5.6,6.6-9.8,11.5-12.8c4.9-3,10.6-4.5,17-4.5c4,0,7.7,0.3,11,0.7
				C1511.1,630.9,1514.4,631.6,1517.8,632.7z"/>
			<path fill="#6D6E71" d="M1552.1,644.3c1.4,0,2.5-0.1,3.4-0.2c0.8-0.2,1.5-0.4,2-0.8c0.5-0.4,0.9-0.9,1.2-1.5
				c0.3-0.6,0.7-1.6,1.1-2.9l3.6,0l-0.8,12.4l-34.9-0.1l0-2c1.2-3,2.9-6,5-9.1c2.1-3.1,5-6.8,8.8-11c3.3-3.6,5.7-6.4,7.1-8.2
				c1.6-2,2.8-3.8,3.6-5.3c0.8-1.5,1.3-2.9,1.7-4.2s0.5-2.6,0.5-4c0-2.1-0.3-4-1-5.6c-0.7-1.6-1.7-2.9-3.1-3.9
				c-1.4-0.9-3.2-1.4-5.3-1.4c-5.3,0-8.9,2.9-10.7,8.8l-5.1,0l0-8.2c3.4-1.6,6.6-2.8,9.6-3.5c3-0.7,5.7-1.1,8.1-1.1
				c5.3,0,9.2,1.2,11.9,3.5c2.7,2.3,4,5.7,4,10.1c0,1.5-0.2,2.9-0.5,4.1c-0.3,1.3-0.8,2.5-1.4,3.7c-0.6,1.2-1.5,2.6-2.6,4
				c-1.1,1.4-2.3,2.8-3.6,4.3c-1.3,1.5-3.6,3.9-6.8,7.3c-5.4,5.7-9.4,10.6-11.9,14.9L1552.1,644.3z"/>
		</g>
	</g>
	<g clip-path="url(#SVGID_2_)">
		<path fill="#6D6E71" d="M2190.9,2045.8c-5,0-9.1,0.8-12.2,2.4c-3.1,1.6-6.5,4.9-10.3,9.8l-6.6-5.7c6-8.4,11.3-14,15.9-16.7
			c4.6-2.7,10.9-4.1,18.8-4.1h89.5v14.3h-25.7v63.7c0,9.3,2.7,13.9,8,13.9c3,0,6.7-1.8,10.9-5.3l4.1,6.4
			c-7.9,6.8-15.6,10.2-23.1,10.2c-6.1,0-10.6-2.1-13.6-6.2c-3-4.1-4.5-11-4.5-20.7v-62h-32.6v87.1h-21.3v-5.2
			c4.4-16.6,6.6-39,6.6-67.3v-14.6H2190.9z"/>
		<path fill="#6D6E71" d="M2330.3,2049.1l1.5,0.3c3.9-4.7,7.5-8.5,10.8-11.2c3.3-2.7,6.9-4.8,10.8-6.3c3.9-1.5,8.2-2.2,13.1-2.2
			c4.1,0,7.8,0.2,11.1,0.6v24.4h-12c-1.7-3.8-3.5-6.6-5.4-8.3c-1.9-1.7-4.5-2.6-7.9-2.6c-2.5,0-5.1,0.7-7.6,2.2
			c-2.5,1.5-4.9,3.6-7.3,6.5c-2.3,2.8-3.9,5.5-4.8,8c-0.9,2.5-1.3,5.4-1.3,8.8v37.1c0,6.4,0.4,10.9,1.2,13.3
			c0.8,2.4,2.1,4.2,3.9,5.4c1.8,1.1,4.5,2,8.1,2.7v5.2h-42.8v-5.2c2.7-0.8,4.6-1.6,5.8-2.2s2.2-1.5,3-2.7c0.8-1.1,1.5-2.9,1.9-5.2
			c0.4-2.3,0.6-6,0.6-10.9v-46.3c0-4.5-0.1-8.2-0.2-10.9c-0.1-2.8-0.6-5-1.5-6.6c-0.8-1.7-2.1-2.9-3.9-3.7c-1.7-0.8-4.2-1.5-7.4-2.1
			v-5.5l24.8-1.1h6.5L2330.3,2049.1z"/>
		<path fill="#6D6E71" d="M2424.6,2050.6c2,0,3.6-0.1,4.9-0.4c1.2-0.2,2.2-0.7,3-1.2c0.7-0.6,1.3-1.3,1.8-2.3c0.4-0.9,1-2.4,1.6-4.3
			h5.3l-1.1,18.1h-50.9v-3c1.8-4.3,4.2-8.8,7.2-13.3c3-4.5,7.3-9.9,12.8-16c4.8-5.3,8.2-9.3,10.3-12c2.3-3,4-5.5,5.2-7.7
			c1.1-2.2,1.9-4.2,2.4-6.1c0.5-1.9,0.7-3.8,0.7-5.8c0-3.1-0.5-5.8-1.5-8.2c-1-2.4-2.5-4.2-4.5-5.6c-2-1.4-4.6-2-7.7-2
			c-7.7,0-12.9,4.3-15.6,12.9h-7.5v-11.9c5-2.4,9.7-4.1,14-5.1c4.4-1.1,8.3-1.6,11.7-1.6c7.7,0,13.5,1.7,17.4,5
			c3.9,3.4,5.9,8.2,5.9,14.6c0,2.2-0.2,4.2-0.6,6c-0.4,1.8-1.1,3.7-2,5.4c-0.9,1.8-2.2,3.7-3.7,5.8c-1.6,2.1-3.3,4.2-5.2,6.3
			c-1.9,2.1-5.2,5.7-9.8,10.6c-7.8,8.3-13.6,15.5-17.3,21.7H2424.6z"/>
	</g>
	<g clip-path="url(#SVGID_2_)">
		<path fill="#6D6E71" d="M957.4,1309.8c-5,0-9.1,0.8-12.2,2.4c-3.1,1.6-6.5,4.9-10.3,9.8l-6.6-5.7c6-8.4,11.3-14,15.9-16.7
			c4.6-2.7,10.9-4.1,18.8-4.1h89.5v14.3h-25.7v63.7c0,9.3,2.7,13.9,8,13.9c3,0,6.7-1.8,10.9-5.3l4.1,6.4
			c-7.9,6.8-15.6,10.2-23.1,10.2c-6.1,0-10.6-2.1-13.6-6.2c-3-4.1-4.5-11-4.5-20.7v-62H976v87.1h-21.3v-5.2
			c4.4-16.6,6.6-39,6.6-67.3v-14.6H957.4z"/>
		<path fill="#6D6E71" d="M1096.7,1313.1l1.5,0.3c3.9-4.7,7.5-8.5,10.8-11.2c3.3-2.7,6.9-4.8,10.8-6.3c3.9-1.5,8.2-2.2,13.1-2.2
			c4.1,0,7.8,0.2,11.1,0.6v24.4h-12c-1.7-3.8-3.5-6.6-5.4-8.3c-1.9-1.7-4.5-2.6-7.9-2.6c-2.5,0-5.1,0.7-7.6,2.2
			c-2.5,1.5-4.9,3.6-7.3,6.5c-2.3,2.8-3.9,5.5-4.8,8c-0.9,2.5-1.3,5.4-1.3,8.8v37.1c0,6.4,0.4,10.9,1.2,13.3
			c0.8,2.4,2.1,4.2,3.9,5.4c1.8,1.1,4.5,2,8.1,2.7v5.2h-42.8v-5.2c2.7-0.8,4.6-1.6,5.8-2.2s2.2-1.5,3-2.7c0.8-1.1,1.5-2.9,1.9-5.2
			c0.4-2.3,0.6-6,0.6-10.9v-46.3c0-4.5-0.1-8.2-0.2-10.9c-0.1-2.8-0.6-5-1.5-6.6c-0.8-1.7-2.1-2.9-3.9-3.7c-1.7-0.8-4.2-1.5-7.4-2.1
			v-5.5l24.8-1.1h6.5L1096.7,1313.1z"/>
		<path fill="#6D6E71" d="M1191.1,1314.6c2,0,3.6-0.1,4.9-0.4c1.2-0.2,2.2-0.7,3-1.2c0.7-0.6,1.3-1.3,1.8-2.3c0.4-0.9,1-2.4,1.6-4.3
			h5.3l-1.1,18.1h-50.9v-3c1.8-4.3,4.2-8.8,7.2-13.3c3-4.5,7.3-9.9,12.8-16c4.8-5.3,8.2-9.3,10.3-12c2.3-3,4-5.5,5.2-7.7
			c1.1-2.2,1.9-4.2,2.4-6.1c0.5-1.9,0.7-3.8,0.7-5.8c0-3.1-0.5-5.8-1.5-8.2c-1-2.4-2.5-4.2-4.5-5.6c-2-1.4-4.6-2-7.7-2
			c-7.7,0-12.9,4.3-15.6,12.9h-7.5v-11.9c5-2.4,9.7-4.1,14-5.1c4.4-1.1,8.3-1.6,11.7-1.6c7.7,0,13.5,1.7,17.4,5
			c3.9,3.4,5.9,8.2,5.9,14.6c0,2.2-0.2,4.2-0.6,6c-0.4,1.8-1.1,3.7-2,5.4c-0.9,1.8-2.2,3.7-3.7,5.8c-1.6,2.1-3.3,4.2-5.2,6.3
			c-1.9,2.1-5.2,5.7-9.8,10.6c-7.8,8.3-13.6,15.5-17.3,21.7H1191.1z"/>
	</g>
	<g clip-path="url(#SVGID_2_)">
		<path fill="#6D6E71" d="M1709.9,1137.4v15.6h-9.5c-0.8-3.2-1.9-5.8-3.1-7.6c-1.2-1.9-2.7-3.2-4.3-3.9c-1.6-0.7-3.7-1.1-6.1-1.1
			c-3.5,0-6.6,1.1-9.2,3.4c-2.7,2.2-4.8,5.6-6.4,10.2c-1.6,4.6-2.3,10.2-2.3,16.8c0,4.2,0.3,8.1,0.9,11.6c0.6,3.5,1.6,6.5,3.1,9
			c1.4,2.5,3.4,4.4,5.7,5.8c2.4,1.4,5.3,2.1,8.9,2.1c3.4,0,6.6-0.7,9.6-2c3-1.3,6-3.7,9.2-7.1l4.2,4.9c-2.5,2.8-4.8,4.9-6.7,6.4
			c-1.9,1.5-4,2.8-6.2,3.8c-2.2,1-4.4,1.8-6.6,2.2c-2.2,0.5-4.5,0.7-7,0.7c-9.4,0-16.6-3.1-21.5-9.3c-5-6.2-7.4-15.2-7.4-27
			c0-7.3,1.4-13.9,4.2-19.6c2.8-5.7,6.7-10.1,11.7-13.1c5-3.1,10.8-4.6,17.4-4.6c4.1,0,7.8,0.2,11.3,0.7
			C1702.9,1135.6,1706.4,1136.3,1709.9,1137.4z"/>
		<path fill="#6D6E71" d="M1754,1208.1c-10.3,0-18.2-3-23.7-9.1c-5.4-6.1-8.2-15.1-8.2-27c0-8.2,1.4-15.1,4.3-20.8
			c2.9-5.7,6.8-9.9,11.7-12.6c5-2.8,10.6-4.1,17-4.1c10.6,0,18.7,3.1,24.1,9.3c5.5,6.2,8.2,15.1,8.2,26.6c0,8.2-1.4,15.2-4.1,20.9
			c-2.7,5.7-6.6,9.9-11.6,12.7C1766.8,1206.6,1760.9,1208.1,1754,1208.1z M1736.3,1170.4c0,10.2,1.6,18.1,4.9,23.6
			c3.3,5.5,7.9,8.2,14,8.2c3.3,0,6.2-0.8,8.5-2.4c2.3-1.6,4.2-3.8,5.7-6.5c1.5-2.7,2.5-5.9,3.2-9.5c0.6-3.6,1-7.4,1-11.3
			c0-7.3-0.8-13.4-2.4-18.2c-1.6-4.8-3.8-8.4-6.6-10.6c-2.8-2.3-6-3.4-9.5-3.4c-6,0-10.6,2.6-13.8,7.8
			C1737.9,1153.3,1736.3,1160.7,1736.3,1170.4z"/>
		<path fill="#6D6E71" d="M1852.5,1152h-7.2c-1.1-3-2.4-5.3-3.9-7s-3.2-2.9-5.1-3.6c-1.9-0.7-4.2-1-6.9-1c-4,0-7.1,0.9-9.5,2.8
			c-2.4,1.9-3.5,4.4-3.5,7.6c0,2.3,0.5,4.2,1.4,5.7c0.9,1.5,2.4,2.9,4.4,4.2c2,1.3,5.5,3,10.5,5.1c5.1,2.2,9,4.2,11.7,6
			c2.8,1.8,4.9,4,6.5,6.4c1.6,2.4,2.3,5.3,2.3,8.7c0,3.9-0.7,7.2-2,9.9c-1.3,2.7-3.2,4.9-5.7,6.6c-2.4,1.7-5.3,2.9-8.7,3.7
			c-3.4,0.7-7,1.1-11,1.1c-4.2,0-8.2-0.3-12.1-0.9c-3.9-0.6-7.7-1.4-11.5-2.4v-15.6h7.3c1.3,4.6,3.3,7.9,6,9.9
			c2.6,2.1,6.3,3.1,10.9,3.1c1.8,0,3.5-0.2,5.3-0.6c1.7-0.4,3.2-1,4.6-1.9c1.3-0.9,2.4-2,3.2-3.5c0.8-1.5,1.2-3.4,1.2-5.6
			c0-2.5-0.5-4.6-1.5-6.2s-2.5-3-4.6-4.4c-2.1-1.3-5.8-3.1-11-5.3c-4.5-1.9-8.1-3.7-10.9-5.5c-2.7-1.8-4.9-3.9-6.4-6.3
			c-1.6-2.4-2.3-5.3-2.3-8.6c0-4.1,1.1-7.6,3.3-10.6c2.2-3,5.4-5.3,9.6-6.9c4.2-1.6,9.1-2.4,14.7-2.4c3.3,0,6.4,0.2,9.5,0.5
			c3.1,0.3,6.9,1,11.5,1.9V1152z"/>
		<path fill="#6D6E71" d="M1935.3,1208.1c-10.9,0-18.9-4.3-24-12.8c-5.1-8.5-7.6-21.5-7.6-39c0-17.5,2.8-30.9,8.3-40.1
			c5.6-9.2,13.7-13.8,24.4-13.8c10.9,0,18.9,4.2,24.2,12.6c5.3,8.4,7.9,21.4,7.9,38.9c0,18.1-2.8,31.6-8.3,40.6
			C1954.7,1203.5,1946.3,1208.1,1935.3,1208.1z M1917.4,1151.1h37.4c-0.7-28.5-6.9-42.8-18.6-42.8
			C1924.1,1108.3,1917.8,1122.6,1917.4,1151.1z M1954.9,1158.7h-37.5c0.5,29,6.9,43.4,19,43.4
			C1948.5,1202.1,1954.7,1187.6,1954.9,1158.7z"/>
	</g>
	<g clip-path="url(#SVGID_2_)">
		<path fill="#6D6E71" d="M880.8,1865.4h-5.9c-0.9-2.5-2-4.4-3.2-5.8s-2.6-2.4-4.2-3s-3.5-0.9-5.8-0.9c-3.3,0-5.9,0.8-7.9,2.3
			s-2.9,3.7-2.9,6.3c0,1.9,0.4,3.5,1.2,4.7c0.8,1.2,2,2.4,3.6,3.5c1.6,1.1,4.6,2.5,8.7,4.3c4.2,1.8,7.5,3.5,9.7,5
			c2.3,1.5,4.1,3.3,5.4,5.3c1.3,2,1.9,4.4,1.9,7.2c0,3.3-0.6,6-1.7,8.2c-1.1,2.2-2.7,4-4.7,5.4c-2,1.4-4.4,2.4-7.2,3
			c-2.8,0.6-5.8,0.9-9.1,0.9c-3.5,0-6.8-0.3-10.1-0.8c-3.3-0.5-6.4-1.2-9.5-2v-12.9h6.1c1.1,3.8,2.8,6.5,4.9,8.3
			c2.2,1.7,5.2,2.6,9,2.6c1.5,0,2.9-0.2,4.4-0.5s2.7-0.8,3.8-1.5c1.1-0.7,2-1.7,2.7-2.9c0.7-1.2,1-2.8,1-4.6c0-2.1-0.4-3.8-1.2-5.1
			s-2.1-2.5-3.8-3.6s-4.8-2.6-9.2-4.4c-3.8-1.6-6.8-3.1-9-4.6c-2.3-1.5-4.1-3.2-5.4-5.3c-1.3-2-1.9-4.4-1.9-7.2
			c0-3.4,0.9-6.3,2.8-8.8c1.8-2.5,4.5-4.4,7.9-5.7c3.5-1.3,7.5-2,12.2-2c2.7,0,5.4,0.1,7.9,0.4c2.5,0.3,5.7,0.8,9.6,1.6V1865.4z"/>
		<path fill="#6D6E71" d="M893.8,1908c1.6-0.5,2.8-0.9,3.4-1.3c0.7-0.4,1.3-0.9,1.7-1.5c0.5-0.7,0.8-1.7,1.1-3s0.4-3.5,0.4-6.4v-27
			c0-2.6,0-4.8-0.1-6.4s-0.4-2.9-0.9-3.9c-0.5-1-1.2-1.7-2.3-2.2c-1-0.5-2.4-0.9-4.3-1.2v-3.3l14.4-0.6h3.8v44.2
			c0,3.5,0.2,6,0.5,7.4c0.3,1.4,1,2.4,1.9,3.2c0.9,0.7,2.4,1.4,4.5,1.9v3h-24.3V1908z M911.5,1827.6v12h-11.4v-12H911.5z"/>
		<path fill="#6D6E71" d="M989.3,1911h-24.4v-3c1.6-0.5,2.8-0.9,3.5-1.3s1.3-0.9,1.8-1.5c0.5-0.7,0.8-1.7,1.1-3.1
			c0.3-1.4,0.4-3.5,0.4-6.3v-16.2c0-2.9-0.1-5.5-0.2-7.9c-0.2-2.4-0.4-4.3-0.8-5.8c-0.4-1.5-0.9-2.7-1.4-3.5c-0.6-0.8-1.2-1.6-2-2.2
			c-0.8-0.6-1.6-1.1-2.6-1.4c-1-0.4-2.3-0.5-3.9-0.5s-3.1,0.3-4.6,1c-1.4,0.6-3,1.7-4.8,3.3c-1.7,1.6-3,3.1-3.8,4.6
			c-0.8,1.5-1.2,3.3-1.2,5.3v23.1c0,3.5,0.2,6,0.5,7.4c0.3,1.4,1,2.4,1.9,3.2c0.9,0.7,2.4,1.4,4.5,1.9v3H929v-3
			c1.6-0.5,2.8-0.9,3.4-1.3c0.7-0.4,1.3-0.9,1.7-1.5c0.5-0.7,0.8-1.7,1.1-3s0.4-3.5,0.4-6.4v-27c0-2.6,0-4.8-0.1-6.4
			s-0.4-2.9-0.9-3.9c-0.5-1-1.2-1.7-2.3-2.2c-1-0.5-2.4-0.9-4.3-1.2v-3.3l14.5-0.6h3.8l-0.7,10.1l0.9,0.2c3.1-3.1,5.5-5.3,7.4-6.6
			c1.9-1.3,3.8-2.3,5.7-3.1c1.9-0.7,3.9-1.1,6.1-1.1c2.2,0,4.2,0.3,6,0.8c1.8,0.5,3.3,1.3,4.6,2.4c1.3,1.1,2.4,2.4,3.3,4
			c0.9,1.6,1.5,3.5,1.9,5.7c0.4,2.2,0.7,5.1,0.7,8.5v23.3c0,2.8,0.1,4.9,0.2,6.2c0.2,1.3,0.5,2.3,0.9,3c0.4,0.7,1,1.3,1.8,1.8
			c0.8,0.5,2.1,1,4.1,1.5V1911z"/>
		<path fill="#6D6E71" d="M1055.5,1912c-9.1,0-15.7-3.5-19.9-10.6c-4.2-7.1-6.3-17.9-6.3-32.4c0-14.6,2.3-25.7,6.9-33.3
			c4.6-7.6,11.4-11.4,20.3-11.4c9,0,15.7,3.5,20.1,10.5c4.4,7,6.6,17.7,6.6,32.3c0,15-2.3,26.3-6.9,33.7
			C1071.6,1908.2,1064.7,1912,1055.5,1912z M1040.6,1864.7h31.1c-0.6-23.7-5.7-35.5-15.5-35.5
			C1046.2,1829.1,1041,1841,1040.6,1864.7z M1071.7,1871h-31.1c0.5,24,5.7,36.1,15.8,36.1C1066.5,1907,1071.6,1895,1071.7,1871z"/>
	</g>
	<g clip-path="url(#SVGID_2_)">
		<path fill="#6D6E71" d="M2500.9,2406.3h-6.9c-1.1-2.9-2.3-5.1-3.7-6.8c-1.4-1.7-3.1-2.8-4.9-3.5c-1.8-0.7-4-1-6.7-1
			c-3.8,0-6.9,0.9-9.2,2.7c-2.3,1.8-3.4,4.3-3.4,7.4c0,2.2,0.5,4,1.4,5.5c0.9,1.4,2.3,2.8,4.2,4c1.9,1.2,5.3,2.9,10.1,5
			c4.9,2.1,8.7,4,11.3,5.8c2.7,1.8,4.7,3.8,6.2,6.2c1.5,2.3,2.3,5.1,2.3,8.4c0,3.8-0.6,7-1.9,9.6c-1.3,2.6-3.1,4.7-5.5,6.3
			c-2.3,1.6-5.1,2.8-8.4,3.5c-3.2,0.7-6.8,1.1-10.6,1.1c-4,0-7.9-0.3-11.7-0.9c-3.8-0.6-7.5-1.4-11.1-2.3v-15h7
			c1.3,4.4,3.2,7.6,5.7,9.6c2.5,2,6,3,10.5,3c1.7,0,3.4-0.2,5.1-0.5c1.7-0.4,3.1-1,4.4-1.8c1.3-0.8,2.3-2,3.1-3.4
			c0.8-1.4,1.1-3.2,1.1-5.4c0-2.4-0.5-4.4-1.4-6s-2.4-2.9-4.5-4.2s-5.6-3-10.6-5.1c-4.4-1.8-7.9-3.6-10.5-5.3
			c-2.6-1.7-4.7-3.8-6.2-6.1c-1.5-2.3-2.3-5.1-2.3-8.3c0-3.9,1.1-7.3,3.2-10.2c2.1-2.9,5.2-5.1,9.2-6.6c4-1.5,8.7-2.3,14.1-2.3
			c3.2,0,6.2,0.2,9.2,0.5c2.9,0.3,6.6,0.9,11.1,1.8V2406.3z"/>
		<path fill="#6D6E71" d="M2515.9,2455.7c1.9-0.6,3.2-1.1,4-1.5c0.8-0.4,1.5-1,2-1.8c0.5-0.8,1-1.9,1.3-3.5s0.5-4,0.5-7.4v-31.3
			c0-3.1,0-5.5-0.1-7.4c-0.1-1.9-0.4-3.4-1-4.5c-0.6-1.1-1.4-2-2.6-2.5c-1.2-0.5-2.8-1-5-1.4v-3.8l16.7-0.6h4.4v51.3
			c0,4.1,0.2,7,0.6,8.6c0.4,1.6,1.1,2.8,2.2,3.7c1.1,0.8,2.8,1.6,5.3,2.2v3.5h-28.2V2455.7z M2536.5,2362.4v13.9h-13.2v-13.9H2536.5
			z"/>
		<path fill="#6D6E71" d="M2626.8,2459.2h-28.3v-3.5c1.9-0.6,3.2-1.1,4-1.5s1.5-1,2-1.8c0.6-0.8,1-1.9,1.3-3.6
			c0.3-1.6,0.5-4,0.5-7.3v-18.8c0-3.4-0.1-6.4-0.3-9.1c-0.2-2.7-0.5-5-1-6.7c-0.5-1.7-1-3.1-1.7-4.1c-0.6-1-1.4-1.8-2.3-2.5
			c-0.9-0.7-1.9-1.2-3.1-1.7c-1.1-0.4-2.7-0.6-4.5-0.6c-1.9,0-3.6,0.4-5.3,1.1c-1.7,0.7-3.5,2-5.5,3.8c-2,1.8-3.5,3.6-4.4,5.4
			c-0.9,1.8-1.4,3.8-1.4,6.1v26.8c0,4.1,0.2,7,0.6,8.6c0.4,1.6,1.1,2.8,2.2,3.7c1.1,0.8,2.8,1.6,5.3,2.2v3.5h-28.2v-3.5
			c1.9-0.6,3.2-1.1,4-1.5c0.8-0.4,1.5-1,2-1.8c0.5-0.8,1-1.9,1.3-3.5s0.5-4,0.5-7.4v-31.3c0-3.1,0-5.5-0.1-7.4
			c-0.1-1.9-0.4-3.4-1-4.5c-0.6-1.1-1.4-2-2.6-2.5c-1.2-0.5-2.8-1-5-1.4v-3.8l16.8-0.6h4.4l-0.8,11.7l1,0.3c3.5-3.6,6.4-6.2,8.6-7.7
			c2.2-1.5,4.4-2.7,6.6-3.6c2.2-0.8,4.6-1.3,7.1-1.3c2.6,0,4.9,0.3,6.9,0.9c2,0.6,3.8,1.5,5.4,2.8c1.6,1.2,2.8,2.8,3.8,4.6
			c1,1.8,1.8,4.1,2.3,6.6c0.5,2.6,0.8,5.9,0.8,9.8v27.1c0,3.3,0.1,5.7,0.3,7.2c0.2,1.5,0.5,2.6,1,3.4c0.5,0.8,1.2,1.5,2.1,2
			c0.9,0.6,2.5,1.1,4.7,1.8V2459.2z"/>
		<path fill="#6D6E71" d="M2703.6,2460.4c-10.5,0-18.2-4.1-23.1-12.3c-4.9-8.2-7.3-20.7-7.3-37.6c0-16.9,2.7-29.8,8-38.6
			c5.4-8.9,13.2-13.3,23.6-13.3c10.5,0,18.3,4,23.3,12.1c5.1,8.1,7.6,20.6,7.6,37.5c0,17.4-2.7,30.5-8,39.2
			C2722.3,2456,2714.3,2460.4,2703.6,2460.4z M2686.4,2405.4h36.1c-0.7-27.5-6.7-41.2-18-41.2
			C2692.8,2364.2,2686.7,2378,2686.4,2405.4z M2722.5,2412.8h-36.1c0.5,27.9,6.6,41.9,18.3,41.9
			C2716.4,2454.6,2722.3,2440.7,2722.5,2412.8z"/>
	</g>
	<g clip-path="url(#SVGID_2_)">
		<path fill="#6D6E71" d="M1837.9,906.7c2.8-0.4,5-1.2,6.7-2.3c1.7-1.1,3-2.5,4-4.3c1-1.7,1.7-3.9,2.3-6.5c0.6-2.6,1.1-6.4,1.7-11.4
			h11.7v20.4h26.7v8.3h-26.7v36.8c0,5.3,0.2,9.6,0.7,12.8c0.4,3.2,1.3,5.6,2.5,7.4c1.2,1.8,2.6,3.1,4.1,3.8c1.5,0.8,3.5,1.2,6,1.2
			c2.2,0,4.3-0.5,6.2-1.4c1.9-0.9,3.8-2.2,5.7-3.9l3.7,4.5c-3.9,3.8-7.6,6.6-11.1,8.3c-3.5,1.7-7.1,2.6-10.9,2.6
			c-7.1,0-12.4-2.1-15.9-6.3c-3.5-4.2-5.2-10.8-5.2-19.8v-45.9h-12.2V906.7z"/>
		<path fill="#6D6E71" d="M1947.9,969.8l-1.2-0.3c-4.8,4.9-9.3,8.4-13.5,10.4c-4.2,2-8.7,3.1-13.4,3.1c-4.2,0-7.9-0.8-11.1-2.4
			c-3.2-1.6-5.6-3.9-7.4-6.9c-1.7-2.9-2.6-6.4-2.6-10.2c0-8,4-14.3,11.9-18.6c8-4.4,19.9-6.9,35.8-7.6v-5.4c0-5.7-0.6-10.3-1.7-13.6
			c-1.1-3.3-2.8-5.7-5.2-7.3c-2.4-1.5-5.5-2.3-9.5-2.3c-4.3,0-7.8,1.1-10.4,3.4c-2.6,2.3-4.6,5.7-5.9,10.2H1903v-10.7
			c5.3-2.8,9.7-4.8,13.2-6.1c3.5-1.3,7.1-2.3,10.6-3.1c3.5-0.7,7.1-1.1,10.7-1.1c5.5,0,9.8,0.9,13.1,2.6c3.3,1.7,5.8,4.4,7.4,8
			c1.7,3.6,2.5,9,2.5,16.2v28.8c0,4.1,0,7,0.1,8.6c0.1,1.7,0.2,3.2,0.5,4.7c0.3,1.4,0.7,2.6,1.2,3.4c0.6,0.9,1.4,1.6,2.4,2.2
			c1.1,0.6,2.8,1.2,5.2,1.9v4.1h-22.7L1947.9,969.8z M1946.5,943.9c-11.2,0.1-19.6,1.6-25.1,4.5c-5.6,2.9-8.3,7.2-8.3,13
			c0,3.1,0.6,5.6,1.9,7.4c1.3,1.8,2.9,3.1,4.8,3.8c1.9,0.7,4.2,1,6.9,1c3.7,0,7.2-0.9,10.2-2.7c3.1-1.8,5.4-4.1,7.2-6.9
			c1.7-2.8,2.6-5.6,2.6-8.3V943.9z"/>
		<path fill="#6D6E71" d="M2063.3,981.6h-32.6v-4.1c2.1-0.7,3.7-1.2,4.6-1.7c0.9-0.5,1.7-1.2,2.4-2.1c0.6-0.9,1.1-2.2,1.5-4.1
			c0.4-1.8,0.5-4.6,0.5-8.4v-21.7c0-3.9-0.1-7.4-0.3-10.5c-0.2-3.1-0.6-5.7-1.1-7.7c-0.5-2-1.2-3.6-1.9-4.7
			c-0.7-1.1-1.6-2.1-2.6-2.9c-1-0.8-2.2-1.4-3.5-1.9c-1.3-0.5-3.1-0.7-5.2-0.7s-4.2,0.4-6.1,1.3c-1.9,0.9-4.1,2.3-6.4,4.4
			c-2.3,2.1-4,4.2-5,6.2c-1,2-1.6,4.4-1.6,7v30.8c0,4.7,0.2,8,0.7,9.9c0.4,1.8,1.3,3.3,2.5,4.2c1.2,1,3.3,1.8,6.1,2.5v4.1h-32.4
			v-4.1c2.1-0.7,3.7-1.2,4.6-1.7c0.9-0.5,1.7-1.2,2.3-2.1c0.6-0.9,1.1-2.2,1.5-4.1c0.4-1.8,0.5-4.7,0.5-8.5v-36
			c0-3.5-0.1-6.4-0.2-8.5c-0.1-2.1-0.5-3.9-1.2-5.2c-0.7-1.3-1.7-2.3-3-2.9c-1.4-0.6-3.3-1.2-5.7-1.6v-4.4l19.3-0.7h5l-0.9,13.5
			l1.2,0.3c4.1-4.1,7.4-7.1,9.9-8.8c2.5-1.8,5-3.1,7.6-4.1c2.6-1,5.3-1.4,8.1-1.4c3,0,5.6,0.3,8,1c2.3,0.7,4.4,1.8,6.2,3.2
			c1.8,1.4,3.3,3.2,4.4,5.3c1.2,2.1,2,4.7,2.6,7.6c0.6,3,0.9,6.8,0.9,11.3v31.2c0,3.8,0.1,6.6,0.3,8.3c0.2,1.7,0.6,3,1.2,4
			c0.6,0.9,1.3,1.7,2.4,2.4c1,0.6,2.9,1.3,5.5,2V981.6z"/>
		<path fill="#6D6E71" d="M2151.8,982.9c-12.1,0-21-4.7-26.6-14.2c-5.6-9.5-8.4-23.9-8.4-43.3c0-19.5,3.1-34.3,9.3-44.5
			c6.2-10.2,15.2-15.3,27.1-15.3c12.1,0,21,4.7,26.9,14c5.8,9.3,8.8,23.7,8.8,43.2c0,20.1-3.1,35.1-9.3,45.1
			C2173.3,977.9,2164.1,982.9,2151.8,982.9z M2131.9,919.7h41.5c-0.8-31.6-7.7-47.4-20.7-47.4C2139.3,872.2,2132.4,888,2131.9,919.7
			z M2173.5,928.1h-41.6c0.6,32.1,7.6,48.2,21.1,48.2C2166.5,976.3,2173.3,960.2,2173.5,928.1z"/>
	</g>
	<g clip-path="url(#SVGID_2_)">
		<path fill="#6D6E71" d="M999.6,974.7v-3c2.1-0.4,3.6-0.9,4.6-1.4c1-0.5,1.8-1.2,2.3-2.1c0.5-0.9,0.7-2.1,0.7-3.6
			c0-1.4-0.2-2.9-0.5-4.5c-0.3-1.6-0.8-3.5-1.4-5.5l-2.3-8h-28.8l-2.1,6.1c-1.1,3.1-1.8,5.4-2.1,6.9s-0.5,3-0.5,4.3
			c0,2.5,0.6,4.3,1.9,5.4c1.3,1.2,3.2,1.9,5.8,2.3v3h-26.4v-3c2.3-0.4,4.3-1.7,6-4c1.7-2.3,3.4-5.6,5-9.9l25.8-68.5h9.8l21,69
			c1,3.2,1.9,5.7,2.6,7.4c0.8,1.7,1.7,3,2.8,4c1.1,0.9,2.5,1.7,4.4,2.1v3H999.6z M975.8,941.3h25.9l-11.8-39.9L975.8,941.3z"/>
		<path fill="#6D6E71" d="M1036.8,974.7v-3c2.6-0.7,4.3-1.4,5.1-2.2c0.9-0.8,1.4-1.9,1.7-3.4c0.3-1.5,0.4-3.8,0.4-6.8v-53.5
			c0-2.8-0.1-4.9-0.3-6.2c-0.2-1.3-0.5-2.3-1-3c-0.5-0.7-1.1-1.3-1.9-1.7c-0.8-0.4-2.1-0.9-4-1.5v-3h33.8c6.6,0,11.8,0.7,15.8,2.1
			c4,1.4,6.9,3.5,8.9,6.2c1.9,2.7,2.9,6.3,2.9,10.6c0,3.6-0.7,6.7-2.1,9.3c-1.4,2.6-3.2,4.8-5.4,6.6c-2.2,1.7-5.1,3.3-8.6,4.8v0.6
			c5.6,1.7,9.9,4.3,12.7,7.8c2.9,3.5,4.3,7.7,4.3,12.6c0,5.6-1.2,10.2-3.7,13.7c-2.5,3.5-6,6.1-10.5,7.7c-4.5,1.6-9.9,2.4-16.3,2.4
			H1036.8z M1066.4,928.2c6.3,0,11.1-1.5,14.4-4.5s5-7.4,5-13.2c0-2.8-0.5-5.2-1.4-7.1c-0.9-1.9-2.2-3.4-3.8-4.5
			c-1.6-1.1-3.6-1.9-5.8-2.4c-2.2-0.5-4.6-0.7-7.2-0.7c-1.6,0-3.6,0-6.2,0.1c-2.6,0.1-4.5,0.2-5.8,0.2v32H1066.4z M1055.6,968.9
			c3,0.3,6.4,0.4,10.1,0.4c5.4,0,9.6-0.7,12.6-2s5.2-3.4,6.5-6c1.3-2.7,2-6,2-10c0-4-0.7-7.3-2.2-9.9c-1.5-2.6-3.7-4.5-6.8-5.8
			c-3.1-1.3-7.3-1.9-12.6-1.9h-9.6V968.9z"/>
		<path fill="#6D6E71" d="M1171.2,892.1v17.1h-6.1c-1-3.6-2.2-6.4-3.8-8.6c-1.5-2.1-3.3-3.6-5.3-4.5s-4.5-1.4-7.3-1.4
			c-4.2,0-8,1.4-11.4,4.2c-3.3,2.8-5.9,7.1-7.8,12.7c-1.9,5.7-2.8,12.5-2.8,20.6c0,8.1,0.8,15,2.4,20.7c1.6,5.7,3.9,10,6.9,12.9
			c3.1,2.9,6.8,4.4,11.3,4.4c3.4,0,6.1-0.5,8.3-1.5c2.1-1,3.9-2.5,5.4-4.6s2.9-5.2,4.2-9.3h6.1v17.7c-3.9,1-7.8,1.8-11.9,2.3
			c-4.1,0.5-8.5,0.8-13.4,0.8c-10.5,0-18.4-3.5-23.8-10.6c-5.4-7.1-8-17.7-8-31.7c0-8.8,1.4-16.6,4.2-23.2
			c2.8-6.6,6.9-11.8,12.3-15.4c5.4-3.6,11.9-5.4,19.4-5.4c3.8,0,7.2,0.2,10.4,0.6C1163.5,890.3,1167.1,891,1171.2,892.1z"/>
	</g>
</g>
</svg>
