<?xml version="1.0" encoding="utf-8"?>
<svg version="1.1" id="Layer_1" xmlns="http://www.w3.org/2000/svg" xmlns:xlink="http://www.w3.org/1999/xlink" x="0px" y="0px"
	 viewBox="0 0 2193.5505 1994.2324" enable-background="new 0 0 2193.5505 1994.2324" xml:space="preserve">
<g>
	<path d="M1769.824,1068.2899l10.8564,0.231l0.0005-371.9703c0-70.353-34.02-132.0911-74.2388-189.8147
		c-99.6162-142.9741-255.7607-188.662-404.4014-140.7861c-165.8411,53.4161-277.2617,209.1238-277.2617,383.3552v739.1737
		c0,52.952-17.5444,104.6348-50.7988,145.8423c-104.6948,129.7328-323.4988,120.9204-388.0974-62.3888
		c-8.4822-24.0695-12.5811-49.4658-12.5811-74.9862v-428.2001c0-17.5345,10.499-33.3969,26.678-40.1577
		c221.4778-92.5522,328.4146-271.3921,306.3054-547.446c2.1965-109.4067-57.0027-161.4447-166.4917-166.4916h-2.9998V130.1597
		c0-40.5909-32.9055-73.4963-73.4963-73.4963h-0.0002c-40.5908,0-73.4961,32.9054-73.4961,73.4963v184.4909H379.8115V130.1597
		c0-40.5909-32.9055-73.4963-73.4963-73.4963c-40.5911,0-73.4963,32.9054-73.4963,73.4963v184.4909H187.821
		C89.481,338.2234,57.8657,406.048,62.8213,508.1407c1.0669,21.9791,0,88.0204,0,88.0204
		c0,100.7253,34.5339,198.6736,98.8838,276.1638c61.6465,74.2346,140.9153,129.3895,238.6257,164.5994
		c17.3459,6.2506,28.978,22.6171,28.978,41.0547c0,0,0,324.5009,0,432.6677c0,9.0518,2.1567,17.8953,3.0249,26.9053
		c42.2168,438.1453,679.2168,442.1453,730.4678,4.5112c1.356-11.5786,4.4707-22.8866,4.4707-34.5443V739.5663
		c0-32.3102,6.3452-64.3529,19.063-94.0548c95.6421-223.3679,393.6016-210.8119,443.6235,25.1033
		c3.6021,16.9871,5.29,34.3267,5.29,51.6912v343.1216h0.0005c-214.4731,28.3756-379.9814,211.9375-379.9814,434.1636
		c0,241.8885,196.0894,437.978,437.978,437.978s437.978-196.0895,437.978-437.978
		C2131.2239,1283.8262,1975.2009,1104.507,1769.824,1068.2899z M1693.2458,1834.0742c-184.73,0-334.4834-149.7532-334.4834-334.4832
		s149.7534-334.4833,334.4834-334.4833s334.4834,149.7532,334.4834,334.4833S1877.9758,1834.0742,1693.2458,1834.0742z"/>
	<path d="M1638.0956,1259.1875h123.4559c19.5858,0,33.563,18.981,27.7498,37.6842l-49.6206,159.6492l83.7202,0.8088
		c21.9503,0.2122,33.9589,25.671,20.1619,42.7445l-213.0774,263.6775c-11.389,14.0935-33.7806,1.6013-27.7699-15.4929
		l62.9652-179.0713l-65.8334-1.4008c-15.17-0.3228-26.8334-13.5216-25.2791-28.6152
		c5.8195-56.5121,18.9181-183.9685,24.9856-245.0804C1601.5208,1274.2798,1618.1869,1259.1875,1638.0956,1259.1875z"/>
</g>
</svg>
