<?xml version="1.0" encoding="UTF-8" standalone="no"?>
<!-- Created with Inkscape (http://www.inkscape.org/) -->

<svg
   width="128.05833mm"
   height="128.05833mm"
   viewBox="0 0 128.05833 128.05833"
   version="1.1"
   id="svg5"
   xml:space="preserve"
   xmlns:inkscape="http://www.inkscape.org/namespaces/inkscape"
   xmlns:sodipodi="http://sodipodi.sourceforge.net/DTD/sodipodi-0.dtd"
   xmlns="http://www.w3.org/2000/svg"
   xmlns:svg="http://www.w3.org/2000/svg"><sodipodi:namedview
     id="namedview7"
     pagecolor="#ffffff"
     bordercolor="#cccccc"
     borderopacity="1"
     inkscape:showpageshadow="0"
     inkscape:pageopacity="1"
     inkscape:pagecheckerboard="0"
     inkscape:deskcolor="#d1d1d1"
     inkscape:document-units="mm"
     showgrid="false" /><defs
     id="defs2" /><g
     id="g4308"
     transform="translate(-39.422917,-66.145826)"><rect
       style="fill:#28a834;fill-opacity:0.75;fill-rule:evenodd;stroke:#000000;stroke-width:0;stroke-linecap:round;stroke-linejoin:round;stroke-dasharray:none"
       id="rect363"
       width="128.05833"
       height="128.05833"
       x="39.422916"
       y="66.145828"
       rx="5"
       ry="5" /><path
       style="fill:#ffffff;stroke-width:1"
       d="m 92.455341,158.5433 c -0.0303,-0.0517 -0.08928,-0.50746 -0.131047,-1.01278 -0.04176,-0.50532 -0.125895,-1.28052 -0.186936,-1.72268 -0.06104,-0.44215 -0.21249,-1.73416 -0.336553,-2.87112 -0.124059,-1.13697 -0.358455,-3.10082 -0.520876,-4.36411 -0.162421,-1.2633 -0.373309,-2.94121 -0.468633,-3.72871 -0.09533,-0.7875 -0.196321,-1.45481 -0.22443,-1.48292 -0.02808,-0.0281 -0.477692,0.0679 -0.999076,0.21347 -0.521384,0.14551 -1.077172,0.27017 -1.235087,0.27704 -0.267242,0.0116 -0.289513,-0.0292 -0.321816,-0.5902 -0.03091,-0.53688 -0.0059,-0.61475 0.229691,-0.7134 0.535313,-0.22422 3.647974,-0.94965 3.809218,-0.88777 0.116675,0.0448 0.187866,0.33298 0.237526,0.96162 0.251334,3.18155 1.070752,10.03983 1.683258,14.08836 0.132415,0.87522 0.197146,1.63172 0.143852,1.6811 -0.140349,0.13004 -1.613804,0.26352 -1.679091,0.1521 z m 16.096309,-4.35988 c -0.0895,-0.10786 0.032,-0.77946 0.4483,-2.47744 0.3141,-1.2812 0.70567,-2.89794 0.87014,-3.59275 0.16447,-0.69481 0.48286,-2.0385 0.70753,-2.98597 0.62539,-2.63731 0.84472,-3.56462 1.16804,-4.93834 0.16354,-0.69481 0.391,-1.64903 0.50548,-2.12049 0.11447,-0.47146 0.18379,-0.88156 0.15402,-0.91133 -0.0298,-0.0298 -0.84129,0.0569 -1.80338,0.19259 -2.1286,0.30023 -2.13292,0.29835 -1.79758,-0.77914 0.12765,-0.41016 0.26827,-0.78058 0.31248,-0.82316 0.0442,-0.0426 0.75223,-0.15757 1.57337,-0.25553 0.82114,-0.098 2.15238,-0.26679 2.95829,-0.37519 0.95889,-0.12896 1.50428,-0.1581 1.57808,-0.0843 0.0738,0.0738 -0.0257,0.64698 -0.28806,1.65848 -0.48311,1.86301 -1.61848,6.44432 -1.83461,7.4028 -0.5906,2.61918 -0.77566,3.45135 -1.18756,5.3403 -0.25481,1.16854 -0.57688,2.6793 -0.71571,3.35722 -0.13883,0.67794 -0.31047,1.27905 -0.38142,1.33581 -0.22282,0.17827 -2.12696,0.22567 -2.26741,0.0564 z m -14.600257,-5.8161 c -0.23687,-0.20292 -0.430669,-0.42324 -0.430669,-0.48961 4e-6,-0.0664 0.245487,-0.23932 0.545517,-0.38434 0.459691,-0.22218 2.253687,-1.20326 10.474139,-5.72795 l 0.74104,-0.40787 -0.62619,-0.56243 c -0.47386,-0.42562 -3.70792,-3.15851 -4.00574,-3.385 -0.0949,-0.0722 0.61094,-0.72397 0.78397,-0.72397 0.0963,0 0.38382,0.20113 0.63887,0.44695 0.25505,0.24582 1.49734,1.33422 2.76063,2.41866 1.26329,1.08444 2.31243,2.0152 2.33142,2.06837 0.0307,0.086 -0.89618,0.62281 -3.47987,2.01525 -0.44216,0.2383 -1.26904,0.70194 -1.83752,1.03033 -0.56848,0.32839 -1.52457,0.86964 -2.124628,1.20279 -0.60007,0.33315 -1.950409,1.11662 -3.000764,1.74105 -1.050351,0.62443 -2.006437,1.13339 -2.124632,1.13101 -0.118194,-0.002 -0.408702,-0.17033 -0.645573,-0.37324 z m -5.311577,-8.36282 c -1.817321,-0.16698 -6.241164,-0.44723 -7.059857,-0.44723 -0.705325,0 -0.799955,-0.0265 -0.868732,-0.24318 -0.05204,-0.16396 -0.0078,-0.30816 0.135818,-0.44263 0.117152,-0.10969 0.574764,-0.5266 1.016919,-0.92647 1.002279,-0.90644 4.621205,-4.33608 6.354606,-6.02224 1.482271,-1.44188 2.695594,-2.83255 3.221952,-3.6929 1.137658,-1.85955 1.079524,-3.87748 -0.142623,-4.95054 -0.792754,-0.69605 -1.045021,-0.77661 -2.428391,-0.77552 -1.13126,8.7e-4 -1.339444,0.0345 -1.991896,0.32183 -0.400729,0.17647 -1.008751,0.50685 -1.351159,0.7342 -0.342408,0.22735 -0.658938,0.37698 -0.703394,0.33252 -0.04446,-0.0444 0.06869,-0.52122 0.251438,-1.05946 0.332259,-0.97861 0.33229,-0.97864 0.972615,-1.29632 2.557181,-1.26863 5.574956,-0.90112 7.128369,0.86812 0.872921,0.99421 1.255948,2.76238 0.930399,4.29504 -0.197597,0.93028 -0.94616,2.34987 -1.805385,3.42377 -0.662679,0.82824 -4.941576,4.9892 -7.351468,7.14883 -0.450814,0.404 -0.784702,0.77276 -0.741973,0.81946 0.04271,0.0467 1.776854,0.16303 3.853614,0.25853 2.076759,0.0955 3.799638,0.19733 3.82862,0.22632 0.02899,0.029 -0.09455,0.39068 -0.274512,0.80378 l -0.327212,0.75109 -0.807069,-0.016 c -0.443891,-0.009 -1.272195,-0.0587 -1.840679,-0.11098 z m 25.897544,-5.96444 c -1.48174,-0.19652 -3.52236,-1.03965 -3.71193,-1.53367 -0.0602,-0.1568 0.55527,-1.56249 0.68409,-1.56249 0.0393,0 0.27824,0.18682 0.53097,0.41515 1.34232,1.2127 3.78509,1.63498 5.36909,0.92813 1.75433,-0.78285 3.11731,-2.86109 3.14053,-4.78863 0.009,-0.73852 -0.0354,-0.94472 -0.31071,-1.44614 -0.1766,-0.32164 -0.53523,-0.74938 -0.79695,-0.95053 -0.6522,-0.50127 -1.79536,-0.84337 -2.66561,-0.79771 -0.61923,0.0325 -0.69246,0.0125 -0.72248,-0.19718 -0.0217,-0.15121 0.09,-0.32456 0.31715,-0.49252 0.31574,-0.23344 3.53937,-2.96434 3.67841,-3.11618 0.0316,-0.0345 0.54839,-0.50194 1.14845,-1.03879 0.60007,-0.53684 1.2406,-1.11245 1.42341,-1.27912 l 0.33237,-0.30303 -0.50464,-0.0772 c -0.27755,-0.0425 -0.94393,-0.14876 -1.48083,-0.23621 -0.5369,-0.0875 -1.71118,-0.24837 -2.60952,-0.35759 -0.89834,-0.10923 -1.69844,-0.23883 -1.778,-0.288 -0.11031,-0.0682 -0.0691,-0.24354 0.17371,-0.73856 0.30217,-0.61611 0.33714,-0.6465 0.68697,-0.59707 0.20273,0.0286 1.14381,0.16661 2.09128,0.30658 2.07918,0.30716 5.30782,0.77106 6.05539,0.87006 0.29856,0.0395 0.57739,0.1278 0.61963,0.19613 0.0423,0.0684 -0.14999,0.3107 -0.42751,0.53888 -0.27737,0.22805 -1.23112,1.06064 -2.11946,1.8502 -0.88834,0.78956 -2.26778,1.9782 -3.06543,2.64143 -0.79765,0.66323 -1.4535,1.26229 -1.45743,1.33125 -0.004,0.069 0.20778,0.18977 0.47047,0.26848 0.60465,0.18116 1.22963,0.57442 1.72739,1.08695 2.17831,2.24293 0.82757,6.89126 -2.53419,8.72096 -1.04901,0.57094 -2.81522,0.83866 -4.26462,0.64643 z m -14.757578,-2.98863 c -0.47837,-0.14086 -0.96055,-0.62161 -1.24902,-1.2453 -0.214437,-0.46364 -0.243966,-0.73598 -0.243966,-2.25016 0,-1.49427 0.03464,-1.82291 0.261376,-2.47868 0.51198,-1.48085 1.496508,-2.07203 2.832808,-1.70102 0.50691,0.14074 1.01398,0.62376 1.30323,1.24143 0.15683,0.33492 0.19183,0.765 0.1877,2.30663 -0.005,1.69708 -0.0326,1.96487 -0.26837,2.56471 -0.55576,1.41376 -1.51883,1.94663 -2.823758,1.56239 z m 1.271048,-0.99302 c 0.3481,-0.34811 0.51798,-0.94425 0.6484,-2.27537 0.23132,-2.36101 -0.11658,-3.61499 -1.00291,-3.61499 -0.810778,0 -1.222018,1.14848 -1.233668,3.44535 -0.008,1.5631 0.0779,2.02046 0.45777,2.44024 0.233428,0.25793 0.874538,0.26064 1.130408,0.005 z m -5.550203,-9.24511 c -0.170117,-0.20499 -0.304884,-0.77967 -0.182835,-0.77967 0.05461,0 0.744973,-0.075 1.534146,-0.16672 0.789172,-0.0917 2.230734,-0.24588 3.203472,-0.34263 0.97275,-0.0968 1.79547,-0.20276 1.82829,-0.23557 0.0328,-0.0328 -0.0629,-0.32134 -0.21269,-0.64116 -0.23184,-0.49499 -0.24756,-0.59742 -0.10561,-0.68859 0.32955,-0.21167 0.5196,-0.0341 1.05261,0.98364 0.29773,0.56848 0.54321,1.06772 0.54551,1.10943 0.002,0.0417 -0.44801,0.10817 -1.00071,0.14772 -0.55269,0.0395 -1.62505,0.14608 -2.383028,0.23676 -0.75798,0.0907 -1.869103,0.21872 -2.469169,0.28453 -0.600062,0.0658 -1.224913,0.14709 -1.388549,0.18061 -0.173263,0.0355 -0.349279,-0.001 -0.421437,-0.0884 z m -8.468638,-3.66257 c -0.315826,-0.0641 -0.961829,-0.30235 -1.435566,-0.52949 -1.776815,-0.85195 -3.03436,-2.6683 -3.508497,-5.06753 -0.194589,-0.98465 -0.219417,-3.35402 -0.04541,-4.33292 0.144612,-0.81349 0.637422,-2.17009 0.874427,-2.4071 0.170663,-0.17066 1.64052,-0.25121 1.793448,-0.0983 0.03907,0.0391 -0.134176,0.47912 -0.384963,0.97791 -2.090167,4.15713 -0.413451,9.02767 3.318053,9.63831 1.141174,0.18675 2.465812,-0.15283 3.372693,-0.86461 0.692876,-0.54382 1.238633,-1.45592 1.47263,-2.46115 0.220711,-0.94816 0.09182,-2.74048 -0.275602,-3.83241 -0.328661,-0.97673 -0.353021,-1.11732 -0.193625,-1.11732 0.05868,0 1.23431,0.68212 2.612523,1.51583 3.779728,2.28642 6.06076,3.54768 6.1006,3.37324 0.0309,-0.13514 -0.20442,-2.24734 -0.738338,-6.62839 -0.10505,-0.86188 -0.15916,-1.65001 -0.12026,-1.75139 0.0862,-0.2246 1.277328,-0.26581 1.411428,-0.0488 0.0461,0.0745 0.19862,1.22441 0.33903,2.5553 0.41142,3.8998 0.63659,5.88295 0.84651,7.45561 0.21903,1.64093 0.17826,1.76787 -0.44266,1.37841 -0.89998,-0.56449 -5.427983,-3.26409 -6.009805,-3.58304 -0.363195,-0.1991 -0.95057,-0.52426 -1.30527,-0.72256 l -0.644913,-0.36055 0.07848,0.79122 c 0.208461,2.1018 -0.679525,4.10373 -2.321313,5.23331 -1.120678,0.77105 -3.33967,1.18138 -4.793601,0.88643 z m 17.817741,-1.53315 c -0.21123,-0.19576 -0.30389,-0.39807 -0.30389,-0.66352 0,-0.42765 0.12296,-0.6336 1.00184,-1.67814 1.14259,-1.35796 1.149,-1.38127 1.75645,-6.39204 0.12252,-1.01064 0.27899,-2.21157 0.34772,-2.66874 0.0687,-0.45718 0.0926,-0.88354 0.0531,-0.94748 -0.11085,-0.17935 -2.23616,-0.14108 -2.87709,0.0518 -0.30713,0.0924 -0.58259,0.14388 -0.61214,0.11432 -0.11186,-0.11186 0.66209,-0.92802 1.19348,-1.25856 l 0.55388,-0.34453 5.7227,-0.0328 5.72271,-0.0328 v 0.69029 0.6903 l -1.86623,0.0316 -1.86624,0.0316 -0.14061,1.14845 c -0.0773,0.63164 -0.17394,2.54381 -0.21467,4.24926 -0.0708,2.96549 -0.0635,3.13061 0.16851,3.78357 0.51865,1.45993 1.88499,2.22646 3.07922,1.72748 0.22875,-0.0956 0.43754,-0.15214 0.46398,-0.12569 0.0785,0.0785 -0.49063,0.90733 -0.84553,1.23131 -0.85853,0.78375 -2.14214,0.74013 -2.75566,-0.0936 -1.24662,-1.69416 -1.34432,-3.50054 -0.55464,-10.2548 0.0923,-0.78917 0.16776,-1.50084 0.16776,-1.5815 0,-0.11515 -0.49939,-0.13996 -2.32561,-0.11554 l -2.32561,0.0311 -0.0777,0.68907 c -0.0428,0.37899 -0.16348,1.56764 -0.26827,2.64144 -0.24716,2.53262 -0.78346,6.26193 -1.09364,7.60489 -0.21147,0.91559 -0.29814,1.10579 -0.64102,1.40685 -0.50261,0.4413 -1.03236,0.46538 -1.46276,0.0665 z m 14.94246,-1.16284 c -0.0405,-0.0405 0.0327,-0.33926 0.16259,-0.66398 0.33256,-0.83141 0.94908,-2.44856 1.4729,-3.86349 0.4474,-1.20851 1.69645,-4.48908 1.93488,-5.08189 l 0.12703,-0.31583 h -2.41584 -2.41583 l 0.0356,-0.43067 0.0356,-0.43066 2.98597,0.0406 c 1.64228,0.0224 3.00327,0.0569 3.02442,0.0767 0.0211,0.0198 -0.17755,0.59587 -0.44155,1.28006 -0.7998,2.07271 -2.04578,5.50179 -2.69986,7.4303 -0.33992,1.00222 -0.63353,1.8354 -0.65248,1.85152 -0.0925,0.0787 -1.08939,0.17138 -1.15352,0.10725 z"
       id="path255" /><g
       id="g4179"
       transform="matrix(0.04850212,0,0,-0.04850212,47.650673,94.430734)"
       style="fill:#ffffff;stroke-width:0.727345"><path
         d="m 610.695,183.461 34.125,-10.809 c -5.238,-19.047 -13.929,-33.183 -26.121,-42.445 -12.148,-9.227 -27.621,-13.852 -46.351,-13.852 -23.157,0 -42.211,7.918 -57.114,23.723 -14.91,15.848 -22.386,37.492 -22.386,64.914 0,29.047 7.515,51.594 22.507,67.676 14.989,16.051 34.692,24.094 59.149,24.094 21.328,0 38.672,-6.293 51.996,-18.93 7.961,-7.437 13.891,-18.16 17.875,-32.133 l -34.895,-8.328 c -2.035,9.055 -6.339,16.211 -12.917,21.445 -6.543,5.243 -14.504,7.848 -23.852,7.848 -12.914,0 -23.438,-4.641 -31.481,-13.937 -8.042,-9.262 -12.066,-24.297 -12.066,-45.094 0,-22.059 3.941,-37.785 11.902,-47.121 7.922,-9.387 18.243,-14.055 30.918,-14.055 9.383,0 17.43,2.965 24.168,8.941 6.746,5.922 11.582,15.313 14.543,28.063 z m 64.391,-64.137 V 293.797 H 804.43 v -29.539 h -94.125 v -38.672 h 87.586 V 196.219 H 710.305 V 148.73 h 97.453 v -29.406 z m 162.781,0 V 293.797 H 957.5 v -29.539 h -84.371 v -41.27 h 72.836 v -29.531 h -72.836 v -74.133 z m 148.68,0 v 174.473 h 129.343 v -29.539 h -94.12 v -38.672 h 87.58 v -29.367 h -87.58 V 148.73 h 97.46 v -29.406 z m 201.813,0 v 144.934 h -51.75 v 29.539 h 138.65 v -29.539 h -51.63 V 119.324 Z m 91.53,-2.969 43.23,180.407 h 25.1 l -43.67,-180.407 z m 85.92,2.969 v 174.473 h 74.18 c 18.65,0 32.17,-1.582 40.62,-4.711 8.46,-3.129 15.24,-8.691 20.32,-16.699 5.07,-8.047 7.59,-17.184 7.59,-27.5 0,-13.086 -3.86,-23.926 -11.54,-32.461 -7.67,-8.485 -19.21,-13.895 -34.52,-16.09 7.63,-4.465 13.93,-9.344 18.88,-14.66 4.96,-5.324 11.62,-14.75 20.04,-28.317 l 21.32,-34.035 h -42.13 l -25.46,37.981 c -9.07,13.566 -15.24,22.097 -18.57,25.629 -3.33,3.535 -6.87,5.933 -10.61,7.273 -3.73,1.297 -9.62,1.953 -17.75,1.953 h -7.11 v -72.836 z m 35.26,100.703 h 26.05 c 16.89,0 27.46,0.692 31.68,2.11 4.18,1.422 7.47,3.898 9.87,7.394 2.36,3.489 3.58,7.84 3.58,13.078 0,5.887 -1.59,10.602 -4.71,14.219 -3.13,3.613 -7.56,5.891 -13.29,6.867 -2.84,0.364 -11.42,0.563 -25.71,0.563 h -27.47 z m 203.61,73.77 h 35.14 V 183.34 c 0,-14.422 -1.3,-25.551 -3.82,-33.305 -3.41,-10.164 -9.59,-18.328 -18.57,-24.465 -8.97,-6.172 -20.79,-9.215 -35.46,-9.215 -17.22,0 -30.47,4.79 -39.77,14.461 -9.26,9.622 -13.97,23.766 -14.02,42.414 l 33.19,3.813 c 0.41,-9.992 1.88,-17.059 4.39,-21.207 3.82,-6.25 9.63,-9.379 17.38,-9.379 7.85,0 13.42,2.227 16.66,6.738 3.26,4.469 4.88,13.778 4.88,27.91 v 112.692"
         style="fill:#ffffff;fill-opacity:1;fill-rule:nonzero;stroke:none;stroke-width:0.727345"
         id="path4181" /><path
         d="M 140.184,407.75 105.836,307.27 H 4.92578 C 33.1953,361.785 81.5,395.277 140.184,407.75 Z m 19.32,0.023 176.797,0.586 c 49.773,-20.836 43.59,-72.195 34.679,-97.281 L 370.688,310.816 224.992,310.473 119.789,5.82031 C 65.1719,21.6719 43.9688,70.7695 55.3789,110.574 Z M 228.77,259.785 h 98.609 c 16.109,-2.273 17.805,-13.449 17.629,-20.988 l -23.442,-63.059 c -4.105,-7.492 -14.488,-17.519 -29.062,-19.195 H 190.637 Z m -58.528,-158.828 126.555,0.879 C 244.926,22.3086 162.762,4.22656 136.965,4.75 l 33.277,96.207"
         style="fill:#ffffff;fill-opacity:1;fill-rule:evenodd;stroke:none;stroke-width:0.727345"
         id="path4183" /></g><text
       xml:space="preserve"
       style="font-size:5.64444px;line-height:1.25;font-family:sans-serif;-inkscape-font-specification:sans-serif;letter-spacing:0px;fill:#ffffff;stroke-width:0.264583"
       x="65.044495"
       y="170.46712"
       id="text4246"><tspan
         sodipodi:role="line"
         id="tspan4244"
         style="font-size:5.64444px;fill:#ffffff;stroke-width:0.264583"
         x="65.044495"
         y="170.46712">Seu cartão foi enviado para a</tspan><tspan
         sodipodi:role="line"
         style="font-size:5.64444px;fill:#ffffff;stroke-width:0.264583"
         x="65.044495"
         y="177.52267"
         id="tspan4298">coordenação da OBMEP</tspan></text></g></svg>
