<?xml version="1.0" encoding="UTF-8" standalone="no"?>
<!-- Created with Inkscape (http://www.inkscape.org/) -->

<svg
   version="1.1"
   id="svg2"
   xml:space="preserve"
   width="878.81335"
   height="880.14667"
   viewBox="0 0 878.81335 880.14667"
   xmlns="http://www.w3.org/2000/svg"
   xmlns:svg="http://www.w3.org/2000/svg"><defs
     id="defs6" /><g
     id="g8"
     transform="matrix(1.3333333,0,0,-1.3333333,0,880.14667)"><path
       d="M 0,0 H 659.107 V 660.105 H 0 V 0"
       style="fill:#008080;fill-opacity:1;fill-rule:evenodd;stroke:none;stroke-width:0.1"
       id="path12" /><path
       d="M 659.107,234.343 V 123.685 L 0,300.56 V 411.218 L 659.107,234.343"
       style="fill:#43a8ae;fill-opacity:1;fill-rule:evenodd;stroke:none;stroke-width:0.1"
       id="path14" /><path
       d="m 350.438,88.4891 c -16.213,6.4347 -29.228,24.0759 -10.018,36.6979 9.051,5.948 16.269,9.031 25.447,15.925 16.869,12.67 36.18,25.319 53.68,37.443 31.92,22.117 63.844,44.239 95.764,66.357 13.832,9.585 27.666,19.17 41.498,28.755 l 1.593,1.104 100.705,-31.681 v -63.71 c -13.502,-6.527 -28.82,-12.62 -40.425,-18.762 -11.01,-5.824 -20.76,-13.242 -31.93,-18.303 -13.504,-5.87 -26.863,-10.53 -40.588,-16.773 -16.609,-7.555 -29.535,-13.714 -43.961,-25.387 C 493.135,92.818 487.361,89.3031 476.375,85.0852 439.629,71.4051 386.82,74.443 350.438,88.4891"
       style="fill:#ace4e8;fill-opacity:1;fill-rule:evenodd;stroke:none;stroke-width:0.1"
       id="path16" /><path
       d="m 429.342,185.343 85.969,59.569 29.148,20.198 114.648,-30.767 V 179.38 c -13.502,-6.527 -28.82,-12.62 -40.425,-18.762 -10.653,-5.636 -20.129,-12.766 -30.852,-17.804 l -158.488,42.529"
       style="fill:#7fd4d3;fill-opacity:1;fill-rule:evenodd;stroke:none;stroke-width:0.1"
       id="path18" /><path
       d="M 340.539,108.003 567.9,194.067 603.938,181.133 434.059,82.9051 340.539,108.003"
       style="fill:#688585;fill-opacity:1;fill-rule:evenodd;stroke:none;stroke-width:0.1"
       id="path20" /><path
       d="m 376.576,140.946 123.395,71.349 67.929,-18.228 -123.394,-71.351 -67.93,18.23"
       style="fill:#536b6d;fill-opacity:1;fill-rule:evenodd;stroke:none;stroke-width:0.1"
       id="path22" /><path
       d="m 395.105,300.187 v -155.57 l 48.963,-13.139 v 163.481 l -48.963,5.228"
       style="fill:#354042;fill-opacity:1;fill-rule:evenodd;stroke:none;stroke-width:0.1"
       id="path24" /><path
       d="m 395.105,277.218 48.963,-42.247 v 47.321 l -48.963,13.139 v -18.213"
       style="fill:#283031;fill-opacity:1;fill-rule:evenodd;stroke:none;stroke-width:0.1"
       id="path26" /><path
       d="m 444.068,131.478 99.518,57.544 V 317.14 L 444.068,282.292 V 131.478"
       style="fill:#283031;fill-opacity:1;fill-rule:evenodd;stroke:none;stroke-width:0.1"
       id="path28" /><path
       d="m 444.068,234.971 99.518,-10.661 v 31.275 l -99.518,26.707 v -47.321"
       style="fill:#1a1d1c;fill-opacity:1;fill-rule:evenodd;stroke:none;stroke-width:0.1"
       id="path30" /><path
       d="M 659.107,397.389 V 352.445 L 0,529.319 v 44.946 L 659.107,397.389"
       style="fill:#bbd8d3;fill-opacity:1;fill-rule:evenodd;stroke:none;stroke-width:0.1"
       id="path32" /><path
       d="M 659.107,386.177 V 341.231 L 0,518.105 v 44.946 L 659.107,386.177"
       style="fill:#536b6d;fill-opacity:1;fill-rule:evenodd;stroke:none;stroke-width:0.1"
       id="path34" /><path
       d="m 25.0586,177.116 c -16.2129,6.437 -29.22618,24.075 -10.0191,36.698 9.0535,5.948 16.273,9.031 25.4523,15.924 16.866,12.67 36.1777,25.32 53.6766,37.443 31.9206,22.12 63.8416,44.239 95.7646,66.358 13.833,9.585 27.665,19.168 41.498,28.753 l 1.595,1.107 173.425,-54.563 c -18.763,-9.53 -36.594,-17.962 -53.781,-30.122 -15.348,-10.855 -41.673,-20.108 -59.365,-29.469 -11.009,-5.824 -20.763,-13.244 -31.93,-18.302 -13.508,-5.872 -26.865,-10.531 -40.588,-16.774 -16.611,-7.555 -29.536,-13.713 -43.962,-25.387 -9.068,-7.337 -14.841,-10.853 -25.827,-15.068 -36.746,-13.683 -89.5562,-10.645 -125.9394,3.402"
       style="fill:#ace4e8;fill-opacity:1;fill-rule:evenodd;stroke:none;stroke-width:0.1"
       id="path36" /><path
       d="m 102.602,273.027 87.331,60.512 27.787,19.253 180.073,-48.324 c -15.617,-7.865 -30.598,-15.478 -45.123,-25.754 -15.348,-10.855 -41.673,-20.108 -59.365,-29.469 -11.009,-5.824 -20.763,-13.244 -31.93,-18.302 l -0.748,-0.324 -158.025,42.408"
       style="fill:#7fd4d3;fill-opacity:1;fill-rule:evenodd;stroke:none;stroke-width:0.1"
       id="path38" /><path
       d="M 15.1609,196.629 242.521,282.694 278.558,269.759 108.681,171.533 15.1609,196.629"
       style="fill:#688585;fill-opacity:1;fill-rule:evenodd;stroke:none;stroke-width:0.1"
       id="path40" /><path
       d="m 51.198,229.572 123.394,71.35 67.929,-18.228 -123.392,-71.351 -67.931,18.229"
       style="fill:#536b6d;fill-opacity:1;fill-rule:evenodd;stroke:none;stroke-width:0.1"
       id="path42" /><path
       d="M 69.7281,388.813 V 233.244 l 48.9619,-13.14 v 163.482 l -48.9619,5.227"
       style="fill:#354042;fill-opacity:1;fill-rule:evenodd;stroke:none;stroke-width:0.1"
       id="path44" /><path
       d="M 69.7281,365.846 118.69,323.597 v 47.321 l -48.9619,13.14 v -18.212"
       style="fill:#283031;fill-opacity:1;fill-rule:evenodd;stroke:none;stroke-width:0.1"
       id="path46" /><path
       d="m 118.69,220.104 99.518,57.545 V 405.767 L 118.69,370.918 V 220.104"
       style="fill:#283031;fill-opacity:1;fill-rule:evenodd;stroke:none;stroke-width:0.1"
       id="path48" /><path
       d="m 118.69,323.597 99.518,-10.661 v 31.276 l -99.518,26.706 v -47.321"
       style="fill:#1a1d1c;fill-opacity:1;fill-rule:evenodd;stroke:none;stroke-width:0.1"
       id="path50" /><path
       d="m 15.1609,196.629 36.0371,32.943 67.931,-18.229 -10.448,-39.81 -93.5201,25.096"
       style="fill:#819b9a;fill-opacity:1;fill-rule:evenodd;stroke:none;stroke-width:0.1"
       id="path52" /><path
       d="M 659.107,359.257 V 248.599 L 0,425.475 V 536.132 L 659.107,359.257"
       style="fill:#769797;fill-opacity:1;fill-rule:evenodd;stroke:none;stroke-width:0.1"
       id="path54" /><path
       d="M 659.107,270.949 V 226.004 L 0,402.879 v 44.945 L 659.107,270.949"
       style="fill:#bbd8d3;fill-opacity:1;fill-rule:evenodd;stroke:none;stroke-width:0.1"
       id="path56" /><path
       d="M 659.107,259.737 V 214.792 L 0,391.666 v 44.945 L 659.107,259.737"
       style="fill:#536b6d;fill-opacity:1;fill-rule:evenodd;stroke:none;stroke-width:0.1"
       id="path58" /><path
       d="m 340.539,108.003 36.037,32.943 67.93,-18.23 -10.447,-39.8109 -93.52,25.0979"
       style="fill:#819b9a;fill-opacity:1;fill-rule:evenodd;stroke:none;stroke-width:0.1"
       id="path60" /><path
       d="m 602.654,324.685 56.453,-15.15 v -5.606 l -60.867,16.335 z m -69.291,18.594 54.448,-14.61 -4.418,-4.42 -54.444,14.609 z m -69.287,18.594 54.444,-14.611 -4.416,-4.42 -54.444,14.61 z m -69.291,18.593 54.445,-14.61 -4.416,-4.421 -54.445,14.611 z m -69.287,18.594 54.441,-14.609 -4.414,-4.422 -54.443,14.61 z m -69.29,18.595 54.444,-14.611 -4.416,-4.421 -54.444,14.61 z m -69.29,18.595 54.444,-14.612 -4.414,-4.421 -54.444,14.611 z m -69.288,18.593 54.444,-14.61 -4.415,-4.421 -54.444,14.609 z m -69.2894,18.595 54.4444,-14.61 -4.4159,-4.423 -54.4437,14.61 z M 0,480.803 v 5.607 L 33.4949,477.422 29.0813,473 0,480.803 v 0"
       style="fill:#ffffff;fill-opacity:1;fill-rule:evenodd;stroke:none;stroke-width:0.1"
       id="path62" /><path
       d="M 67.4922,660.105 V 553.168 c 0,-3.317 -9.9414,-3.319 -9.9414,0 V 660.105 Z M 567.334,594.296 c 0,1.063 1.023,1.786 2.408,2.167 v 16.344 c 0,12.712 -9.527,25.048 -27.736,20.098 -4.924,-1.34 -7.395,-2.727 -9.945,-7.153 -6.936,-12.029 -19.752,-19.439 -33.62,-19.439 -1.783,0 -3.431,0.952 -4.32,2.498 -0.892,1.545 -0.892,3.45 0,4.995 6.533,11.335 18.609,18.316 31.676,18.316 3.928,0 7.785,1.035 11.183,3.003 7.784,4.499 17.372,4.499 25.159,0 7.781,-4.501 12.574,-12.818 12.574,-21.819 v -16.802 c 1.467,-0.371 2.562,-1.106 2.562,-2.208 V 417.197 c 0,-3.318 -9.941,-3.319 -9.941,0 z m -244.95,65.809 V 485.183 c 0,-3.318 -9.941,-3.319 -9.941,0 v 174.922 h 9.941 v 0"
       style="fill:#ffffff;fill-opacity:1;fill-rule:evenodd;stroke:none;stroke-width:0.1"
       id="path64" /></g></svg>
