<?xml version="1.0" encoding="UTF-8" standalone="no"?>
<svg
   viewBox="0 0 715.96 968.47"
   version="1.1"
   id="svg97"
   sodipodi:docname="Ilustra-eventos-v2.svg"
   inkscape:version="1.1.2 (0a00cf5339, 2022-02-04)"
   xmlns:inkscape="http://www.inkscape.org/namespaces/inkscape"
   xmlns:sodipodi="http://sodipodi.sourceforge.net/DTD/sodipodi-0.dtd"
   xmlns="http://www.w3.org/2000/svg"
   xmlns:svg="http://www.w3.org/2000/svg"
   xmlns:rdf="http://www.w3.org/1999/02/22-rdf-syntax-ns#"
   xmlns:cc="http://creativecommons.org/ns#"
   xmlns:dc="http://purl.org/dc/elements/1.1/"
   xmlns:ns10="http://www.iki.fi/pav/software/textext/">
  <sodipodi:namedview
     id="namedview99"
     pagecolor="#ffffff"
     bordercolor="#cccccc"
     borderopacity="1"
     inkscape:pageshadow="0"
     inkscape:pageopacity="1"
     inkscape:pagecheckerboard="0"
     showgrid="false"
     inkscape:zoom="0.74240815"
     inkscape:cx="357.62"
     inkscape:cy="484.23499"
     inkscape:window-width="1920"
     inkscape:window-height="1046"
     inkscape:window-x="0"
     inkscape:window-y="34"
     inkscape:window-maximized="1"
     inkscape:current-layer="svg97" />
  <defs
     id="defs7">
    <style
       id="style2">.cls-1{fill:none;clip-rule:evenodd;}.cls-2{fill:#d6d6d6;}.cls-3{fill:#ece7f2;}.cls-4{fill:#f39300;}.cls-5{fill:#21387c;}.cls-11,.cls-5,.cls-6,.cls-7{fill-rule:evenodd;}.cls-6,.cls-8{fill:#fff;}.cls-10,.cls-7{fill:#191919;}.cls-9{clip-path:url(#clip-path);}</style>
    <clipPath
       id="clip-path">
      <path
         class="cls-1"
         d="M336.53,197.27s-10,1.5-24.25-10.2-14.5-14.52-15.41-20.39.23-14.73.23-14.73L280.78,224s-18.47-48.87-29.24-57.34-23.31-13.77-41.24-14.5-29-1.37-29-1.37,7.26-11.74,1.36-13.36-59.15-6.36-59.15-6.36-8.26-5.26-9.52,1.82-1.13,17.9-1.13,17.9-39.25-2.87-57.11,7.26-22.67,30.75-29.69,60.74S8.63,327.9,10.19,336s7.93,31.92,34.67,28.32,62.32-41,62.32-41a216.75,216.75,0,0,1,1.82,28.1c.08,16.61-.23,39.66-.23,39.66L245.2,402.83V256.2l24,39s29,27.95,43.51,6.34,28.11-105.83,28.11-105.83Zm-266.74,92,7-27L88.15,278Zm59.4-54.89c2.51,6.69,4.15,22.66,4.15,22.66L122.4,269.64l12.82,1.7,1.79,9.38-12.38,7A93.57,93.57,0,0,1,126,299.93c0,4.55-4.3,11.11-4.3,11.11s-3.35,3.39-7.71,2.72-13.93-10-18.36-22S95,273.2,95,273.2l5.89-6.12s-1.4-21.28-.68-35.81,12.46-17.68,12.46-17.68l5.26-1.07,5.37,6.71s-9.14,8.64-7.3,12.85S128.06,231.39,129.19,234.4Z"
         id="path4" />
    </clipPath>
  </defs>
  <title
     id="title9">Ilustra-eventos-v2</title>
  <path
     class="cls-2"
     d="m 650.26,407.61 a 6.3,6.3 0 0 1 -6.3,-6.3 V 150.55 a 6.31,6.31 0 1 1 12.61,0 v 250.76 a 6.3,6.3 0 0 1 -6.31,6.3 z"
     id="path11" />
  <path
     class="cls-2"
     d="m 397.46,407.61 a 6.31,6.31 0 0 1 -6.31,-6.3 V 150.55 a 6.31,6.31 0 0 1 12.62,0 v 250.76 a 6.31,6.31 0 0 1 -6.31,6.3 z"
     id="path13" />
  <path
     class="cls-2"
     d="m 460.66,407.61 a 6.3,6.3 0 0 1 -6.3,-6.3 V 150.55 a 6.31,6.31 0 1 1 12.61,0 v 250.76 a 6.3,6.3 0 0 1 -6.31,6.3 z"
     id="path15" />
  <path
     class="cls-2"
     d="m 523.86,407.61 a 6.3,6.3 0 0 1 -6.3,-6.3 V 150.55 a 6.31,6.31 0 1 1 12.61,0 v 250.76 a 6.3,6.3 0 0 1 -6.31,6.3 z"
     id="path17" />
  <path
     class="cls-2"
     d="m 587.06,407.61 a 6.3,6.3 0 0 1 -6.3,-6.3 V 150.55 a 6.31,6.31 0 1 1 12.61,0 v 250.76 a 6.3,6.3 0 0 1 -6.31,6.3 z"
     id="path19" />
  <path
     class="cls-2"
     d="m 340.87,210.39 c 0,-3.48 4,-6.31 8.89,-6.31 h 353.57 c 4.91,0 8.89,2.83 8.89,6.31 0,3.48 -4,6.31 -8.89,6.31 H 349.76 c -4.91,0 -8.89,-2.83 -8.89,-6.31 z"
     id="path21" />
  <path
     class="cls-2"
     d="m 340.87,277.61 c 0,-3.48 4,-6.3 8.89,-6.3 h 353.57 c 4.91,0 8.89,2.82 8.89,6.3 0,3.48 -4,6.31 -8.89,6.31 H 349.76 c -4.91,0 -8.89,-2.82 -8.89,-6.31 z"
     id="path23" />
  <path
     class="cls-2"
     d="m 340.87,344.84 c 0,-3.49 4,-6.31 8.89,-6.31 h 353.57 c 4.91,0 8.89,2.82 8.89,6.31 0,3.49 -4,6.3 -8.89,6.3 H 349.76 c -4.91,0 -8.89,-2.82 -8.89,-6.3 z"
     id="path25" />
  <path
     class="cls-2"
     d="m 684.43,420.22 h -362 V 114.39 a 6.31,6.31 0 1 0 -12.61,0 v 312.14 a 6.3,6.3 0 0 0 6.31,6.31 h 368.3 a 6.31,6.31 0 0 0 0,-12.62 z"
     id="path27" />
  <path
     class="cls-2"
     d="m 709.65,82.86 h -368.3 a 6.3,6.3 0 0 0 -6.3,6.3 v 312.15 a 6.3,6.3 0 0 0 6.3,6.3 h 368.3 a 6.3,6.3 0 0 0 6.31,-6.3 V 89.16 a 6.3,6.3 0 0 0 -6.31,-6.3 z m -6.3,12.61 v 48.77 H 347.66 V 95.47 Z M 347.66,395 V 156.85 H 703.35 V 395 Z"
     id="path29" />
  <path
     class="cls-3"
     d="M 431.11,118.53 A 13.11,13.11 0 1 1 418,105.42 a 13.1,13.1 0 0 1 13.11,13.11 z"
     id="path31" />
  <path
     class="cls-3"
     d="m 644.45,118.53 a 13.11,13.11 0 1 1 -13.1,-13.11 13.1,13.1 0 0 1 13.1,13.11 z"
     id="path33" />
  <path
     class="cls-4"
     d="m 418,124.84 a 6.31,6.31 0 1 1 0,-12.61 c 2.2,-0.78 8.41,-12.19 8.41,-33.18 0,-20.51 -5.94,-31.88 -8.41,-33.12 -1.7,0.9 -6.44,7.87 -8,23.82 a 6.3040979,6.3040979 0 1 1 -12.55,-1.21 c 1.64,-17.05 7.9,-35.27 20.53,-35.27 14.45,0 21,23.73 21,45.78 0,22.05 -6.58,45.79 -21,45.79 z"
     id="path35" />
  <path
     class="cls-4"
     d="m 631.11,124.84 a 6.31,6.31 0 1 1 0,-12.61 c 2.2,-0.78 8.41,-12.19 8.41,-33.18 0,-20.51 -5.93,-31.88 -8.41,-33.12 -1.7,0.9 -6.44,7.87 -8,23.82 a 6.3040979,6.3040979 0 1 1 -12.55,-1.21 c 1.64,-17.05 7.9,-35.27 20.53,-35.27 14.45,0 21,23.73 21,45.78 0,22.05 -6.58,45.79 -21,45.79 z"
     id="path37" />
  <path
     class="cls-5"
     d="M 244.49,872.84 244.65,403 c -24,-2.06 -47.9,-3.53 -71.2,-11.85 -21,-7.57 -43.22,-4.06 -65.37,-4 -0.15,1.67 -0.26,2.66 -0.26,2.66 l -67,483.76 c 20.3,-2 40.93,1.55 61.27,1.6 l 69,-392.9 c 0,0 8.53,317.56 10.53,390.73 20.85,0.08 41.97,-0.53 62.87,-0.16 z"
     id="path39" />
  <path
     class="cls-6"
     d="m 283,950 c -4.94,-8.24 -36,-25.15 -36,-25.15 l -2.49,-25.38 v -26.63 c -20.9,-0.37 -42,0.24 -62.87,0.14 0.14,4.94 0.24,8.76 0.31,11.3 1.11,40.14 5.66,80.91 5.66,80.91 l 101.08,0.89 A 42.56,42.56 0 0 0 283,950 Z"
     id="path41" />
  <path
     class="cls-6"
     d="m 40.82,873.54 -7.1,51.3 c 0,0 -10.07,6.07 -20.4,13.37 -10.33,7.3 -10.2,28.1 -10.2,28.1 l 86.12,-0.44 c 0,0 1.08,-10.49 1.59,-18.82 0.51,-8.33 4.53,-33.54 4.53,-33.54 l 6.73,-38.37 c -20.34,-0.05 -40.97,-3.61 -61.27,-1.6 z"
     id="path43" />
  <path
     class="cls-6"
     d="m 318.67,193.52 c -13.47,-6.14 -20.48,-18.43 -24.49,-32.05 -4.69,16.59 -12.54,61.53 -12.54,61.53 0,0 -16,-35.11 -29.68,-55.3 -13.68,-20.19 -69.35,-15.86 -69.35,-15.86 0,0 1.81,-10.73 0.91,-14.73 -0.9,-4 -18.81,-5 -18.81,-5 l 1.58,-6.35 14.28,-0.68 10.43,2.27 c 0,0 6.17,2.75 15.87,-4.77 5.9,-4.57 4.31,-10 4.31,-10 0,0 5.72,-4.23 7,-10.2 1.28,-5.97 -3.4,-7.47 -3.4,-7.47 a 10.75,10.75 0 0 0 1.14,-8.62 c -1.46,-4.82 -16.78,-9.75 -16.78,-9.75 a 33.23,33.23 0 0 0 -1.81,-9.06 75.44,75.44 0 0 0 -4.53,-8.83 L 188.5,41.9 c 0,0 10.16,-12.9 8.38,-18.58 -1.78,-5.68 -11.78,-7.25 -11.78,-7.25 0,0 1.32,-6.07 -5.66,-11.79 -6.98,-5.72 -22.89,5 -22.89,5 0,0 2.22,-5.66 -6.35,-7 -9.64,-1.55 -24,17 -27.65,21.31 -3.65,4.31 -11.79,1.18 -18.35,8.16 -6.56,6.98 -0.91,14.73 -0.91,14.73 0,0 -7.26,2.76 -10.2,10 -4.3,10.56 9.75,19.26 9.75,19.26 0,0 2.43,10.74 8.38,17.9 5.95,7.16 18.81,6.8 18.81,6.8 l -0.45,30.38 a 50.63,50.63 0 0 0 -12.92,-0.46 c -6.83,0.68 -3.85,20.85 -3.85,20.85 0,0 -35.76,-7.3 -65.72,12.47 C 25.25,178 15.38,282.67 10.83,313.17 c -4.55,30.5 6.29,43.66 17.22,49.83 10.93,6.17 28.33,-1.8 28.33,-1.8 L 106,326.1 c 0,0 2.35,12.09 3.4,25.38 0.84,10.66 -0.69,28.85 -1.33,35.64 22.15,0 44.35,-3.55 65.37,4 23.3,8.32 47.16,9.79 71.2,11.85 V 255.82 c 0,0 23.24,46.36 42.84,49.86 25.43,4.54 33.79,-17.24 38.3,-33.32 3.63,-12.94 11.4,-58.36 14.29,-75.57 a 37,37 0 0 1 -21.4,-3.27 z"
     id="path45" />
  <path
     class="cls-6"
     d="M 75.87,262.87 70,288.47 86.31,275.78 Z"
     id="path47" />
  <path
     class="cls-7"
     d="m 185.48,904.26 1.58,23.57 c 0,0 7.51,6.26 11.34,12 A 22.3,22.3 0 0 1 202.25,951 H 231 c 0,0 3.41,-10.87 13.6,-13.6 10.19,-2.73 24.25,2.26 24.25,2.26 l -20.4,-15.86 -3.85,-18.35 z"
     id="path49" />
  <path
     class="cls-7"
     d="m 36.58,907.66 59.38,0.45 -2.72,20.89 -13.59,26.48 -16.78,-0.91 c 0,0 -3.52,-12.53 -15,-15.87 -11.48,-3.34 -22.89,-7 -22.89,-7 L 35,926 Z"
     id="path51" />
  <polygon
     class="cls-8"
     points="348.68,83.7 361.18,79.9 365.64,81.65 363.93,87.88 370.68,89.4 372.93,92.05 371.43,96.4 376.93,99.89 373.18,105.9 378.18,108.9 373.18,115.15 359.68,126.63 348.68,136.15 338.17,196.5 322.86,196.5 302.68,180.4 298.15,173.4 303.93,154.4 308.68,131.15 306.02,114.63 311.93,99.89 318.19,79.15 319.93,73.15 325.93,76.65 328.03,90.4 325.18,97.15 334.41,94.48 "
     id="polygon53" />
  <g
     class="cls-9"
     clip-path="url(#clip-path)"
     id="g57">
    <path
       class="cls-7"
       d="m 337.75,205.63 c -10.33,0.73 -24,-4.29 -31.81,-10.76 a 33,33 0 0 1 -7.55,-8.43 L 283,250.8 c 0,0 -27.39,-69.17 -38.16,-77.65 -10.77,-8.48 -23.31,-13.77 -41.24,-14.5 -17.93,-0.73 -23.78,-1.28 -23.78,-1.28 0,0 6.05,-11.75 0.16,-13.37 -5.89,-1.62 -63.18,-6.43 -63.18,-6.43 0,0 -8.26,-5.26 -9.52,1.82 a 37.74,37.74 0 0 0 0,12.91 c 0,0 -33.95,-3.53 -58.28,12.24 -17.86,10.13 -22.67,30.76 -29.69,60.74 -7.02,29.98 -17.39,109.1 -15.83,117.16 1.56,8.06 7.93,31.94 34.67,28.34 26.74,-3.6 62.32,-41 62.32,-41 a 215.91,215.91 0 0 1 1.81,28.11 c 0.09,16.61 -0.22,39.65 -0.22,39.65 l 132,8.88 2.44,-204.31 5.81,1.71 a 21.71,21.71 0 0 0 -1.26,2.77 c -0.11,0.3 0.35,192.76 0.35,192.76 l 41.6,-17.1 c 0,0 26.54,-54.71 41.1,-76.32 14.56,-21.61 33,-112.29 33,-112.29 0,0 -1.95,10.76 -19.35,11.99 z M 43.22,318.41 60.4,292.54 c 0,0 5.25,-18.56 8.77,-30.63 3.52,-12.07 9,-26.51 9,-26.51 l 1.91,4 -3.23,22.88 7.87,9.11 2.23,15.44 z m 92,-65.21 c -0.6,3.12 -11.78,10.19 -9.77,13.91 1.6,3 8.82,6.1 8.82,6.1 l -2.61,10.53 -13.74,10.43 a 93.33,93.33 0 0 1 1.36,12.25 c 0,4.53 -4.3,11.1 -4.3,11.1 0,0 -3.36,3.39 -7.71,2.72 -4.35,-0.67 -13.93,-10 -18.36,-22 -4.43,-12 -0.67,-18.58 -0.67,-18.58 l 15.09,-11.08 c 0,0 -4.76,-19.32 -4,-33.85 0.76,-14.53 6.63,-14.67 6.63,-14.67 l 7.56,-8.1 2.48,18.4 c 0,0 20.4,16.64 19.22,22.84 z"
       id="path55" />
  </g>
  <path
     class="cls-6"
     d="m 84.34,914.81 c 5.07,0 9.18,5.12 9.18,11.44 0,6.32 -4.11,11.45 -9.18,11.45 -5.07,0 -9.18,-5.12 -9.18,-11.45 0,-6.33 4.11,-11.44 9.18,-11.44 z"
     id="path59" />
  <path
     class="cls-6"
     d="m 195.61,914.81 c 5.07,0 9.18,5.12 9.18,11.44 0,6.32 -4.11,11.45 -9.18,11.45 -5.07,0 -9.18,-5.12 -9.18,-11.45 0,-6.33 4.12,-11.44 9.18,-11.44 z"
     id="path61" />
  <path
     class="cls-6"
     d="m 135.63,55.64 c 0,0 18,32.42 21.76,32 3.76,-0.42 9.68,-8.25 19.94,-10.43 a 48.33,48.33 0 0 1 22.21,0.45 c 4.08,1 13.59,2.12 15.63,7 2.04,4.88 -0.9,11.34 -0.9,11.34 0,0 6.49,2.84 3.63,9.74 -2.86,6.9 -8.16,6.8 -8.16,6.8 0,0 6.38,10.85 -8.62,13.38 -15,2.53 -22,-2.28 -22,-2.28 0,0 -15.17,7.87 -27.65,-5.21 -12.48,-13.08 -8.15,-20.17 -8.15,-20.17 l -14.51,-28.1 c 0,0 -3.46,-4.59 -7.93,-3.4 -4.47,1.19 -10,3.71 -7.48,11.56 2.52,7.85 6.52,10.12 9.74,10.2 a 66.16,66.16 0 0 0 7.71,-0.46 L 127,99.83 c 0,0 -11.58,-1.33 -16.3,-8.83 a 143.36,143.36 0 0 1 -8.61,-16.55 c 0,0 -15.2,-8.77 -9.29,-18.81 5.91,-10.04 11.33,-6.58 11.33,-6.58 0,0 -9.13,-13.12 1.81,-19.71 10.94,-6.59 10.75,-0.67 14.51,-3.62 3.76,-2.95 10.64,-17 18.13,-20.17 7.49,-3.17 11.17,-4 14,-3 3.72,1.43 4.53,6.13 4.53,6.13 0,0 17.61,-9.91 24,-3.4 6.39,6.51 3.4,10.2 3.4,10.2 0,0 12.49,1.87 12.99,9.51 0.5,7.64 -7.48,17 -7.48,17 l -5.21,-6.81 c 0,0 -0.48,-1.5 -5.89,-2.49 -5.41,-0.99 -11.11,-1.59 -11.11,-1.59 0,0 3.78,6.6 -3.4,7.48 -7.18,0.88 -15.41,-4.25 -15.41,-4.25 0,0 2.12,9.7 -2.72,14.72 a 25.49,25.49 0 0 1 -10.65,6.58 z"
     id="path63" />
  <path
     class="cls-7"
     d="m 140.1,61.7 c 0,0 14.65,30.81 18.38,30.35 3.73,-0.46 7.59,-10.87 17.85,-13.05 10.26,-2.18 22.46,0.82 26.53,1.82 4.07,1 11,2.16 13,7.07 2,4.91 1.67,15.33 1.67,15.33 0,0 4,-4.77 1.08,2.14 -2.92,6.91 -8.87,15.64 -8.87,15.64 0,0 5.6,5.68 -9.4,8.2 -15,2.52 -21.2,-5.59 -21.2,-5.59 0,0 -14.67,10 -27.15,-3.09 -12.48,-13.09 -8.65,-13.8 -8.65,-13.8 l -12,-31.83 c 0,0 -4.33,-8.78 -8.8,-7.58 -4.47,1.2 -9.34,3.69 -6.82,11.53 2.52,7.84 5.09,9 8.31,9 l 6.84,0.16 -0.47,11 c 0,0 -10,3.11 -14.68,-4.39 -4.68,-7.5 -12.91,-19.86 -12.91,-19.86 0,0 -15.16,-3.91 -9.25,-14 5.91,-10.09 11.52,-11.95 11.52,-11.95 0,0 -10.11,-4.43 0.86,-11 10.97,-6.57 10.75,-0.66 14.51,-3.61 3.76,-2.95 7.18,-15.55 14.67,-18.73 7.49,-3.18 14.63,-5.49 17.51,-4.4 3.72,1.43 4.53,6.13 4.53,6.13 0,0 17.61,-9.91 24,-3.4 6.39,6.51 3.4,10.2 3.4,10.2 0,0 12.44,1.86 12.94,9.54 0.5,7.68 -7.5,8.52 -7.5,8.52 l -2.61,-2.47 c 0,0 -5.06,-5.07 -10.47,-6.07 -5.41,-1 -15.29,6.49 -15.29,6.49 0,0 -2.07,-3.31 -9.25,-2.42 -7.18,0.89 -3.38,5.25 -3.38,5.25 0,0 -0.27,4.17 -5.11,9.17 -4.84,5 -3.79,9.7 -3.79,9.7 z"
     id="path65" />
  <path
     class="cls-7"
     d="m 161.15,58.48 a 3.39,3.39 0 0 1 4,2.58 l 1,4.43 A 3.4,3.4 0 1 1 159.53,67 l -1,-4.43 a 3.39,3.39 0 0 1 2.62,-4.09 z"
     id="path67" />
  <path
     class="cls-7"
     d="m 343.63,191.83 a 12.21,12.21 0 0 1 -6.29,1.86 c -5.52,27 -8.06,52.46 -14.95,77.7 -2.41,8.79 -3.85,17 -8.84,22.66 -5.23,5.9 -12.22,10.17 -21.75,9.06 -9.18,-1.06 -14.51,-5.95 -19.27,-12.23 -6.52,-8.61 -12.63,-18.56 -18.8,-28.1 -1.5,-2.3 -5.6,-7.22 -6.12,-9.75 -0.77,-3.68 -0.05,-9.08 -0.23,-13.13 -0.43,-9.47 0.21,-17.48 0.45,-26.75 0.12,-4.47 0.89,-10 -3.17,-10 -4.06,0 -3.45,5.36 -3.63,9.74 -0.5,12.6 -0.22,24.71 -0.22,36.71 0,48.83 1.37,100.55 0.68,148.88 -43,-3.14 -86.77,-5.52 -129.39,-9.06 3.83,-17.89 2.13,-38.86 -0.45,-56.42 -0.37,-2.53 -1.54,-6.37 -1.14,-7.94 0.25,-1 3.07,-3 4.31,-4.08 4.3,-3.69 10.42,-7.78 12.69,-13.13 2.18,-5.15 1.4,-12.43 0.68,-19 3.86,-1.81 8.76,-3.08 10.65,-7 3.09,-6.44 -2.52,-16.73 -10.88,-13.81 2.78,-4.28 9.78,-7.68 10,-14.51 0.11,-4.13 -2.54,-6.75 -4.76,-9.52 3.4,-9.7 -5.14,-16.94 -14.51,-13.15 2.73,-3.64 7.61,-5 8.39,-10.19 0.8,-5.33 -4.86,-10.87 -9.75,-11.11 -5.06,-0.23 -9.65,3.69 -12.69,6.58 a 21,21 0 0 0 -6.8,12.46 c -2.27,11.84 -1,24 1.36,35.13 -3.52,2.89 -7.67,6.36 -11.32,8.38 -2.32,-4 -5.06,-7.49 -7.26,-11.55 1,-3 1.58,-6.14 2.72,-10.43 0.93,-3.51 4.63,-12.74 -2,-11.56 -3.17,0.57 -3.86,7.89 -4.76,11.33 -3.37,12.92 -7.09,26.79 -10,38.53 -5.55,4 -10.87,8.39 -16.55,12.69 -1.88,1.42 -4.85,2.57 -4.53,5.43 a 3.94,3.94 0 0 0 2.27,2.72 c 2.71,0.66 5.56,-2.41 7.48,-3.85 14.75,-11.06 32.23,-24.4 45.54,-34 0.82,3.56 1.91,7.19 3,11.11 1,3.67 1.2,9.32 5,9.29 5.21,-0.05 2.43,-7.47 1.59,-10.66 -1.19,-4.44 -2.16,-7.51 -2.72,-10.87 4.42,2.38 5.64,-2.58 7.25,-6.12 a 42.3,42.3 0 0 1 3.4,-6.12 c 1.68,-2.37 5.84,-7.56 9.06,-7.48 a 3.48,3.48 0 0 1 3.4,3.18 c 0.14,2.23 -2.43,4 -4.08,5.66 -4.5,4.5 -6.31,9.44 -10.19,14.05 -1,1.16 -1.63,2.11 -1.36,3.63 0.88,5 7.67,0.61 9.29,-0.23 2.71,-1.41 4.23,-2.56 7.25,-2.27 5.21,7.47 -8.57,6.54 -10.2,11.11 -0.76,2.15 0.42,5.94 0.68,9.06 a 30.77,30.77 0 0 1 -0.45,9.75 c -0.73,2.74 -4.94,5.88 -7.48,8.15 -13.7,12.29 -27.4,22.35 -41.92,33.31 -6,4.55 -11.62,9.36 -17.9,12.23 -7.64,3.51 -16.85,5.21 -24,1.37 -5.66,-3 -11.08,-9 -14,-16.09 -3.1,-7.38 -2.28,-16.83 -1.13,-26.28 3.33,-27.42 7,-51.74 11.32,-78.86 2.82,-17.7 5.73,-34.69 10.89,-49.4 5.6,-16 14.15,-24.71 29.9,-30.36 C 77,155 95,155 108.93,155.6 c 4,0.18 11.67,1.78 11.78,-2.94 0.07,-3.15 -2.68,-2.33 -3.4,-4.09 -0.72,-1.76 0.15,-5.2 0.23,-7.25 0.1,-2.63 -0.3,-4.81 0.68,-6.8 21.66,-0.44 43.54,0.87 62.09,4.31 0.87,4.41 -4.61,15.49 0.9,17 2.59,0.7 2.76,-1.45 5,-1.59 3,-0.18 6.66,0.3 10,0.45 a 262.18,262.18 0 0 1 27.42,3.18 c 12.22,1.87 20.9,5.44 27.42,13.37 10.35,12.58 17.31,30.65 24.47,46.68 1,2.32 2.87,5.32 2.94,7.24 0.07,1.51 -0.7,3.88 -1.13,5.89 -0.43,2.01 -1,4.07 -1.36,5.9 -0.58,2.66 -3.32,9.41 -0.91,11.55 5.13,4.57 6.6,-6.11 7.26,-9.06 5.49,-24.55 10.15,-46.59 15.41,-70.25 0.79,-3.58 1.05,-7.09 1.85,-9.93 a 12.35,12.35 0 0 1 -0.75,-2.82 23.58,23.58 0 0 1 -3.47,-4.07 5.83,5.83 0 0 0 -1.26,1.87 c -1.69,4.06 -2.34,9.59 -3.4,14.5 -3.2,14.88 -6.38,30.69 -9.75,44.64 -9.44,-18.09 -14.91,-38.11 -29.23,-51.21 -14.32,-13.1 -40,-12.69 -65.71,-14.73 1.12,-4.63 2.36,-11.24 -0.9,-14.05 -2.41,-2.08 -8,-2.3 -11.33,-2.72 -1,-0.12 -3.39,0.41 -3.4,-1.36 0.85,-1.1 2.78,-0.87 4.3,-1.12 1.52,-0.25 3.2,-0.62 4.53,-0.91 3.32,1.15 6.75,4 11.34,4.52 7.2,0.78 17.47,-2.92 20.84,-7 1.75,-2.14 2.55,-5.69 2.72,-9.07 6.4,-2.25 11,-12.62 5.67,-19.26 3.36,-12.78 -7.56,-18.38 -17.68,-20.63 A 24.92,24.92 0 0 0 199.16,65.2 c -1.4,-2.54 -3.75,-7 -7,-6.58 -5.32,0.66 -1.23,6.38 0.23,8.61 a 14.28,14.28 0 0 1 2.61,6.34 c -1.74,-0.61 -4,-0.69 -5.67,-1.36 5.13,-10.11 -10,-7.33 -9.51,-15 0.14,-2.3 2.6,-3.66 4.3,-4.3 2.89,-1.09 9.51,-0.35 10.65,-2.94 1.14,-2.59 -0.8,-4.32 -1.36,-6.35 2.12,-3.35 5.81,-7 7.25,-11.55 3,-9.48 -2.61,-18.1 -12.69,-17.91 -0.62,-15.3 -19.86,-17.12 -30.14,-9.75 -1.45,-5.61 -8.68,-4.87 -13.82,-3.39 -8.26,2.36 -11.74,7.26 -16.32,13.14 -2.7,3.49 -5.81,8.19 -9.28,9.29 -2.44,0.78 -4.71,0.41 -6.58,0.68 C 106,25 101.31,29.35 99,33.46 a 13,13 0 0 0 0.9,13.37 c -3.84,2.34 -8.11,4.31 -9.74,8.38 -3.61,9 4.36,21 10.87,23.12 3.58,13.2 12.09,21.45 25.84,24.48 -0.15,8.15 0.3,16.91 -0.23,24.69 -5.64,0.26 -10.67,-0.81 -13.36,2 -3.79,4 -2,11.91 -2.73,19.26 -9.77,-0.42 -19.21,-0.14 -27.87,0.23 a 64.48,64.48 0 0 0 -23.34,5.43 c -13.53,5.89 -22.16,15.58 -27.68,29.95 -5.34,14 -7.9,29.9 -10.65,46.68 -4.13,25.2 -7.78,49.64 -11.11,75 -1.14,8.7 -3,17.52 -2.71,26.06 0.51,16.33 10.58,29.89 22.88,34.68 16.41,6.33 32.32,-4.63 41.92,-12 C 83,346.3 93.82,338 104.4,330.09 c 1.8,13.08 4,25.72 3.17,38.51 -0.81,12.61 -2.85,25.13 -4.76,37.39 -3.81,24.39 -7.81,48.7 -11.56,72.74 -7.63,49 -14.25,98.19 -20.84,148 -6.55,49.46 -13.8,98.77 -20.4,148.42 -6.6,49.65 -13.91,99.22 -19.26,149.52 -7.67,4.64 -16.15,8.06 -22,15.19 a 34.37,34.37 0 0 0 -6.12,12.46 c -1,3.57 -4.13,12.25 -1.81,14.95 1.36,1.6 6.69,1.14 11.11,1.14 23.69,0 45.51,-0.23 68.43,-0.23 3.6,0 9.32,0.53 11.1,-0.45 2.61,-1.44 2.42,-9.65 3,-15 1.56,-15.83 3,-31.7 5.43,-45.33 23.57,-134.85 46,-270.35 69.57,-403.79 3.15,116.94 6.93,233.6 10.2,351 0.91,32.89 1.24,69.85 5,100.38 0.48,4 1.24,11.2 2.95,12.23 1.94,1.18 9.09,0.46 12.91,0.46 26.76,0 54,0.81 79.54,-0.23 4.46,-0.18 10.55,0.68 11.79,-1.58 1.24,-2.26 -0.62,-5.73 -1.6,-8.16 a 60.36,60.36 0 0 0 -3.39,-7.48 c -2.74,-4.79 -7.1,-8 -10.88,-10.65 -8.75,-6.23 -17.38,-11.36 -25.83,-17.22 -3.18,-25.47 -2,-53.23 -2,-80.44 0,-194.21 0.42,-384.14 -0.23,-575.56 4.14,6.37 8.46,12.69 12.92,19.26 4.15,6.11 8.61,13.71 14.5,17.9 6.57,4.66 15.82,7.74 25.38,5.89 8.54,-1.65 14.68,-6.29 19.49,-12.92 4.52,-6.24 6.59,-15 9.06,-24 2.47,-9 3.92,-18.27 5.67,-27.64 2.46,-13.19 5.22,-28.13 7.7,-41.93 0.44,-2.92 1.26,-7.46 0.99,-11.09 z m -268.46,90 c 1,-4 2,-8.12 3.17,-12 1.54,2 2.71,4.39 4.3,6.34 a 55.73,55.73 0 0 1 -7.47,5.64 z m 34.67,-61.63 c 1.21,-1.06 4.4,-3.77 6.57,-3.85 1.79,-0.07 3.8,1.87 3.85,2.94 0.1,2.27 -5.14,5.07 -7.25,7.26 a 17,17 0 0 0 -1.81,2.26 c -1.53,2.5 -1.72,6.27 -2.72,8.61 -1.1,2.56 -4,4 -4.76,7 -0.88,-10.73 0.44,-19.34 6.12,-24.24 z m 16.76,22.21 c -9.74,4.83 -16.07,13.07 -19.94,23.79 -0.84,-2.4 -1.07,-5.42 -1.81,-7.93 3,-8.42 8.06,-18.39 16.54,-21.3 a 6,6 0 0 1 5.21,0.45 7.09,7.09 0 0 1 0,4.97 z M 173.06,56.58 c -0.52,6.37 4.54,11.12 10,12.91 -0.27,1.39 -1.4,1.92 -1.14,3.85 -9.84,2.33 -18.89,5.43 -24,12.46 -6.39,-8.4 -10.81,-18.79 -16.08,-28.32 5.86,-3.12 9.2,-8.77 10.19,-16.77 6.2,4.92 17.56,2.08 19.49,-5 3.94,0.29 7.09,1.37 11.56,1.13 1,3.11 2.68,5.48 3.62,8.61 -6.7,1.26 -13.09,4.34 -13.64,11.13 z m -46.23,39.2 c -8.44,-2.11 -13.69,-6.22 -17,-13.6 -1.19,-2.64 -1.78,-5.91 -3.4,-8.16 -1.49,-2 -5.35,-2.73 -7,-4.75 -2.53,-3.06 -2.84,-6.29 -3.17,-11.11 a 16.88,16.88 0 0 1 5.66,-5 c 2.13,-1.25 5.73,-1.91 6.12,-4.54 0.49,-3.34 -4.15,-5.67 -4.07,-9.74 0.06,-3.42 4.78,-6.88 7.25,-7.7 4.17,-1.39 8.21,-0.33 11.78,-2.27 3.57,-1.94 6.3,-6 9.06,-9.51 4.55,-5.85 8.45,-11.65 17.68,-12.69 2.82,-0.33 2.39,2 3.17,3.84 2.46,5.85 6.06,0.89 9.29,-0.9 5,-2.8 15.09,-5.15 18.35,1.36 1.62,3.21 -0.25,7.64 2.5,9.29 2.75,1.65 7.21,-0.17 9.74,1.82 1.8,1.4 2.28,4.63 1.81,7.24 -0.53,3 -2.93,4.63 -4.3,7.25 -0.69,-0.82 -0.82,-2.2 -1.59,-2.94 0.14,-1.54 1.92,-2.49 1.82,-4.31 a 3.47,3.47 0 0 0 -3.18,-3.17 c -2.62,-0.11 -3.27,3.16 -5.89,3.85 -3.95,1 -10.24,-2.79 -14.05,-1.35 -2.37,0.88 -1.81,3.92 -2.95,5.66 -2.61,4 -6.85,1.66 -10.19,-0.23 -2.08,-1.17 -5,-3.84 -7.48,-1.59 -1.79,1.64 -1.15,7.58 -2,10.66 -0.83,2.88 -2.78,6.9 -5,7.7 -3.53,1.28 -7.85,-1.26 -7.93,3.4 0,2.44 1.93,2.51 2.95,3.85 1.62,2.12 3.46,6.72 4.76,9.29 a 205.61,205.61 0 0 0 10,18.13 c 2.41,3.86 4.2,8.41 9.74,7 4,-1 5.83,-5.76 9.29,-7.71 a 55.1,55.1 0 0 1 17.68,-5.67 c 5,-0.57 8.46,1.69 13.6,3.18 4.2,1.22 7.53,1.71 10,3.17 1.55,0.93 3.88,3.38 4.09,6.12 0.21,2.74 -1.46,3.3 -1.14,6.11 0.26,2.2 2.57,3 2.72,5.68 0.33,5.69 -5.71,4.71 -7.48,8.38 -1.35,2.8 -0.19,6.23 -1.58,8.38 -1.2,1.85 -4.6,2.57 -6.35,3.17 -2.25,0.78 -5.2,1.91 -7.7,1.81 -5,-0.2 -8.07,-4.27 -12,-4.75 -2.49,-0.31 -5.49,0.75 -7.93,1.13 -8.33,1.27 -13.77,0.14 -18.81,-4.08 -2.12,-1.77 -4.62,-4.25 -5.67,-7 -1.32,-3.5 0,-6.39 -0.9,-11.78 -0.36,-2.25 -2.45,-5.13 -3.63,-7.48 -1.3,-2.59 -2.41,-5 -3.63,-7.24 -2.74,-5.16 -4.65,-10.64 -7.47,-14.51 -1.76,-2.41 -6.05,-5.7 -9.29,-5.67 -5.16,0.07 -9.92,4.76 -11.56,8.61 -3.17,7.5 3.77,20.81 15.41,19 z m -4.76,-11.33 c -2,-0.74 -5,-5.54 -4.76,-8.16 0.23,-2.94 3.36,-4.23 5.22,-5.66 a 6.45,6.45 0 0 1 4.07,2.94 c -3.08,-0.45 -6.14,-0.88 -6.57,1.82 -0.71,4.49 5.92,3.47 10,4.3 2.33,4.32 5.09,10 7.71,15 0.88,1.68 2.21,3.6 2.49,5 a 28.05,28.05 0 0 1 0,4.3 c 0.64,15.21 10.12,22 23.34,25.16 -9,0.46 -19.76,-1.43 -30.14,-1.36 -0.5,-13 1.13,-26.63 0.23,-38.75 a 8.75,8.75 0 0 0 -0.45,-2.49 C 131.56,82.73 126.12,86 122.07,84.45 Z M 87,961.38 c -26.3,0.14 -52.52,0.33 -79.54,0.23 1.58,-6.56 2.54,-12.41 5.89,-17 2.43,-3.31 6.54,-5.61 9.75,-7.71 0.23,-0.16 0.4,-0.52 0.9,-0.45 9.93,1.37 21.61,2.23 27.42,7.93 a 40.06,40.06 0 0 1 4.71,6.62 c 1.47,2.29 3.08,5.69 5,6.34 1.92,0.65 6.77,0.37 9.06,0.46 2.77,0.11 6,0.89 8.84,0 2.29,-0.73 3.93,-4.55 5.21,-6.8 1.62,-2.84 2.56,-4.93 4.08,-7.7 0.24,5.8 -1.21,11.9 -1.32,18.08 z m 3.62,-36.93 c -0.53,2.16 -2.21,4.81 -3.4,7 -3.52,6.59 -7.35,13.39 -11.1,19.7 -4.12,0 -7.88,-0.41 -12,-0.44 C 58.52,939.8 49.41,932.45 34.38,931 c -0.29,-0.65 1.91,-1.41 2.49,-2.72 1.84,-4.14 0.43,-12.38 2,-17 q 26.93,0 53.48,-0.45 c -1.5,4.72 -0.68,9.17 -1.78,13.62 z m 3,-20.16 c -18.13,0 -36.15,0.09 -53.93,0.44 a 72.51,72.51 0 0 1 0.91,-7.7 c 0,-0.32 0,-0.65 0.22,-0.68 18.8,-0.17 35.66,0.3 54.16,0.23 -0.59,2.53 -0.98,5.11 -1.46,7.71 z M 96,889.55 c -18.1,-0.1 -36.06,-0.34 -54.38,-0.23 0.11,-3.66 1,-6.59 1.13,-10.19 18.5,-0.46 36.79,-1.12 55.29,-1.59 -0.57,4.11 -1.31,8.05 -2.04,12.01 z m 83.4,-270.11 c -1.4,-33.22 -1.31,-66.54 -2.72,-99.93 -0.35,-8.25 -0.28,-16.58 -0.68,-24.92 -0.48,-10.25 -1.63,-21.42 0,-30.59 a 37.88,37.88 0 0 1 1.13,-5.67 c 0.77,-2 3.31,-3.53 5.22,-5.2 3.86,-3.41 7.06,-6.25 10.87,-9.75 1.63,-1.5 4.61,-3.3 3.4,-6.35 -1.92,-4 -6.29,-0.13 -7.93,1.37 -4.33,4 -7.84,6.89 -12,10.64 -1.88,1.69 -4.76,3.66 -5.66,5.67 -1.39,3.08 -1.72,8.49 -2.5,12.91 C 145,601 122.46,738.52 99.41,870.74 c -17.67,0.47 -37,1.17 -55.52,1.59 21.9,-159.15 41.57,-320.53 67.31,-475.86 43.59,2.71 86.53,6.08 130.29,8.61 -0.18,154.75 -0.31,307.44 -0.23,464.76 0,0.26 0,0.4 -0.23,0.45 -18.23,-0.27 -36.14,-0.87 -54.15,-1.36 -3.28,-81.4 -3.98,-166.55 -7.48,-249.49 z m 7.93,268.07 c 0.18,-4 -0.3,-7.25 -0.22,-11.11 0,-0.31 0,-0.63 0.22,-0.67 18,0.4 35.85,1 53.93,1.36 v 8.39 c -17.8,0.85 -35.97,1.34 -53.93,2.03 z m 0.23,7 c 18,-0.5 35.59,-1.42 53.7,-1.82 v 7.48 c -17.9,0.07 -35.46,0.5 -53.47,0.46 a 37.69,37.69 0 0 0 -0.23,-6.09 z m 76.81,45.54 c 2.45,0.69 5.46,3.63 7.94,5.44 5.54,4.06 9.7,7.4 11.78,15.41 -30.63,0.07 -62.17,-0.18 -91.77,0.23 -1.07,-8.22 -2.16,-16.42 -2.95,-24.93 -0.06,-0.4 0.21,-0.46 0.23,-0.23 3.54,2.94 5.67,6.94 7.48,12.24 0.9,2.66 1.35,6.42 3.39,7.25 2.7,1.1 11.73,0.39 15.41,0.23 4.59,-0.2 11.61,0.75 15.19,-0.45 1.67,-0.57 3,-3.3 4.07,-5 3.05,-4.87 7.75,-10.59 15,-11.33 a 35.78,35.78 0 0 1 7.25,0.45 c 2.61,0.31 4.45,0.02 6.98,0.72 z m -12,-8.15 c -12.72,1 -19.2,8.15 -24.25,16.76 -7.76,0.25 -15.75,0.26 -23.79,0.23 -2.59,-10.25 -8.33,-17.36 -15.64,-22.89 -0.24,-6.18 -0.37,-12.46 -0.68,-18.58 18,-0.05 35.61,-0.5 53.71,-0.45 0.3,3.22 0.53,6.54 0.9,9.74 0.37,3.2 0.36,6.67 1.36,9.07 1.43,3.45 5.82,3.76 8.39,6.15 z"
     id="path69" />
  <path
     class="cls-7"
     d="m 332.26,193.74 a 11.11,11.11 0 0 1 -4.23,-0.8 c 0.2,1.78 0.86,3.09 2.29,3.45 2.3,0.59 4.58,-1.24 6.11,-2.73 a 9.56,9.56 0 0 1 -1.53,-0.22 11.66,11.66 0 0 1 -2.64,0.3 z"
     id="path71" />
  <path
     class="cls-7"
     d="m 157.65,49.1 c 2.47,-0.38 10.2,-1 8.61,4.08 -1,3.14 -5.81,0.81 -8.16,1.35 -1.46,0.34 -3.48,2.56 -4.76,3.86 -1.28,1.3 -2.3,4 -5.21,3.17 a 3.08,3.08 0 0 1 -1.81,-2.26 c -0.3,-3 6.66,-8.82 8.83,-9.75 a 13,13 0 0 1 2.5,-0.45 z"
     id="path73" />
  <path
     class="cls-6"
     d="m 183.93,83.77 c 1.58,-0.27 3.94,0.25 3.4,3.17 -0.38,2.09 -5.25,4.51 -7.7,5 -3.61,0.69 -9.12,-1.62 -9.52,-4.3 -0.18,-1.23 -0.31,-3.22 2.49,-3.4 2.56,-0.16 3,2.18 5.21,2.27 2.62,0.08 3.28,-2.25 6.12,-2.74 z"
     id="path75" />
  <path
     class="cls-10"
     d="m 195.51,873 a 2.84,2.84 0 0 1 -2.83,-2.74 L 178.63,449 a 2.83,2.83 0 0 1 2.73,-2.92 2.75,2.75 0 0 1 2.93,2.73 l 14.05,421.31 A 2.85,2.85 0 0 1 195.6,873 Z"
     id="path77" />
  <path
     class="cls-6"
     d="m 117.88,212.52 -9.27,5.12 c 0,0 -4.77,6.1 -4.77,6.72 0,0.62 -2.8,4.39 -2.8,5.24 0,0.85 -0.73,12.58 -0.73,12.58 l 6.1,3.54 4.38,18.42 7.09,25.39 5.62,1.71 11.72,-12 v -7.94 c 0,0 -4.77,-2.56 -5.5,-1.7 a 11.67,11.67 0 0 1 -4.39,2.93 13.22,13.22 0 0 1 -3.54,0.49 c -1.22,0 -0.73,-2.07 0.61,-3.42 1.34,-1.35 1.22,0.05 3,-2.53 1.78,-2.58 4.88,-7 5.37,-7.6 a 16.12,16.12 0 0 0 1.71,-4.15 c 0.61,-2 0.37,-5.49 -0.24,-6 -0.61,-0.51 -2.08,0.49 -1.59,-3.54 0.49,-4.03 1.34,-6.47 0.61,-8.42 -0.73,-1.95 -1,-3.79 -2.69,-4.4 -1.69,-0.61 -3.17,-1.46 -4.76,-0.61 a 12.35,12.35 0 0 1 -4.26,1.34 c -1.84,0.37 -3.18,0.74 -3.67,0.74 a 6.46,6.46 0 0 1 -1.71,-0.61 8.11,8.11 0 0 1 0.35,-3.17 c 0.5,-0.86 0.5,-1.48 1.85,-2.2 a 19,19 0 0 0 2.81,-1.84 c 1,-0.73 2.92,-2.43 3.29,-3.41 a 14.58,14.58 0 0 0 0.73,-4 c 0,-1.09 0.37,-2.07 -0.85,-3.79 -1.22,-1.72 -4.47,-2.89 -4.47,-2.89 z"
     id="path79" />
  <path
     class="cls-7"
     d="m 128,268 c 2.78,-4.28 9.78,-7.68 10,-14.51 0.11,-4.13 -2.54,-6.75 -4.76,-9.52 3.4,-9.7 -5.14,-16.94 -14.51,-13.15 2.73,-3.64 7.61,-5 8.39,-10.19 0.8,-5.33 -4.86,-10.87 -9.75,-11.11 -5.06,-0.23 -9.65,3.69 -12.69,6.58 a 21,21 0 0 0 -6.8,12.46 c -2.27,11.84 -1,24 1.36,35.13 a 106.56,106.56 0 0 1 -9.73,7.43 v 8.57 c 4,-2.95 7.8,-5.76 11.32,-8.3 0.82,3.56 1.91,7.19 3,11.11 1,3.67 1.2,9.32 5,9.29 5.21,-0.05 2.43,-7.47 1.59,-10.66 -1.19,-4.44 -2.16,-7.51 -2.72,-10.87 4.42,2.38 5.64,-2.58 7.25,-6.12 a 42.3,42.3 0 0 1 3.4,-6.12 c 1.68,-2.37 5.84,-7.56 9.06,-7.48 a 3.48,3.48 0 0 1 3.4,3.18 c 0.14,2.23 -2.43,4 -4.08,5.66 -4.5,4.5 -6.31,9.44 -10.19,14.05 -1,1.16 -1.63,2.11 -1.36,3.63 0.88,5 7.67,0.61 9.29,-0.23 2.71,-1.41 4.23,-2.56 7.25,-2.27 5.21,7.47 -8.57,6.54 -10.2,11.11 -0.76,2.15 0.42,5.94 0.68,9.06 a 30.77,30.77 0 0 1 -0.45,9.75 c -0.73,2.74 -4.94,5.88 -7.48,8.15 -4.73,4.24 -9.45,8.22 -14.22,12.05 h 10.8 c 0.72,-1.05 3,-2.73 4.1,-3.67 4.3,-3.69 10.42,-7.78 12.69,-13.13 2.18,-5.15 1.4,-12.43 0.68,-19 3.86,-1.81 8.76,-3.08 10.65,-7 2.96,-6.51 -2.65,-16.8 -10.97,-13.88 z m -18.12,-47.82 c 1.21,-1.06 4.4,-3.78 6.57,-3.85 1.79,-0.07 3.8,1.87 3.85,2.94 0.1,2.27 -5.14,5.07 -7.25,7.26 a 17,17 0 0 0 -1.81,2.26 c -1.53,2.5 -1.72,6.27 -2.72,8.61 -1.1,2.56 -4,4 -4.76,7 -0.92,-10.71 0.4,-19.32 6.08,-24.22 z m 16.76,22.21 c -9.74,4.83 -16.07,13.07 -19.94,23.79 -0.84,-2.4 -1.07,-5.42 -1.81,-7.93 3,-8.42 8.06,-18.39 16.54,-21.3 a 6,6 0 0 1 5.21,0.45 7.09,7.09 0 0 1 -0.04,4.99 z"
     id="path81" />
  <polygon
     class="cls-6"
     points="86.29,287.33 80.19,286.61 91.53,278.14 92.88,284.35 "
     id="polygon83" />
  <path
     class="cls-7"
     d="m 245.56,457.1 c 0,0 -8.95,-5.1 -14.28,-25.1 -6.25,-23.57 -3.55,-31.32 -3.62,-31.27 l 16.77,0.22 z"
     id="path85" />
  <path
     class="cls-7"
     d="m 99.75,448.46 c 0,0 15,-6.52 22,-19.72 7.54,-14.19 10,-31.95 10,-31.95 l -22.89,-2 z"
     id="path87" />
  <path
     class="cls-10"
     d="m 331.73,201.09 h -0.36 c -8.43,-0.15 -18.61,-5.75 -26.58,-14.59 -11.07,-12.3 -14.57,-26.9 -8.32,-34.74 a 3.4006838,3.4006838 0 0 1 5.31,4.25 c -3.46,4.33 -1.35,15.48 8.06,25.93 6.54,7.27 15.24,12.24 21.66,12.35 a 7.29,7.29 0 0 0 5.66,-2 3.4,3.4 0 0 1 4.88,4.73 13.92,13.92 0 0 1 -10.31,4.07 z"
     id="path89" />
  <path
     class="cls-10"
     d="m 116.06,315.92 a 15.24,15.24 0 0 1 -6.7,-1.65 c -6.83,-3.37 -12.78,-11.43 -15.52,-21 -3.29,-11.52 -2.06,-23.45 3.13,-30.39 a 3.3940094,3.3940094 0 1 1 5.44,4.06 c -3.91,5.23 -4.72,15.07 -2,24.47 2.2,7.71 6.91,14.31 12,16.8 a 7,7 0 0 0 5.84,0.56 3.4000919,3.4000919 0 0 1 2.51,6.32 12.55,12.55 0 0 1 -4.7,0.83 z"
     id="path91" />
  <path
     class="cls-11"
     d="m 298.15,171.25 c 1.39,0.83 2.77,1.69 4.15,2.55 2.61,-16 9,-32.3 8.1,-49.74 -0.26,-5 -0.44,-9.19 0.59,-13.31 a 106.18,106.18 0 0 1 3.92,-11.55 c 2.93,-7.83 4.69,-15.61 6.71,-23.76 0.23,-0.06 0.22,-0.25 0.39,-0.34 7.31,6.62 -0.53,15.57 1,24.86 0.52,3.18 1.94,5.69 2.56,8.9 a 42,42 0 0 1 0.43,9 c -0.13,3.3 -0.77,7.65 1.93,7.4 2.7,-0.25 2.54,-4.87 2.62,-7.39 a 46.27,46.27 0 0 0 -3,-17.87 c 11,-6.19 20.95,-14.87 35.29,-17.83 -0.33,5.89 -6.68,8.29 -12.28,11.58 -2.36,1.38 -5.32,3 -8.15,4.52 -2.25,1.21 -7.15,3.33 -6.4,5.74 0.9,2.91 4.81,0.42 7,-0.64 2.6,-1.24 5.48,-2.59 7.65,-3.67 5.38,-2.67 10.17,-6.29 14.46,-7.84 2.22,-0.8 4.31,-1 5.67,-0.28 -1.88,4.67 -7.72,7 -13.43,10 -2.33,1.22 -5.5,2.88 -8,4.24 -2.5,1.36 -6.87,2.85 -6,5.39 1.13,3.34 6.39,-0.55 8.63,-1.77 6.7,-3.67 15.16,-7.48 19.75,-11.38 0.41,1.57 1.85,1.38 2.39,2.73 -4.39,5.27 -12.47,9.06 -19.85,12.84 -2.27,1.16 -6.34,2.5 -5.11,5.16 1,2.23 4.23,0.28 6.05,-0.63 a 150.17,150.17 0 0 0 18.14,-10.24 7.62,7.62 0 0 1 2.55,2.45 c -4.12,5.74 -10.8,9 -16.54,12.69 -6,3.91 -10.41,8.15 -12.81,15.06 -4.11,11.88 -7.91,46.43 -10.83,59.43 1.7,-0.61 3.38,-1.27 5.06,-2 0.72,-6.65 5.05,-34.61 6.45,-41.14 1.59,-7.46 2.78,-17.41 8.35,-23 3.38,-3.39 9.13,-6.36 14.21,-9.69 5.4,-3.53 15.79,-10.93 7.13,-16.69 0.55,-1.83 2.21,-3.07 1.68,-5.46 a 5.77,5.77 0 0 0 -4.42,-4.11 c 3.68,-4.73 -1.77,-10.54 -7.5,-8.57 2.1,-4.67 -0.07,-10 -6,-9.2 -11.6,1.54 -24.52,12.92 -33,16.74 0,-4 2.71,-8.93 1.7,-14.56 -0.76,-4.25 -4.21,-10.62 -8.69,-9.45 -3.87,1 -4.85,8.81 -5.65,12.24 a 130.83,130.83 0 0 1 -3.74,13.17 c -3.18,9.16 -6.33,16.94 -5.71,27.57 1.12,18.26 -4.37,32.9 -7.45,47.85 z"
     id="path93" />
  <metadata
     id="metadata923">
    <rdf:RDF>
      <cc:Work
         rdf:about="">
        <dc:title>Ilustra-eventos-v2</dc:title>
      </cc:Work>
    </rdf:RDF>
  </metadata>
  <g
     transform="matrix(1.2901204,-0.33668703,0.33668703,1.2901204,386.45585,442.24105)"
     ns10:version="1.6.0"
     ns10:texconverter="pdflatex"
     ns10:pdfconverter="inkscape"
     ns10:text="$$B\\geq\\sum_{i=1}^{n} \\dfrac{x_i}{n} $$"
     ns10:preamble="/usr/share/inkscape/extensions/textext/default_packages.tex"
     ns10:scale="1.0"
     ns10:alignment="middle center"
     ns10:stroke-to-path="0"
     ns10:jacobian_sqrt="1.33333"
     id="g1378">
    <defs
       id="id-0fac351e-b9d2-4bbd-bfbd-68d31eabb285">
      <g
         id="id-1dd49a4b-c671-411a-b44c-602dacbfceba">
        <symbol
           overflow="visible"
           id="id-109de987-5b59-4dae-a8b4-4324c8512d8e">
          <path
             style="stroke:none;stroke-width:0"
             d=""
             id="id-3b784f7d-6fa8-44ce-b9a0-7ffeb56b54db" />
        </symbol>
        <symbol
           overflow="visible"
           id="id-0d922756-8f11-4c50-b3e3-42747fb22cc5">
          <path
             style="stroke:none;stroke-width:0"
             d="M 1.59375,-0.78125 C 1.5,-0.390625 1.46875,-0.3125 0.6875,-0.3125 c -0.171875,0 -0.265625,0 -0.265625,0.203125 C 0.421875,0 0.515625,0 0.6875,0 H 4.25 C 5.828125,0 7,-1.171875 7,-2.15625 7,-2.875 6.421875,-3.453125 5.453125,-3.5625 6.484375,-3.75 7.53125,-4.484375 7.53125,-5.4375 c 0,-0.734375 -0.65625,-1.375 -1.84375,-1.375 H 2.328125 c -0.1875,0 -0.28125,0 -0.28125,0.203125 0,0.109375 0.09375,0.109375 0.28125,0.109375 0.015625,0 0.203125,0 0.375,0.015625 0.171875,0.03125 0.265625,0.03125 0.265625,0.171875 0,0.03125 -0.015625,0.0625 -0.03125,0.1875 z m 1.5,-2.875 0.625,-2.46875 C 3.8125,-6.46875 3.828125,-6.5 4.25,-6.5 h 1.296875 c 0.875,0 1.078125,0.59375 1.078125,1.03125 0,0.875 -0.859375,1.8125 -2.0625,1.8125 z m -0.4375,3.34375 c -0.140625,0 -0.15625,0 -0.21875,0 -0.109375,-0.015625 -0.140625,-0.03125 -0.140625,-0.109375 0,-0.03125 0,-0.046875 0.0625,-0.21875 l 0.6875,-2.78125 h 1.875 c 0.953125,0 1.15625,0.734375 1.15625,1.15625 C 6.078125,-1.28125 5.1875,-0.3125 4,-0.3125 Z m 0,0"
             id="id-c247d7ce-149b-4478-a45f-03d7fad27ac7" />
        </symbol>
        <symbol
           overflow="visible"
           id="id-2150c925-2d80-4725-a39e-97163f5d260e">
          <path
             style="stroke:none;stroke-width:0"
             d="M 3.328125,-3.015625 C 3.390625,-3.265625 3.625,-4.1875 4.3125,-4.1875 c 0.046875,0 0.296875,0 0.5,0.125 C 4.53125,-4 4.34375,-3.765625 4.34375,-3.515625 c 0,0.15625 0.109375,0.34375 0.375,0.34375 0.21875,0 0.53125,-0.171875 0.53125,-0.578125 0,-0.515625 -0.578125,-0.65625 -0.921875,-0.65625 -0.578125,0 -0.921875,0.53125 -1.046875,0.75 -0.25,-0.65625 -0.78125,-0.75 -1.078125,-0.75 -1.03125,0 -1.609375,1.28125 -1.609375,1.53125 0,0.109375 0.109375,0.109375 0.125,0.109375 0.078125,0 0.109375,-0.03125 0.125,-0.109375 0.34375,-1.0625 1,-1.3125 1.34375,-1.3125 0.1875,0 0.53125,0.09375 0.53125,0.671875 0,0.3125 -0.171875,0.96875 -0.53125,2.375 -0.15625,0.609375 -0.515625,1.03125 -0.953125,1.03125 -0.0625,0 -0.28125,0 -0.5,-0.125 0.25,-0.0625 0.46875,-0.265625 0.46875,-0.546875 0,-0.265625 -0.21875,-0.34375 -0.359375,-0.34375 -0.3125,0 -0.546875,0.25 -0.546875,0.578125 0,0.453125 0.484375,0.65625 0.921875,0.65625 0.671875,0 1.03125,-0.703125 1.046875,-0.75 0.125,0.359375 0.484375,0.75 1.078125,0.75 1.03125,0 1.59375,-1.28125 1.59375,-1.53125 0,-0.109375 -0.078125,-0.109375 -0.109375,-0.109375 -0.09375,0 -0.109375,0.046875 -0.140625,0.109375 -0.328125,1.078125 -1,1.3125 -1.3125,1.3125 -0.390625,0 -0.546875,-0.3125 -0.546875,-0.65625 0,-0.21875 0.046875,-0.4375 0.15625,-0.875 z m 0,0"
             id="id-57754d88-a205-47f5-a58c-ce65cc10d4e9" />
        </symbol>
        <symbol
           overflow="visible"
           id="id-e6135964-edf2-410f-88fa-8a64106d52bf">
          <path
             style="stroke:none;stroke-width:0"
             d="m 0.875,-0.59375 c -0.03125,0.15625 -0.09375,0.390625 -0.09375,0.4375 0,0.171875 0.140625,0.265625 0.296875,0.265625 0.125,0 0.296875,-0.078125 0.375,-0.28125 0,-0.015625 0.125,-0.484375 0.1875,-0.734375 l 0.21875,-0.890625 C 1.90625,-2.03125 1.96875,-2.25 2.03125,-2.46875 c 0.03125,-0.171875 0.109375,-0.46875 0.125,-0.5 0.140625,-0.3125 0.671875,-1.21875 1.625,-1.21875 0.453125,0 0.53125,0.375 0.53125,0.703125 0,0.609375 -0.484375,1.890625 -0.640625,2.3125 C 3.578125,-0.9375 3.5625,-0.8125 3.5625,-0.703125 c 0,0.46875 0.359375,0.8125 0.828125,0.8125 0.9375,0 1.296875,-1.453125 1.296875,-1.53125 0,-0.109375 -0.078125,-0.109375 -0.109375,-0.109375 -0.109375,0 -0.109375,0.03125 -0.15625,0.1875 -0.203125,0.671875 -0.53125,1.234375 -1.015625,1.234375 -0.171875,0 -0.234375,-0.09375 -0.234375,-0.328125 0,-0.25 0.078125,-0.484375 0.171875,-0.703125 0.1875,-0.53125 0.609375,-1.625 0.609375,-2.203125 0,-0.65625 -0.421875,-1.0625 -1.140625,-1.0625 -0.90625,0 -1.390625,0.640625 -1.5625,0.875 -0.046875,-0.5625 -0.453125,-0.875 -0.921875,-0.875 -0.453125,0 -0.640625,0.390625 -0.734375,0.5625 C 0.421875,-3.5 0.296875,-2.90625 0.296875,-2.875 c 0,0.109375 0.09375,0.109375 0.109375,0.109375 0.109375,0 0.109375,-0.015625 0.171875,-0.234375 0.171875,-0.703125 0.375,-1.1875 0.734375,-1.1875 0.1875,0 0.296875,0.125 0.296875,0.453125 0,0.21875 -0.03125,0.328125 -0.15625,0.84375 z m 0,0"
             id="id-574e1527-7340-450d-9eaa-8a3a2a7ad06a" />
        </symbol>
        <symbol
           overflow="visible"
           id="id-9006776a-bd26-4932-a1bb-8b461f996f50">
          <path
             style="stroke:none;stroke-width:0"
             d=""
             id="id-278c9e33-401f-45d8-80cb-8e262683935f" />
        </symbol>
        <symbol
           overflow="visible"
           id="id-2857b68b-7d2f-453b-9e21-c35fdcd45e74">
          <path
             style="stroke:none;stroke-width:0"
             d="m 6.71875,-3.234375 c 0.140625,-0.0625 0.203125,-0.125 0.203125,-0.21875 0,-0.09375 -0.046875,-0.15625 -0.203125,-0.21875 l -5.5,-2.59375 C 1.09375,-6.34375 1.046875,-6.34375 1.03125,-6.34375 c -0.125,0 -0.203125,0.09375 -0.203125,0.203125 0,0.125 0.078125,0.171875 0.1875,0.21875 L 6.25,-3.453125 1.03125,-1 c -0.1875,0.09375 -0.203125,0.171875 -0.203125,0.234375 0,0.109375 0.09375,0.203125 0.203125,0.203125 0.03125,0 0.046875,0 0.171875,-0.078125 z M 6.5625,1.359375 c 0.171875,0 0.359375,0 0.359375,-0.1875 0,-0.203125 -0.21875,-0.203125 -0.359375,-0.203125 h -5.375 c -0.15625,0 -0.359375,0 -0.359375,0.203125 0,0.1875 0.171875,0.1875 0.34375,0.1875 z m 0,0"
             id="id-159e3af2-552e-45d3-a743-63f59c6c05f5" />
        </symbol>
        <symbol
           overflow="visible"
           id="id-918268e0-1d45-4ab2-8bbc-4beccf1cb181">
          <path
             style="stroke:none;stroke-width:0"
             d=""
             id="id-d9d13e86-4aef-4e58-8df0-7a12aa26218b" />
        </symbol>
        <symbol
           overflow="visible"
           id="id-1162e35a-ec1d-431e-9399-28cfb2c4d06d">
          <path
             style="stroke:none;stroke-width:0"
             d="m 0.84375,-0.4375 c -0.015625,0.09375 -0.0625,0.265625 -0.0625,0.28125 0,0.15625 0.125,0.21875 0.234375,0.21875 0.125,0 0.234375,-0.078125 0.28125,-0.140625 0.03125,-0.0625 0.078125,-0.296875 0.125,-0.4375 0.03125,-0.125 0.109375,-0.453125 0.140625,-0.625 0.046875,-0.15625 0.09375,-0.3125 0.125,-0.46875 0.078125,-0.28125 0.09375,-0.34375 0.296875,-0.625 C 2.171875,-2.515625 2.5,-2.875 3.03125,-2.875 c 0.390625,0 0.40625,0.359375 0.40625,0.484375 0,0.421875 -0.296875,1.1875 -0.40625,1.484375 -0.078125,0.203125 -0.109375,0.265625 -0.109375,0.375 0,0.375 0.296875,0.59375 0.65625,0.59375 0.703125,0 1,-0.953125 1,-1.0625 0,-0.09375 -0.078125,-0.09375 -0.109375,-0.09375 -0.09375,0 -0.09375,0.046875 -0.125,0.125 C 4.1875,-0.40625 3.875,-0.125 3.609375,-0.125 c -0.15625,0 -0.1875,-0.09375 -0.1875,-0.25 0,-0.15625 0.046875,-0.25 0.171875,-0.5625 0.078125,-0.21875 0.359375,-0.953125 0.359375,-1.34375 0,-0.671875 -0.53125,-0.796875 -0.90625,-0.796875 -0.578125,0 -0.96875,0.359375 -1.171875,0.640625 -0.046875,-0.484375 -0.453125,-0.640625 -0.75,-0.640625 -0.296875,0 -0.453125,0.21875 -0.546875,0.375 -0.15625,0.265625 -0.25,0.65625 -0.25,0.703125 0,0.078125 0.09375,0.078125 0.125,0.078125 0.09375,0 0.09375,-0.015625 0.140625,-0.203125 0.109375,-0.40625 0.25,-0.75 0.515625,-0.75 0.1875,0 0.234375,0.15625 0.234375,0.34375 0,0.125 -0.0625,0.390625 -0.125,0.578125 -0.046875,0.1875 -0.109375,0.46875 -0.140625,0.625 z m 0,0"
             id="id-21e52c4d-dab3-40b0-a921-2ef5349e74ff" />
        </symbol>
        <symbol
           overflow="visible"
           id="id-f65a22a1-edf3-448e-926d-c1a17c1bb430">
          <path
             style="stroke:none;stroke-width:0"
             d="m 2.265625,-4.359375 c 0,-0.109375 -0.09375,-0.265625 -0.28125,-0.265625 -0.1875,0 -0.390625,0.1875 -0.390625,0.390625 0,0.109375 0.078125,0.265625 0.28125,0.265625 0.1875,0 0.390625,-0.203125 0.390625,-0.390625 z M 0.84375,-0.8125 c -0.03125,0.09375 -0.0625,0.171875 -0.0625,0.296875 0,0.328125 0.265625,0.578125 0.65625,0.578125 0.6875,0 1,-0.953125 1,-1.0625 0,-0.09375 -0.09375,-0.09375 -0.109375,-0.09375 -0.09375,0 -0.109375,0.046875 -0.140625,0.125 -0.15625,0.5625 -0.453125,0.84375 -0.734375,0.84375 -0.140625,0 -0.171875,-0.09375 -0.171875,-0.25 0,-0.15625 0.046875,-0.28125 0.109375,-0.4375 C 1.46875,-1 1.546875,-1.1875 1.609375,-1.375 1.671875,-1.546875 1.9375,-2.171875 1.953125,-2.265625 1.984375,-2.328125 2,-2.40625 2,-2.484375 2,-2.8125 1.71875,-3.078125 1.34375,-3.078125 0.640625,-3.078125 0.328125,-2.125 0.328125,-2 c 0,0.078125 0.09375,0.078125 0.125,0.078125 0.09375,0 0.09375,-0.03125 0.125,-0.109375 C 0.75,-2.625 1.0625,-2.875 1.3125,-2.875 c 0.109375,0 0.171875,0.046875 0.171875,0.234375 0,0.171875 -0.03125,0.265625 -0.203125,0.703125 z m 0,0"
             id="id-ae6ee0c7-4510-4d68-8f2b-0bf5946223a1" />
        </symbol>
        <symbol
           overflow="visible"
           id="id-f99d142b-13dc-4b5d-98f0-e911e42f74f9">
          <path
             style="stroke:none;stroke-width:0"
             d=""
             id="id-c3c1e642-fbff-4ec1-ad3e-3253f3acb4c0" />
        </symbol>
        <symbol
           overflow="visible"
           id="id-538ccf06-789b-472e-9f81-bc3be791cec3">
          <path
             style="stroke:none;stroke-width:0"
             d="m 12.625,13.953125 1.203125,-3.1875 h -0.25 c -0.390625,1.03125 -1.453125,1.71875 -2.59375,2.015625 -0.203125,0.04687 -1.1875,0.3125 -3.09375,0.3125 H 1.875 L 6.953125,7.140625 C 7.015625,7.0625 7.03125,7.03125 7.03125,6.984375 c 0,-0.03125 0,-0.0625 -0.0625,-0.15625 L 2.328125,0.484375 H 7.78125 c 1.34375,0 2.25,0.140625 2.34375,0.15625 0.53125,0.078125 1.40625,0.25 2.1875,0.75 0.25,0.15625 0.921875,0.609375 1.265625,1.40625 h 0.25 L 12.625,0 H 0.84375 c -0.234375,0 -0.25,0.015625 -0.28125,0.0625 0,0.03125 0,0.234375 0,0.34375 l 5.265625,7.203125 -5.15625,6.0625 C 0.5625,13.78125 0.5625,13.84375 0.5625,13.84375 c 0,0.109375 0.09375,0.109375 0.28125,0.109375 z m 0,0"
             id="id-e90df528-a424-4dff-8cba-f2bbe1ba77bd" />
        </symbol>
        <symbol
           overflow="visible"
           id="id-2d86aa81-dc4b-4e67-b4c5-f647db18f14a">
          <path
             style="stroke:none;stroke-width:0"
             d=""
             id="id-5f37437c-6ed7-41ae-8155-cb8e807d1ef1" />
        </symbol>
        <symbol
           overflow="visible"
           id="id-f5106763-975d-4242-a5e5-fbdc864fbd1a">
          <path
             style="stroke:none;stroke-width:0"
             d="m 5.359375,-2.34375 c 0.09375,0 0.25,0 0.25,-0.171875 0,-0.171875 -0.15625,-0.171875 -0.25,-0.171875 H 0.75 c -0.09375,0 -0.265625,0 -0.265625,0.171875 0,0.171875 0.15625,0.171875 0.265625,0.171875 z m 0,1.53125 c 0.09375,0 0.25,0 0.25,-0.15625 0,-0.1875 -0.15625,-0.1875 -0.25,-0.1875 H 0.75 c -0.109375,0 -0.265625,0 -0.265625,0.1875 0,0.15625 0.171875,0.15625 0.265625,0.15625 z m 0,0"
             id="id-5560b902-6e4c-4749-964b-31ac5ba7a731" />
        </symbol>
        <symbol
           overflow="visible"
           id="id-503c57e4-38c1-44c6-8a29-629dcb2d2781">
          <path
             style="stroke:none;stroke-width:0"
             d="m 2.328125,-4.4375 c 0,-0.1875 0,-0.1875 -0.203125,-0.1875 -0.453125,0.4375 -1.078125,0.4375 -1.359375,0.4375 v 0.25 c 0.15625,0 0.625,0 1,-0.1875 v 3.546875 c 0,0.234375 0,0.328125 -0.6875,0.328125 H 0.8125 V 0 c 0.125,0 0.984375,-0.03125 1.234375,-0.03125 0.21875,0 1.09375,0.03125 1.25,0.03125 V -0.25 H 3.03125 c -0.703125,0 -0.703125,-0.09375 -0.703125,-0.328125 z m 0,0"
             id="id-1b0088e2-7dd1-426d-a048-18a21caddcd9" />
        </symbol>
      </g>
    </defs>
    <g
       transform="matrix(2.0333577,-1.2568529,1.2568529,2.0333577,-194.11044,-151.8463)"
       ns10:version="1.6.0"
       ns10:texconverter="pdflatex"
       ns10:pdfconverter="inkscape"
       ns10:text="$$C&gt;\\sum_{i=1}^n\\dfrac{x_i}{n} $$"
       ns10:preamble="/usr/share/inkscape/extensions/textext/default_packages.tex"
       ns10:scale="1.0"
       ns10:alignment="middle center"
       ns10:stroke-to-path="0"
       ns10:jacobian_sqrt="1.0"
       id="g5486"
       style="fill:#ffffff;stroke:#ffffff">
      <defs
         id="id-bbe88fcb-1a45-41a5-b10f-bf81afdaf0b4">
        <g
           id="id-93926b64-625b-408b-8f19-6281454c6cad">
          <symbol
             overflow="visible"
             id="id-7547c269-c01a-44d6-9309-671b6ee43233">
            <path
               style="stroke:none;stroke-width:0"
               d=""
               id="id-a812c596-418a-47bb-bec9-da124743bade" />
          </symbol>
          <symbol
             overflow="visible"
             id="id-56be87af-6ae7-4573-87d6-e3d570a7c9da">
            <path
               style="stroke:none;stroke-width:0"
               d="m 7.578125,-6.921875 c 0,-0.03125 -0.015625,-0.109375 -0.109375,-0.109375 -0.03125,0 -0.046875,0.015625 -0.15625,0.125 L 6.625,-6.140625 C 6.53125,-6.28125 6.078125,-7.03125 4.96875,-7.03125 2.734375,-7.03125 0.5,-4.828125 0.5,-2.515625 0.5,-0.875 1.671875,0.21875 3.203125,0.21875 c 0.859375,0 1.625,-0.390625 2.15625,-0.859375 0.921875,-0.8125 1.09375,-1.71875 1.09375,-1.75 C 6.453125,-2.5 6.34375,-2.5 6.328125,-2.5 c -0.0625,0 -0.109375,0.03125 -0.125,0.109375 -0.09375,0.28125 -0.328125,1 -1.015625,1.578125 -0.6875,0.546875 -1.3125,0.71875 -1.828125,0.71875 -0.890625,0 -1.953125,-0.515625 -1.953125,-2.0625 0,-0.578125 0.203125,-2.1875 1.203125,-3.359375 0.609375,-0.703125 1.546875,-1.203125 2.4375,-1.203125 1.015625,0 1.609375,0.765625 1.609375,1.921875 0,0.40625 -0.03125,0.40625 -0.03125,0.515625 0,0.09375 0.109375,0.09375 0.140625,0.09375 0.125,0 0.125,-0.015625 0.1875,-0.203125 z m 0,0"
               id="id-3788e074-83fe-4472-b553-f496cc3e69fd" />
          </symbol>
          <symbol
             overflow="visible"
             id="id-47523474-d22a-45f6-9942-06ad00a2d40e">
            <path
               style="stroke:none;stroke-width:0"
               d="M 6.734375,-2.265625 C 6.84375,-2.328125 6.921875,-2.375 6.921875,-2.5 c 0,-0.109375 -0.078125,-0.15625 -0.1875,-0.21875 L 1.203125,-5.3125 C 1.078125,-5.390625 1.0625,-5.390625 1.03125,-5.390625 c -0.109375,0 -0.203125,0.09375 -0.203125,0.203125 0,0.09375 0.046875,0.15625 0.1875,0.21875 L 6.25,-2.5 1.015625,-0.015625 c -0.140625,0.0625 -0.1875,0.125 -0.1875,0.21875 0,0.109375 0.09375,0.203125 0.203125,0.203125 0.03125,0 0.046875,0 0.171875,-0.078125 z m 0,0"
               id="id-c14e448b-1f51-49b1-b9c0-9b863b0e9f2f" />
          </symbol>
          <symbol
             overflow="visible"
             id="id-c14efb99-5f9e-462b-b89f-5fc17092accd">
            <path
               style="stroke:none;stroke-width:0"
               d="M 3.328125,-3.015625 C 3.390625,-3.265625 3.625,-4.1875 4.3125,-4.1875 c 0.046875,0 0.296875,0 0.5,0.125 C 4.53125,-4 4.34375,-3.765625 4.34375,-3.515625 c 0,0.15625 0.109375,0.34375 0.375,0.34375 0.21875,0 0.53125,-0.171875 0.53125,-0.578125 0,-0.515625 -0.578125,-0.65625 -0.921875,-0.65625 -0.578125,0 -0.921875,0.53125 -1.046875,0.75 -0.25,-0.65625 -0.78125,-0.75 -1.078125,-0.75 -1.03125,0 -1.609375,1.28125 -1.609375,1.53125 0,0.109375 0.109375,0.109375 0.125,0.109375 0.078125,0 0.109375,-0.03125 0.125,-0.109375 0.34375,-1.0625 1,-1.3125 1.34375,-1.3125 0.1875,0 0.53125,0.09375 0.53125,0.671875 0,0.3125 -0.171875,0.96875 -0.53125,2.375 -0.15625,0.609375 -0.515625,1.03125 -0.953125,1.03125 -0.0625,0 -0.28125,0 -0.5,-0.125 0.25,-0.0625 0.46875,-0.265625 0.46875,-0.546875 0,-0.265625 -0.21875,-0.34375 -0.359375,-0.34375 -0.3125,0 -0.546875,0.25 -0.546875,0.578125 0,0.453125 0.484375,0.65625 0.921875,0.65625 0.671875,0 1.03125,-0.703125 1.046875,-0.75 0.125,0.359375 0.484375,0.75 1.078125,0.75 1.03125,0 1.59375,-1.28125 1.59375,-1.53125 0,-0.109375 -0.078125,-0.109375 -0.109375,-0.109375 -0.09375,0 -0.109375,0.046875 -0.140625,0.109375 -0.328125,1.078125 -1,1.3125 -1.3125,1.3125 -0.390625,0 -0.546875,-0.3125 -0.546875,-0.65625 0,-0.21875 0.046875,-0.4375 0.15625,-0.875 z m 0,0"
               id="id-03b7d989-9b1c-4b43-b52d-dcf9b6eca77c" />
          </symbol>
          <symbol
             overflow="visible"
             id="id-e4b5de3d-43a0-4f17-8cec-53a63815b58e">
            <path
               style="stroke:none;stroke-width:0"
               d="m 0.875,-0.59375 c -0.03125,0.15625 -0.09375,0.390625 -0.09375,0.4375 0,0.171875 0.140625,0.265625 0.296875,0.265625 0.125,0 0.296875,-0.078125 0.375,-0.28125 0,-0.015625 0.125,-0.484375 0.1875,-0.734375 l 0.21875,-0.890625 C 1.90625,-2.03125 1.96875,-2.25 2.03125,-2.46875 c 0.03125,-0.171875 0.109375,-0.46875 0.125,-0.5 0.140625,-0.3125 0.671875,-1.21875 1.625,-1.21875 0.453125,0 0.53125,0.375 0.53125,0.703125 0,0.609375 -0.484375,1.890625 -0.640625,2.3125 C 3.578125,-0.9375 3.5625,-0.8125 3.5625,-0.703125 c 0,0.46875 0.359375,0.8125 0.828125,0.8125 0.9375,0 1.296875,-1.453125 1.296875,-1.53125 0,-0.109375 -0.078125,-0.109375 -0.109375,-0.109375 -0.109375,0 -0.109375,0.03125 -0.15625,0.1875 -0.203125,0.671875 -0.53125,1.234375 -1.015625,1.234375 -0.171875,0 -0.234375,-0.09375 -0.234375,-0.328125 0,-0.25 0.078125,-0.484375 0.171875,-0.703125 0.1875,-0.53125 0.609375,-1.625 0.609375,-2.203125 0,-0.65625 -0.421875,-1.0625 -1.140625,-1.0625 -0.90625,0 -1.390625,0.640625 -1.5625,0.875 -0.046875,-0.5625 -0.453125,-0.875 -0.921875,-0.875 -0.453125,0 -0.640625,0.390625 -0.734375,0.5625 C 0.421875,-3.5 0.296875,-2.90625 0.296875,-2.875 c 0,0.109375 0.09375,0.109375 0.109375,0.109375 0.109375,0 0.109375,-0.015625 0.171875,-0.234375 0.171875,-0.703125 0.375,-1.1875 0.734375,-1.1875 0.1875,0 0.296875,0.125 0.296875,0.453125 0,0.21875 -0.03125,0.328125 -0.15625,0.84375 z m 0,0"
               id="id-ed2ebf0b-fcbd-4a8a-9aa4-8f5fb960046c" />
          </symbol>
          <symbol
             overflow="visible"
             id="id-5399dc71-14d3-4c39-9870-2d94b3e7b463">
            <path
               style="stroke:none;stroke-width:0"
               d=""
               id="id-50ec3afb-fd88-4682-a836-b6f0b65d9750" />
          </symbol>
          <symbol
             overflow="visible"
             id="id-a677f816-0c55-4baa-8d0c-f1ada7546577">
            <path
               style="stroke:none;stroke-width:0"
               d="m 0.84375,-0.4375 c -0.015625,0.09375 -0.0625,0.265625 -0.0625,0.28125 0,0.15625 0.125,0.21875 0.234375,0.21875 0.125,0 0.234375,-0.078125 0.28125,-0.140625 0.03125,-0.0625 0.078125,-0.296875 0.125,-0.4375 0.03125,-0.125 0.109375,-0.453125 0.140625,-0.625 0.046875,-0.15625 0.09375,-0.3125 0.125,-0.46875 0.078125,-0.28125 0.09375,-0.34375 0.296875,-0.625 C 2.171875,-2.515625 2.5,-2.875 3.03125,-2.875 c 0.390625,0 0.40625,0.359375 0.40625,0.484375 0,0.421875 -0.296875,1.1875 -0.40625,1.484375 -0.078125,0.203125 -0.109375,0.265625 -0.109375,0.375 0,0.375 0.296875,0.59375 0.65625,0.59375 0.703125,0 1,-0.953125 1,-1.0625 0,-0.09375 -0.078125,-0.09375 -0.109375,-0.09375 -0.09375,0 -0.09375,0.046875 -0.125,0.125 C 4.1875,-0.40625 3.875,-0.125 3.609375,-0.125 c -0.15625,0 -0.1875,-0.09375 -0.1875,-0.25 0,-0.15625 0.046875,-0.25 0.171875,-0.5625 0.078125,-0.21875 0.359375,-0.953125 0.359375,-1.34375 0,-0.671875 -0.53125,-0.796875 -0.90625,-0.796875 -0.578125,0 -0.96875,0.359375 -1.171875,0.640625 -0.046875,-0.484375 -0.453125,-0.640625 -0.75,-0.640625 -0.296875,0 -0.453125,0.21875 -0.546875,0.375 -0.15625,0.265625 -0.25,0.65625 -0.25,0.703125 0,0.078125 0.09375,0.078125 0.125,0.078125 0.09375,0 0.09375,-0.015625 0.140625,-0.203125 0.109375,-0.40625 0.25,-0.75 0.515625,-0.75 0.1875,0 0.234375,0.15625 0.234375,0.34375 0,0.125 -0.0625,0.390625 -0.125,0.578125 -0.046875,0.1875 -0.109375,0.46875 -0.140625,0.625 z m 0,0"
               id="id-7d1a12ad-5ef3-488e-8d03-4f9565c7c8fc" />
          </symbol>
          <symbol
             overflow="visible"
             id="id-686a643c-5284-43c7-a7e0-f139dd7be173">
            <path
               style="stroke:none;stroke-width:0"
               d="m 2.265625,-4.359375 c 0,-0.109375 -0.09375,-0.265625 -0.28125,-0.265625 -0.1875,0 -0.390625,0.1875 -0.390625,0.390625 0,0.109375 0.078125,0.265625 0.28125,0.265625 0.1875,0 0.390625,-0.203125 0.390625,-0.390625 z M 0.84375,-0.8125 c -0.03125,0.09375 -0.0625,0.171875 -0.0625,0.296875 0,0.328125 0.265625,0.578125 0.65625,0.578125 0.6875,0 1,-0.953125 1,-1.0625 0,-0.09375 -0.09375,-0.09375 -0.109375,-0.09375 -0.09375,0 -0.109375,0.046875 -0.140625,0.125 -0.15625,0.5625 -0.453125,0.84375 -0.734375,0.84375 -0.140625,0 -0.171875,-0.09375 -0.171875,-0.25 0,-0.15625 0.046875,-0.28125 0.109375,-0.4375 C 1.46875,-1 1.546875,-1.1875 1.609375,-1.375 1.671875,-1.546875 1.9375,-2.171875 1.953125,-2.265625 1.984375,-2.328125 2,-2.40625 2,-2.484375 2,-2.8125 1.71875,-3.078125 1.34375,-3.078125 0.640625,-3.078125 0.328125,-2.125 0.328125,-2 c 0,0.078125 0.09375,0.078125 0.125,0.078125 0.09375,0 0.09375,-0.03125 0.125,-0.109375 C 0.75,-2.625 1.0625,-2.875 1.3125,-2.875 c 0.109375,0 0.171875,0.046875 0.171875,0.234375 0,0.171875 -0.03125,0.265625 -0.203125,0.703125 z m 0,0"
               id="id-f535bc16-4110-4f0f-aeb4-674f11efae7d" />
          </symbol>
          <symbol
             overflow="visible"
             id="id-312cbb49-34ba-4324-830a-790603369d86">
            <path
               style="stroke:none;stroke-width:0"
               d=""
               id="id-dbd5fb8f-f024-4987-8629-acf5f40231a5" />
          </symbol>
          <symbol
             overflow="visible"
             id="id-1c413ef0-6a9b-4048-b5b5-08585aa26a7d">
            <path
               style="stroke:none;stroke-width:0"
               d="m 12.625,13.953125 1.203125,-3.1875 h -0.25 c -0.390625,1.03125 -1.453125,1.71875 -2.59375,2.015625 -0.203125,0.04687 -1.1875,0.3125 -3.09375,0.3125 H 1.875 L 6.953125,7.140625 C 7.015625,7.0625 7.03125,7.03125 7.03125,6.984375 c 0,-0.03125 0,-0.0625 -0.0625,-0.15625 L 2.328125,0.484375 H 7.78125 c 1.34375,0 2.25,0.140625 2.34375,0.15625 0.53125,0.078125 1.40625,0.25 2.1875,0.75 0.25,0.15625 0.921875,0.609375 1.265625,1.40625 h 0.25 L 12.625,0 H 0.84375 c -0.234375,0 -0.25,0.015625 -0.28125,0.0625 0,0.03125 0,0.234375 0,0.34375 l 5.265625,7.203125 -5.15625,6.0625 C 0.5625,13.78125 0.5625,13.84375 0.5625,13.84375 c 0,0.109375 0.09375,0.109375 0.28125,0.109375 z m 0,0"
               id="id-4fcfb52f-0e3f-42e1-af80-f1ba049586b6" />
          </symbol>
          <symbol
             overflow="visible"
             id="id-607ccee0-0061-405c-85d6-293c0097e932">
            <path
               style="stroke:none;stroke-width:0"
               d=""
               id="id-79920ac2-3f87-47bf-a72d-8831c8ee39e3" />
          </symbol>
          <symbol
             overflow="visible"
             id="id-63060ec6-13e7-4794-974a-5e60ed5d52b0">
            <path
               style="stroke:none;stroke-width:0"
               d="m 5.359375,-2.34375 c 0.09375,0 0.25,0 0.25,-0.171875 0,-0.171875 -0.15625,-0.171875 -0.25,-0.171875 H 0.75 c -0.09375,0 -0.265625,0 -0.265625,0.171875 0,0.171875 0.15625,0.171875 0.265625,0.171875 z m 0,1.53125 c 0.09375,0 0.25,0 0.25,-0.15625 0,-0.1875 -0.15625,-0.1875 -0.25,-0.1875 H 0.75 c -0.109375,0 -0.265625,0 -0.265625,0.1875 0,0.15625 0.171875,0.15625 0.265625,0.15625 z m 0,0"
               id="id-50547b85-86b2-4b35-9e2c-74e616ca6f04" />
          </symbol>
          <symbol
             overflow="visible"
             id="id-4ecf9dbf-a9f0-4828-8538-864357f56823">
            <path
               style="stroke:none;stroke-width:0"
               d="m 2.328125,-4.4375 c 0,-0.1875 0,-0.1875 -0.203125,-0.1875 -0.453125,0.4375 -1.078125,0.4375 -1.359375,0.4375 v 0.25 c 0.15625,0 0.625,0 1,-0.1875 v 3.546875 c 0,0.234375 0,0.328125 -0.6875,0.328125 H 0.8125 V 0 c 0.125,0 0.984375,-0.03125 1.234375,-0.03125 0.21875,0 1.09375,0.03125 1.25,0.03125 V -0.25 H 3.03125 c -0.703125,0 -0.703125,-0.09375 -0.703125,-0.328125 z m 0,0"
               id="id-f02e4cc3-7f0b-4687-a2fd-a126137ea88b" />
          </symbol>
        </g>
      </defs>
      <g
         id="id-35aa006a-a38a-4d94-bf7d-7f93634e00ea"
         transform="translate(-281.839,-136.682)"
         style="fill:#ffffff;stroke:#ffffff">
        <g
           style="fill:#ffffff;fill-opacity:1;stroke:#ffffff"
           id="id-54abb129-e6fa-4063-963d-a4fec173e75c">
          <g
             transform="translate(281.339,152.213)"
             id="g5446"
             style="fill:#ffffff;stroke:#ffffff">
            <path
               style="fill:#ffffff;stroke:#ffffff;stroke-width:0"
               d="m 7.578125,-6.921875 c 0,-0.03125 -0.015625,-0.109375 -0.109375,-0.109375 -0.03125,0 -0.046875,0.015625 -0.15625,0.125 L 6.625,-6.140625 C 6.53125,-6.28125 6.078125,-7.03125 4.96875,-7.03125 2.734375,-7.03125 0.5,-4.828125 0.5,-2.515625 0.5,-0.875 1.671875,0.21875 3.203125,0.21875 c 0.859375,0 1.625,-0.390625 2.15625,-0.859375 0.921875,-0.8125 1.09375,-1.71875 1.09375,-1.75 C 6.453125,-2.5 6.34375,-2.5 6.328125,-2.5 c -0.0625,0 -0.109375,0.03125 -0.125,0.109375 -0.09375,0.28125 -0.328125,1 -1.015625,1.578125 -0.6875,0.546875 -1.3125,0.71875 -1.828125,0.71875 -0.890625,0 -1.953125,-0.515625 -1.953125,-2.0625 0,-0.578125 0.203125,-2.1875 1.203125,-3.359375 0.609375,-0.703125 1.546875,-1.203125 2.4375,-1.203125 1.015625,0 1.609375,0.765625 1.609375,1.921875 0,0.40625 -0.03125,0.40625 -0.03125,0.515625 0,0.09375 0.109375,0.09375 0.140625,0.09375 0.125,0 0.125,-0.015625 0.1875,-0.203125 z m 0,0"
               id="id-c930fca2-ed90-4607-8727-a0a92e923f05" />
          </g>
        </g>
        <g
           style="fill:#ffffff;fill-opacity:1;stroke:#ffffff"
           id="id-d0eb14b7-7878-49dd-b671-909bdec820dd">
          <g
             transform="translate(291.936,152.213)"
             id="g5450"
             style="fill:#ffffff;stroke:#ffffff">
            <path
               style="fill:#ffffff;stroke:#ffffff;stroke-width:0"
               d="M 6.734375,-2.265625 C 6.84375,-2.328125 6.921875,-2.375 6.921875,-2.5 c 0,-0.109375 -0.078125,-0.15625 -0.1875,-0.21875 L 1.203125,-5.3125 C 1.078125,-5.390625 1.0625,-5.390625 1.03125,-5.390625 c -0.109375,0 -0.203125,0.09375 -0.203125,0.203125 0,0.09375 0.046875,0.15625 0.1875,0.21875 L 6.25,-2.5 1.015625,-0.015625 c -0.140625,0.0625 -0.1875,0.125 -0.1875,0.21875 0,0.109375 0.09375,0.203125 0.203125,0.203125 0.03125,0 0.046875,0 0.171875,-0.078125 z m 0,0"
               id="id-44de17ed-1fa0-4477-af66-895a24e60a2d" />
          </g>
        </g>
        <g
           style="fill:#ffffff;fill-opacity:1;stroke:#ffffff"
           id="id-4752b8d5-a05f-49f0-a0b3-09ece564347c">
          <g
             transform="translate(307.189,139.76)"
             id="g5454"
             style="fill:#ffffff;stroke:#ffffff">
            <path
               style="fill:#ffffff;stroke:#ffffff;stroke-width:0"
               d="m 0.84375,-0.4375 c -0.015625,0.09375 -0.0625,0.265625 -0.0625,0.28125 0,0.15625 0.125,0.21875 0.234375,0.21875 0.125,0 0.234375,-0.078125 0.28125,-0.140625 0.03125,-0.0625 0.078125,-0.296875 0.125,-0.4375 0.03125,-0.125 0.109375,-0.453125 0.140625,-0.625 0.046875,-0.15625 0.09375,-0.3125 0.125,-0.46875 0.078125,-0.28125 0.09375,-0.34375 0.296875,-0.625 C 2.171875,-2.515625 2.5,-2.875 3.03125,-2.875 c 0.390625,0 0.40625,0.359375 0.40625,0.484375 0,0.421875 -0.296875,1.1875 -0.40625,1.484375 -0.078125,0.203125 -0.109375,0.265625 -0.109375,0.375 0,0.375 0.296875,0.59375 0.65625,0.59375 0.703125,0 1,-0.953125 1,-1.0625 0,-0.09375 -0.078125,-0.09375 -0.109375,-0.09375 -0.09375,0 -0.09375,0.046875 -0.125,0.125 C 4.1875,-0.40625 3.875,-0.125 3.609375,-0.125 c -0.15625,0 -0.1875,-0.09375 -0.1875,-0.25 0,-0.15625 0.046875,-0.25 0.171875,-0.5625 0.078125,-0.21875 0.359375,-0.953125 0.359375,-1.34375 0,-0.671875 -0.53125,-0.796875 -0.90625,-0.796875 -0.578125,0 -0.96875,0.359375 -1.171875,0.640625 -0.046875,-0.484375 -0.453125,-0.640625 -0.75,-0.640625 -0.296875,0 -0.453125,0.21875 -0.546875,0.375 -0.15625,0.265625 -0.25,0.65625 -0.25,0.703125 0,0.078125 0.09375,0.078125 0.125,0.078125 0.09375,0 0.09375,-0.015625 0.140625,-0.203125 0.109375,-0.40625 0.25,-0.75 0.515625,-0.75 0.1875,0 0.234375,0.15625 0.234375,0.34375 0,0.125 -0.0625,0.390625 -0.125,0.578125 -0.046875,0.1875 -0.109375,0.46875 -0.140625,0.625 z m 0,0"
               id="id-5dcc4e58-05f8-4def-8beb-bc0fd46f235f" />
          </g>
        </g>
        <g
           style="fill:#ffffff;fill-opacity:1;stroke:#ffffff"
           id="id-05340105-a13f-4205-9c06-c9058c86c225">
          <g
             transform="translate(302.456,142.749)"
             id="g5458"
             style="fill:#ffffff;stroke:#ffffff">
            <path
               style="fill:#ffffff;stroke:#ffffff;stroke-width:0"
               d="m 12.625,13.953125 1.203125,-3.1875 h -0.25 c -0.390625,1.03125 -1.453125,1.71875 -2.59375,2.015625 -0.203125,0.04687 -1.1875,0.3125 -3.09375,0.3125 H 1.875 L 6.953125,7.140625 C 7.015625,7.0625 7.03125,7.03125 7.03125,6.984375 c 0,-0.03125 0,-0.0625 -0.0625,-0.15625 L 2.328125,0.484375 H 7.78125 c 1.34375,0 2.25,0.140625 2.34375,0.15625 0.53125,0.078125 1.40625,0.25 2.1875,0.75 0.25,0.15625 0.921875,0.609375 1.265625,1.40625 h 0.25 L 12.625,0 H 0.84375 c -0.234375,0 -0.25,0.015625 -0.28125,0.0625 0,0.03125 0,0.234375 0,0.34375 l 5.265625,7.203125 -5.15625,6.0625 C 0.5625,13.78125 0.5625,13.84375 0.5625,13.84375 c 0,0.109375 0.09375,0.109375 0.28125,0.109375 z m 0,0"
               id="id-cf70c490-faff-4b45-96f4-1ed8a28aa947" />
          </g>
        </g>
        <g
           style="fill:#ffffff;fill-opacity:1;stroke:#ffffff"
           id="id-fa846fd0-bde7-49a7-8cc3-bdb57042f30b">
          <g
             transform="translate(303.198,163.968)"
             id="g5462"
             style="fill:#ffffff;stroke:#ffffff">
            <path
               style="fill:#ffffff;stroke:#ffffff;stroke-width:0"
               d="m 2.265625,-4.359375 c 0,-0.109375 -0.09375,-0.265625 -0.28125,-0.265625 -0.1875,0 -0.390625,0.1875 -0.390625,0.390625 0,0.109375 0.078125,0.265625 0.28125,0.265625 0.1875,0 0.390625,-0.203125 0.390625,-0.390625 z M 0.84375,-0.8125 c -0.03125,0.09375 -0.0625,0.171875 -0.0625,0.296875 0,0.328125 0.265625,0.578125 0.65625,0.578125 0.6875,0 1,-0.953125 1,-1.0625 0,-0.09375 -0.09375,-0.09375 -0.109375,-0.09375 -0.09375,0 -0.109375,0.046875 -0.140625,0.125 -0.15625,0.5625 -0.453125,0.84375 -0.734375,0.84375 -0.140625,0 -0.171875,-0.09375 -0.171875,-0.25 0,-0.15625 0.046875,-0.28125 0.109375,-0.4375 C 1.46875,-1 1.546875,-1.1875 1.609375,-1.375 1.671875,-1.546875 1.9375,-2.171875 1.953125,-2.265625 1.984375,-2.328125 2,-2.40625 2,-2.484375 2,-2.8125 1.71875,-3.078125 1.34375,-3.078125 0.640625,-3.078125 0.328125,-2.125 0.328125,-2 c 0,0.078125 0.09375,0.078125 0.125,0.078125 0.09375,0 0.09375,-0.03125 0.125,-0.109375 C 0.75,-2.625 1.0625,-2.875 1.3125,-2.875 c 0.109375,0 0.171875,0.046875 0.171875,0.234375 0,0.171875 -0.03125,0.265625 -0.203125,0.703125 z m 0,0"
               id="id-d2ce4624-5b81-4dc7-83db-188f85a0b15f" />
          </g>
        </g>
        <g
           style="fill:#ffffff;fill-opacity:1;stroke:#ffffff"
           id="id-51e89b44-7a8a-4ee4-8171-51a2282f3aad">
          <g
             transform="translate(306.017,163.968)"
             id="g5466"
             style="fill:#ffffff;stroke:#ffffff">
            <path
               style="fill:#ffffff;stroke:#ffffff;stroke-width:0"
               d="m 5.359375,-2.34375 c 0.09375,0 0.25,0 0.25,-0.171875 0,-0.171875 -0.15625,-0.171875 -0.25,-0.171875 H 0.75 c -0.09375,0 -0.265625,0 -0.265625,0.171875 0,0.171875 0.15625,0.171875 0.265625,0.171875 z m 0,1.53125 c 0.09375,0 0.25,0 0.25,-0.15625 0,-0.1875 -0.15625,-0.1875 -0.25,-0.1875 H 0.75 c -0.109375,0 -0.265625,0 -0.265625,0.1875 0,0.15625 0.171875,0.15625 0.265625,0.15625 z m 0,0"
               id="id-48d9430e-0a28-452a-a903-c82ecc29973d" />
          </g>
          <g
             transform="translate(312.133,163.968)"
             id="g5469"
             style="fill:#ffffff;stroke:#ffffff">
            <path
               style="fill:#ffffff;stroke:#ffffff;stroke-width:0"
               d="m 2.328125,-4.4375 c 0,-0.1875 0,-0.1875 -0.203125,-0.1875 -0.453125,0.4375 -1.078125,0.4375 -1.359375,0.4375 v 0.25 c 0.15625,0 0.625,0 1,-0.1875 v 3.546875 c 0,0.234375 0,0.328125 -0.6875,0.328125 H 0.8125 V 0 c 0.125,0 0.984375,-0.03125 1.234375,-0.03125 0.21875,0 1.09375,0.03125 1.25,0.03125 V -0.25 H 3.03125 c -0.703125,0 -0.703125,-0.09375 -0.703125,-0.328125 z m 0,0"
               id="id-91a49775-f72d-4cb1-8d1c-2caf90539477" />
          </g>
        </g>
        <g
           style="fill:#ffffff;fill-opacity:1;stroke:#ffffff"
           id="id-41adf796-eb25-4855-8d58-70373e49b428">
          <g
             transform="translate(319.702,145.473)"
             id="g5473"
             style="fill:#ffffff;stroke:#ffffff">
            <path
               style="fill:#ffffff;stroke:#ffffff;stroke-width:0"
               d="M 3.328125,-3.015625 C 3.390625,-3.265625 3.625,-4.1875 4.3125,-4.1875 c 0.046875,0 0.296875,0 0.5,0.125 C 4.53125,-4 4.34375,-3.765625 4.34375,-3.515625 c 0,0.15625 0.109375,0.34375 0.375,0.34375 0.21875,0 0.53125,-0.171875 0.53125,-0.578125 0,-0.515625 -0.578125,-0.65625 -0.921875,-0.65625 -0.578125,0 -0.921875,0.53125 -1.046875,0.75 -0.25,-0.65625 -0.78125,-0.75 -1.078125,-0.75 -1.03125,0 -1.609375,1.28125 -1.609375,1.53125 0,0.109375 0.109375,0.109375 0.125,0.109375 0.078125,0 0.109375,-0.03125 0.125,-0.109375 0.34375,-1.0625 1,-1.3125 1.34375,-1.3125 0.1875,0 0.53125,0.09375 0.53125,0.671875 0,0.3125 -0.171875,0.96875 -0.53125,2.375 -0.15625,0.609375 -0.515625,1.03125 -0.953125,1.03125 -0.0625,0 -0.28125,0 -0.5,-0.125 0.25,-0.0625 0.46875,-0.265625 0.46875,-0.546875 0,-0.265625 -0.21875,-0.34375 -0.359375,-0.34375 -0.3125,0 -0.546875,0.25 -0.546875,0.578125 0,0.453125 0.484375,0.65625 0.921875,0.65625 0.671875,0 1.03125,-0.703125 1.046875,-0.75 0.125,0.359375 0.484375,0.75 1.078125,0.75 1.03125,0 1.59375,-1.28125 1.59375,-1.53125 0,-0.109375 -0.078125,-0.109375 -0.109375,-0.109375 -0.09375,0 -0.109375,0.046875 -0.140625,0.109375 -0.328125,1.078125 -1,1.3125 -1.3125,1.3125 -0.390625,0 -0.546875,-0.3125 -0.546875,-0.65625 0,-0.21875 0.046875,-0.4375 0.15625,-0.875 z m 0,0"
               id="id-ea25bbe9-06d4-4661-99b8-7b1223ac5dbb" />
          </g>
        </g>
        <g
           style="fill:#ffffff;fill-opacity:1;stroke:#ffffff"
           id="id-9e6953cd-b3f4-46f1-a198-dd1ee9fa1148">
          <g
             transform="translate(325.396,146.968)"
             id="g5477"
             style="fill:#ffffff;stroke:#ffffff">
            <path
               style="fill:#ffffff;stroke:#ffffff;stroke-width:0"
               d="m 2.265625,-4.359375 c 0,-0.109375 -0.09375,-0.265625 -0.28125,-0.265625 -0.1875,0 -0.390625,0.1875 -0.390625,0.390625 0,0.109375 0.078125,0.265625 0.28125,0.265625 0.1875,0 0.390625,-0.203125 0.390625,-0.390625 z M 0.84375,-0.8125 c -0.03125,0.09375 -0.0625,0.171875 -0.0625,0.296875 0,0.328125 0.265625,0.578125 0.65625,0.578125 0.6875,0 1,-0.953125 1,-1.0625 0,-0.09375 -0.09375,-0.09375 -0.109375,-0.09375 -0.09375,0 -0.109375,0.046875 -0.140625,0.125 -0.15625,0.5625 -0.453125,0.84375 -0.734375,0.84375 -0.140625,0 -0.171875,-0.09375 -0.171875,-0.25 0,-0.15625 0.046875,-0.28125 0.109375,-0.4375 C 1.46875,-1 1.546875,-1.1875 1.609375,-1.375 1.671875,-1.546875 1.9375,-2.171875 1.953125,-2.265625 1.984375,-2.328125 2,-2.40625 2,-2.484375 2,-2.8125 1.71875,-3.078125 1.34375,-3.078125 0.640625,-3.078125 0.328125,-2.125 0.328125,-2 c 0,0.078125 0.09375,0.078125 0.125,0.078125 0.09375,0 0.09375,-0.03125 0.125,-0.109375 C 0.75,-2.625 1.0625,-2.875 1.3125,-2.875 c 0.109375,0 0.171875,0.046875 0.171875,0.234375 0,0.171875 -0.03125,0.265625 -0.203125,0.703125 z m 0,0"
               id="id-db419604-fc70-4ec1-a873-3a79b37e7371" />
          </g>
        </g>
        <path
           style="fill:#ffffff;stroke:#ffffff;stroke-width:0.398;stroke-linecap:butt;stroke-linejoin:miter;stroke-miterlimit:10;stroke-opacity:1"
           d="M 0.001125,-6.5625e-4 H 9.012844"
           transform="matrix(1,0,0,-1,319.702,149.722)"
           id="id-0168f0ed-16db-4140-b88a-0fa734cb4bf2" />
        <g
           style="fill:#ffffff;fill-opacity:1;stroke:#ffffff"
           id="id-8be141ac-9eee-4b1c-a8fd-89e9d485a584">
          <g
             transform="translate(321.218,159.047)"
             id="g5482"
             style="fill:#ffffff;stroke:#ffffff">
            <path
               style="fill:#ffffff;stroke:#ffffff;stroke-width:0"
               d="m 0.875,-0.59375 c -0.03125,0.15625 -0.09375,0.390625 -0.09375,0.4375 0,0.171875 0.140625,0.265625 0.296875,0.265625 0.125,0 0.296875,-0.078125 0.375,-0.28125 0,-0.015625 0.125,-0.484375 0.1875,-0.734375 l 0.21875,-0.890625 C 1.90625,-2.03125 1.96875,-2.25 2.03125,-2.46875 c 0.03125,-0.171875 0.109375,-0.46875 0.125,-0.5 0.140625,-0.3125 0.671875,-1.21875 1.625,-1.21875 0.453125,0 0.53125,0.375 0.53125,0.703125 0,0.609375 -0.484375,1.890625 -0.640625,2.3125 C 3.578125,-0.9375 3.5625,-0.8125 3.5625,-0.703125 c 0,0.46875 0.359375,0.8125 0.828125,0.8125 0.9375,0 1.296875,-1.453125 1.296875,-1.53125 0,-0.109375 -0.078125,-0.109375 -0.109375,-0.109375 -0.109375,0 -0.109375,0.03125 -0.15625,0.1875 -0.203125,0.671875 -0.53125,1.234375 -1.015625,1.234375 -0.171875,0 -0.234375,-0.09375 -0.234375,-0.328125 0,-0.25 0.078125,-0.484375 0.171875,-0.703125 0.1875,-0.53125 0.609375,-1.625 0.609375,-2.203125 0,-0.65625 -0.421875,-1.0625 -1.140625,-1.0625 -0.90625,0 -1.390625,0.640625 -1.5625,0.875 -0.046875,-0.5625 -0.453125,-0.875 -0.921875,-0.875 -0.453125,0 -0.640625,0.390625 -0.734375,0.5625 C 0.421875,-3.5 0.296875,-2.90625 0.296875,-2.875 c 0,0.109375 0.09375,0.109375 0.109375,0.109375 0.109375,0 0.109375,-0.015625 0.171875,-0.234375 0.171875,-0.703125 0.375,-1.1875 0.734375,-1.1875 0.1875,0 0.296875,0.125 0.296875,0.453125 0,0.21875 -0.03125,0.328125 -0.15625,0.84375 z m 0,0"
               id="id-9e5c7ab1-aa06-41ad-b397-5ba2c296159c" />
          </g>
        </g>
      </g>
    </g>
  </g>
  <text
     xml:space="preserve"
     style="font-size:40px;line-height:1.25;font-family:sans-serif;letter-spacing:0px"
     x="448.02899"
     y="131.87514"
     id="text14831"><tspan
       sodipodi:role="line"
       id="tspan14829"
       x="448.02899"
       y="131.87514"
       style="fill:#808080">Horrio</tspan></text>
</svg>
